<?xml version="1.0" encoding="UTF-8"?>
<svg xmlns="http://www.w3.org/2000/svg" xmlns:xlink="http://www.w3.org/1999/xlink" width="412pt" height="226pt" viewBox="0 0 412 226" version="1.1">
<defs>
<clipPath id="clip1">
  <path d="M 69 9 L 72 9 L 72 178.875 L 69 178.875 Z M 69 9 "/>
</clipPath>
<clipPath id="clip2">
  <path d="M 109 9 L 112 9 L 112 178.875 L 109 178.875 Z M 109 9 "/>
</clipPath>
<clipPath id="clip3">
  <path d="M 149 9 L 152 9 L 152 178.875 L 149 178.875 Z M 149 9 "/>
</clipPath>
<clipPath id="clip4">
  <path d="M 189 9 L 191 9 L 191 178.875 L 189 178.875 Z M 189 9 "/>
</clipPath>
<clipPath id="clip5">
  <path d="M 229 9 L 231 9 L 231 178.875 L 229 178.875 Z M 229 9 "/>
</clipPath>
<clipPath id="clip6">
  <path d="M 269 9 L 271 9 L 271 178.875 L 269 178.875 Z M 269 9 "/>
</clipPath>
<clipPath id="clip7">
  <path d="M 309 9 L 311 9 L 311 178.875 L 309 178.875 Z M 309 9 "/>
</clipPath>
<clipPath id="clip8">
  <path d="M 349 9 L 351 9 L 351 178.875 L 349 178.875 Z M 349 9 "/>
</clipPath>
<clipPath id="clip9">
  <path d="M 388 9 L 391 9 L 391 178.875 L 388 178.875 Z M 388 9 "/>
</clipPath>
<clipPath id="clip10">
  <path d="M 54.726562 170 L 403.476562 170 L 403.476562 172 L 54.726562 172 Z M 54.726562 170 "/>
</clipPath>
<clipPath id="clip11">
  <path d="M 54.726562 139 L 403.476562 139 L 403.476562 141 L 54.726562 141 Z M 54.726562 139 "/>
</clipPath>
<clipPath id="clip12">
  <path d="M 54.726562 108 L 403.476562 108 L 403.476562 111 L 54.726562 111 Z M 54.726562 108 "/>
</clipPath>
<clipPath id="clip13">
  <path d="M 54.726562 77 L 403.476562 77 L 403.476562 80 L 54.726562 80 Z M 54.726562 77 "/>
</clipPath>
<clipPath id="clip14">
  <path d="M 54.726562 46 L 403.476562 46 L 403.476562 49 L 54.726562 49 Z M 54.726562 46 "/>
</clipPath>
<clipPath id="clip15">
  <path d="M 54.726562 16 L 403.476562 16 L 403.476562 18 L 54.726562 18 Z M 54.726562 16 "/>
</clipPath>
</defs>
<g id="surface1">
<path style=" stroke:none;fill-rule:nonzero;fill:rgb(100%,100%,100%);fill-opacity:1;" d="M 54.726562 178.875 L 403.476562 178.875 L 403.476562 9 L 54.726562 9 Z M 54.726562 178.875 "/>
<g clip-path="url(#clip1)" clip-rule="nonzero">
<path style="fill:none;stroke-width:0.8;stroke-linecap:square;stroke-linejoin:round;stroke:rgb(69.019608%,69.019608%,69.019608%);stroke-opacity:1;stroke-miterlimit:4;" d="M 56.4625 143.1 L 56.4625 7.2 " transform="matrix(1.25,0,0,1.25,0,0)"/>
</g>
<path style="fill:none;stroke-width:0.8;stroke-linecap:butt;stroke-linejoin:round;stroke:rgb(0%,0%,0%);stroke-opacity:1;stroke-miterlimit:4;" d="M -0.000568 0 L -0.000568 3.5 " transform="matrix(1.25,0,0,1.25,70.578835,178.875)"/>
<path style=" stroke:none;fill-rule:nonzero;fill:rgb(0%,0%,0%);fill-opacity:1;" d="M 62.6875 192.6875 L 70.511719 192.6875 L 70.511719 193.722656 L 62.6875 193.722656 Z M 62.6875 192.6875 "/>
<path style=" stroke:none;fill-rule:nonzero;fill:rgb(0%,0%,0%);fill-opacity:1;" d="M 75.8125 192.796875 C 75.226562 192.796875 74.765625 192.953125 74.429688 193.265625 C 74.09375 193.578125 73.925781 194.011719 73.925781 194.558594 C 73.925781 195.109375 74.09375 195.539062 74.429688 195.855469 C 74.765625 196.167969 75.226562 196.324219 75.8125 196.324219 C 76.398438 196.324219 76.859375 196.167969 77.195312 195.851562 C 77.535156 195.535156 77.703125 195.105469 77.703125 194.558594 C 77.703125 194.011719 77.535156 193.578125 77.199219 193.265625 C 76.867188 192.953125 76.402344 192.796875 75.8125 192.796875 Z M 74.578125 192.273438 C 74.050781 192.140625 73.636719 191.894531 73.34375 191.535156 C 73.046875 191.171875 72.902344 190.726562 72.902344 190.207031 C 72.902344 189.480469 73.160156 188.902344 73.679688 188.480469 C 74.199219 188.058594 74.910156 187.847656 75.8125 187.847656 C 76.71875 187.847656 77.429688 188.058594 77.949219 188.480469 C 78.464844 188.902344 78.722656 189.480469 78.722656 190.207031 C 78.722656 190.726562 78.574219 191.171875 78.28125 191.535156 C 77.984375 191.894531 77.578125 192.140625 77.050781 192.273438 C 77.644531 192.410156 78.109375 192.679688 78.4375 193.085938 C 78.769531 193.488281 78.9375 193.976562 78.9375 194.558594 C 78.9375 195.441406 78.667969 196.121094 78.128906 196.59375 C 77.589844 197.066406 76.816406 197.300781 75.8125 197.300781 C 74.808594 197.300781 74.035156 197.066406 73.496094 196.59375 C 72.957031 196.121094 72.6875 195.441406 72.6875 194.558594 C 72.6875 193.976562 72.851562 193.488281 73.1875 193.085938 C 73.519531 192.679688 73.984375 192.410156 74.578125 192.273438 Z M 74.128906 190.324219 C 74.128906 190.796875 74.273438 191.164062 74.570312 191.429688 C 74.863281 191.691406 75.277344 191.824219 75.8125 191.824219 C 76.339844 191.824219 76.753906 191.691406 77.054688 191.429688 C 77.351562 191.164062 77.503906 190.796875 77.503906 190.324219 C 77.503906 189.851562 77.351562 189.484375 77.054688 189.21875 C 76.753906 188.953125 76.339844 188.824219 75.8125 188.824219 C 75.277344 188.824219 74.863281 188.953125 74.570312 189.21875 C 74.273438 189.484375 74.128906 189.851562 74.128906 190.324219 Z M 74.128906 190.324219 "/>
<g clip-path="url(#clip2)" clip-rule="nonzero">
<path style="fill:none;stroke-width:0.8;stroke-linecap:square;stroke-linejoin:round;stroke:rgb(69.019608%,69.019608%,69.019608%);stroke-opacity:1;stroke-miterlimit:4;" d="M 88.365625 143.1 L 88.365625 7.2 " transform="matrix(1.25,0,0,1.25,0,0)"/>
</g>
<path style="fill:none;stroke-width:0.8;stroke-linecap:butt;stroke-linejoin:round;stroke:rgb(0%,0%,0%);stroke-opacity:1;stroke-miterlimit:4;" d="M -0.001389 0 L -0.001389 3.5 " transform="matrix(1.25,0,0,1.25,110.458767,178.875)"/>
<path style=" stroke:none;fill-rule:nonzero;fill:rgb(0%,0%,0%);fill-opacity:1;" d="M 102.570312 192.6875 L 110.394531 192.6875 L 110.394531 193.722656 L 102.570312 193.722656 Z M 102.570312 192.6875 "/>
<path style=" stroke:none;fill-rule:nonzero;fill:rgb(0%,0%,0%);fill-opacity:1;" d="M 115.84375 192.078125 C 115.292969 192.078125 114.851562 192.265625 114.527344 192.644531 C 114.207031 193.023438 114.042969 193.539062 114.042969 194.199219 C 114.042969 194.855469 114.207031 195.371094 114.527344 195.753906 C 114.851562 196.132812 115.292969 196.324219 115.84375 196.324219 C 116.398438 196.324219 116.835938 196.132812 117.160156 195.753906 C 117.484375 195.371094 117.644531 194.855469 117.644531 194.199219 C 117.644531 193.539062 117.484375 193.023438 117.160156 192.644531 C 116.835938 192.265625 116.398438 192.078125 115.84375 192.078125 Z M 118.292969 188.210938 L 118.292969 189.335938 C 117.984375 189.1875 117.671875 189.078125 117.355469 189 C 117.039062 188.921875 116.726562 188.882812 116.417969 188.882812 C 115.605469 188.882812 114.980469 189.15625 114.550781 189.707031 C 114.125 190.257812 113.878906 191.085938 113.816406 192.199219 C 114.058594 191.84375 114.359375 191.570312 114.71875 191.382812 C 115.082031 191.195312 115.484375 191.101562 115.917969 191.101562 C 116.832031 191.101562 117.554688 191.378906 118.085938 191.933594 C 118.617188 192.488281 118.882812 193.242188 118.882812 194.199219 C 118.882812 195.136719 118.609375 195.886719 118.054688 196.453125 C 117.5 197.019531 116.765625 197.300781 115.84375 197.300781 C 114.789062 197.300781 113.984375 196.898438 113.425781 196.089844 C 112.871094 195.28125 112.589844 194.109375 112.589844 192.578125 C 112.589844 191.136719 112.933594 189.988281 113.617188 189.132812 C 114.300781 188.273438 115.21875 187.847656 116.367188 187.847656 C 116.679688 187.847656 116.992188 187.875 117.304688 187.9375 C 117.621094 188 117.949219 188.089844 118.292969 188.210938 Z M 118.292969 188.210938 "/>
<g clip-path="url(#clip3)" clip-rule="nonzero">
<path style="fill:none;stroke-width:0.8;stroke-linecap:square;stroke-linejoin:round;stroke:rgb(69.019608%,69.019608%,69.019608%);stroke-opacity:1;stroke-miterlimit:4;" d="M 120.271875 143.1 L 120.271875 7.2 " transform="matrix(1.25,0,0,1.25,0,0)"/>
</g>
<path style="fill:none;stroke-width:0.8;stroke-linecap:butt;stroke-linejoin:round;stroke:rgb(0%,0%,0%);stroke-opacity:1;stroke-miterlimit:4;" d="M 0.000915 0 L 0.000915 3.5 " transform="matrix(1.25,0,0,1.25,150.3387,178.875)"/>
<path style=" stroke:none;fill-rule:nonzero;fill:rgb(0%,0%,0%);fill-opacity:1;" d="M 142.449219 192.6875 L 150.273438 192.6875 L 150.273438 193.722656 L 142.449219 193.722656 Z M 142.449219 192.6875 "/>
<path style=" stroke:none;fill-rule:nonzero;fill:rgb(0%,0%,0%);fill-opacity:1;" d="M 156.324219 189.085938 L 153.210938 193.949219 L 156.324219 193.949219 Z M 156 188.011719 L 157.550781 188.011719 L 157.550781 193.949219 L 158.851562 193.949219 L 158.851562 194.976562 L 157.550781 194.976562 L 157.550781 197.125 L 156.324219 197.125 L 156.324219 194.976562 L 152.210938 194.976562 L 152.210938 193.785156 Z M 156 188.011719 "/>
<g clip-path="url(#clip4)" clip-rule="nonzero">
<path style="fill:none;stroke-width:0.8;stroke-linecap:square;stroke-linejoin:round;stroke:rgb(69.019608%,69.019608%,69.019608%);stroke-opacity:1;stroke-miterlimit:4;" d="M 152.175 143.1 L 152.175 7.2 " transform="matrix(1.25,0,0,1.25,0,0)"/>
</g>
<path style="fill:none;stroke-width:0.8;stroke-linecap:butt;stroke-linejoin:round;stroke:rgb(0%,0%,0%);stroke-opacity:1;stroke-miterlimit:4;" d="M 0.000094 0 L 0.000094 3.5 " transform="matrix(1.25,0,0,1.25,190.218632,178.875)"/>
<path style=" stroke:none;fill-rule:nonzero;fill:rgb(0%,0%,0%);fill-opacity:1;" d="M 182.328125 192.6875 L 190.152344 192.6875 L 190.152344 193.722656 L 182.328125 193.722656 Z M 182.328125 192.6875 "/>
<path style=" stroke:none;fill-rule:nonzero;fill:rgb(0%,0%,0%);fill-opacity:1;" d="M 193.875 196.085938 L 198.179688 196.085938 L 198.179688 197.125 L 192.394531 197.125 L 192.394531 196.085938 C 192.863281 195.601562 193.5 194.953125 194.304688 194.136719 C 195.113281 193.320312 195.621094 192.792969 195.828125 192.558594 C 196.222656 192.113281 196.5 191.738281 196.65625 191.433594 C 196.8125 191.125 196.890625 190.824219 196.890625 190.527344 C 196.890625 190.042969 196.722656 189.648438 196.382812 189.34375 C 196.042969 189.035156 195.601562 188.882812 195.054688 188.882812 C 194.667969 188.882812 194.257812 188.949219 193.828125 189.085938 C 193.402344 189.21875 192.941406 189.421875 192.453125 189.695312 L 192.453125 188.449219 C 192.949219 188.25 193.414062 188.101562 193.84375 188 C 194.277344 187.898438 194.671875 187.847656 195.03125 187.847656 C 195.976562 187.847656 196.726562 188.082031 197.289062 188.554688 C 197.851562 189.027344 198.128906 189.65625 198.128906 190.445312 C 198.128906 190.820312 198.058594 191.175781 197.917969 191.511719 C 197.78125 191.847656 197.523438 192.242188 197.152344 192.699219 C 197.050781 192.816406 196.730469 193.15625 196.183594 193.722656 C 195.640625 194.285156 194.871094 195.074219 193.875 196.085938 Z M 193.875 196.085938 "/>
<g clip-path="url(#clip5)" clip-rule="nonzero">
<path style="fill:none;stroke-width:0.8;stroke-linecap:square;stroke-linejoin:round;stroke:rgb(69.019608%,69.019608%,69.019608%);stroke-opacity:1;stroke-miterlimit:4;" d="M 184.078125 143.1 L 184.078125 7.2 " transform="matrix(1.25,0,0,1.25,0,0)"/>
</g>
<path style="fill:none;stroke-width:0.8;stroke-linecap:butt;stroke-linejoin:round;stroke:rgb(0%,0%,0%);stroke-opacity:1;stroke-miterlimit:4;" d="M -0.000727 0 L -0.000727 3.5 " transform="matrix(1.25,0,0,1.25,230.098565,178.875)"/>
<path style=" stroke:none;fill-rule:nonzero;fill:rgb(0%,0%,0%);fill-opacity:1;" d="M 230.09375 188.824219 C 229.460938 188.824219 228.984375 189.136719 228.664062 189.761719 C 228.34375 190.382812 228.183594 191.324219 228.183594 192.578125 C 228.183594 193.824219 228.34375 194.761719 228.664062 195.386719 C 228.984375 196.011719 229.460938 196.324219 230.09375 196.324219 C 230.734375 196.324219 231.214844 196.011719 231.53125 195.386719 C 231.851562 194.761719 232.011719 193.824219 232.011719 192.578125 C 232.011719 191.324219 231.851562 190.382812 231.53125 189.761719 C 231.214844 189.136719 230.734375 188.824219 230.09375 188.824219 Z M 230.09375 187.847656 C 231.117188 187.847656 231.898438 188.25 232.4375 189.058594 C 232.976562 189.867188 233.246094 191.039062 233.246094 192.578125 C 233.246094 194.109375 232.976562 195.28125 232.4375 196.089844 C 231.898438 196.898438 231.117188 197.300781 230.09375 197.300781 C 229.074219 197.300781 228.292969 196.898438 227.753906 196.089844 C 227.214844 195.28125 226.945312 194.109375 226.945312 192.578125 C 226.945312 191.039062 227.214844 189.867188 227.753906 189.058594 C 228.292969 188.25 229.074219 187.847656 230.09375 187.847656 Z M 230.09375 187.847656 "/>
<g clip-path="url(#clip6)" clip-rule="nonzero">
<path style="fill:none;stroke-width:0.8;stroke-linecap:square;stroke-linejoin:round;stroke:rgb(69.019608%,69.019608%,69.019608%);stroke-opacity:1;stroke-miterlimit:4;" d="M 215.98125 143.1 L 215.98125 7.2 " transform="matrix(1.25,0,0,1.25,0,0)"/>
</g>
<path style="fill:none;stroke-width:0.8;stroke-linecap:butt;stroke-linejoin:round;stroke:rgb(0%,0%,0%);stroke-opacity:1;stroke-miterlimit:4;" d="M -0.001548 0 L -0.001548 3.5 " transform="matrix(1.25,0,0,1.25,269.978498,178.875)"/>
<path style=" stroke:none;fill-rule:nonzero;fill:rgb(0%,0%,0%);fill-opacity:1;" d="M 268.398438 196.085938 L 272.703125 196.085938 L 272.703125 197.125 L 266.917969 197.125 L 266.917969 196.085938 C 267.386719 195.601562 268.023438 194.953125 268.828125 194.136719 C 269.636719 193.320312 270.144531 192.792969 270.351562 192.558594 C 270.746094 192.113281 271.023438 191.738281 271.179688 191.433594 C 271.335938 191.125 271.414062 190.824219 271.414062 190.527344 C 271.414062 190.042969 271.246094 189.648438 270.90625 189.34375 C 270.566406 189.035156 270.125 188.882812 269.578125 188.882812 C 269.191406 188.882812 268.78125 188.949219 268.351562 189.085938 C 267.925781 189.21875 267.464844 189.421875 266.976562 189.695312 L 266.976562 188.449219 C 267.472656 188.25 267.9375 188.101562 268.367188 188 C 268.800781 187.898438 269.195312 187.847656 269.554688 187.847656 C 270.5 187.847656 271.25 188.082031 271.8125 188.554688 C 272.375 189.027344 272.652344 189.65625 272.652344 190.445312 C 272.652344 190.820312 272.582031 191.175781 272.441406 191.511719 C 272.304688 191.847656 272.046875 192.242188 271.675781 192.699219 C 271.574219 192.816406 271.253906 193.15625 270.707031 193.722656 C 270.164062 194.285156 269.394531 195.074219 268.398438 196.085938 Z M 268.398438 196.085938 "/>
<g clip-path="url(#clip7)" clip-rule="nonzero">
<path style="fill:none;stroke-width:0.8;stroke-linecap:square;stroke-linejoin:round;stroke:rgb(69.019608%,69.019608%,69.019608%);stroke-opacity:1;stroke-miterlimit:4;" d="M 247.8875 143.1 L 247.8875 7.2 " transform="matrix(1.25,0,0,1.25,0,0)"/>
</g>
<path style="fill:none;stroke-width:0.8;stroke-linecap:butt;stroke-linejoin:round;stroke:rgb(0%,0%,0%);stroke-opacity:1;stroke-miterlimit:4;" d="M 0.000757 0 L 0.000757 3.5 " transform="matrix(1.25,0,0,1.25,309.858429,178.875)"/>
<path style=" stroke:none;fill-rule:nonzero;fill:rgb(0%,0%,0%);fill-opacity:1;" d="M 310.605469 189.085938 L 307.492188 193.949219 L 310.605469 193.949219 Z M 310.28125 188.011719 L 311.832031 188.011719 L 311.832031 193.949219 L 313.132812 193.949219 L 313.132812 194.976562 L 311.832031 194.976562 L 311.832031 197.125 L 310.605469 197.125 L 310.605469 194.976562 L 306.492188 194.976562 L 306.492188 193.785156 Z M 310.28125 188.011719 "/>
<g clip-path="url(#clip8)" clip-rule="nonzero">
<path style="fill:none;stroke-width:0.8;stroke-linecap:square;stroke-linejoin:round;stroke:rgb(69.019608%,69.019608%,69.019608%);stroke-opacity:1;stroke-miterlimit:4;" d="M 279.790625 143.1 L 279.790625 7.2 " transform="matrix(1.25,0,0,1.25,0,0)"/>
</g>
<path style="fill:none;stroke-width:0.8;stroke-linecap:butt;stroke-linejoin:round;stroke:rgb(0%,0%,0%);stroke-opacity:1;stroke-miterlimit:4;" d="M -0.000064 0 L -0.000064 3.5 " transform="matrix(1.25,0,0,1.25,349.738361,178.875)"/>
<path style=" stroke:none;fill-rule:nonzero;fill:rgb(0%,0%,0%);fill-opacity:1;" d="M 349.890625 192.078125 C 349.335938 192.078125 348.898438 192.265625 348.574219 192.644531 C 348.25 193.023438 348.089844 193.539062 348.089844 194.199219 C 348.089844 194.855469 348.25 195.371094 348.574219 195.753906 C 348.898438 196.132812 349.335938 196.324219 349.890625 196.324219 C 350.441406 196.324219 350.878906 196.132812 351.203125 195.753906 C 351.527344 195.371094 351.6875 194.855469 351.6875 194.199219 C 351.6875 193.539062 351.527344 193.023438 351.203125 192.644531 C 350.878906 192.265625 350.441406 192.078125 349.890625 192.078125 Z M 352.335938 188.210938 L 352.335938 189.335938 C 352.027344 189.1875 351.714844 189.078125 351.398438 189 C 351.082031 188.921875 350.769531 188.882812 350.460938 188.882812 C 349.648438 188.882812 349.027344 189.15625 348.597656 189.707031 C 348.167969 190.257812 347.921875 191.085938 347.863281 192.199219 C 348.101562 191.84375 348.402344 191.570312 348.765625 191.382812 C 349.128906 191.195312 349.527344 191.101562 349.960938 191.101562 C 350.875 191.101562 351.601562 191.378906 352.132812 191.933594 C 352.664062 192.488281 352.929688 193.242188 352.929688 194.199219 C 352.929688 195.136719 352.652344 195.886719 352.097656 196.453125 C 351.542969 197.019531 350.808594 197.300781 349.890625 197.300781 C 348.835938 197.300781 348.027344 196.898438 347.472656 196.089844 C 346.914062 195.28125 346.636719 194.109375 346.636719 192.578125 C 346.636719 191.136719 346.976562 189.988281 347.660156 189.132812 C 348.34375 188.273438 349.261719 187.847656 350.414062 187.847656 C 350.722656 187.847656 351.035156 187.875 351.351562 187.9375 C 351.664062 188 351.992188 188.089844 352.335938 188.210938 Z M 352.335938 188.210938 "/>
<g clip-path="url(#clip9)" clip-rule="nonzero">
<path style="fill:none;stroke-width:0.8;stroke-linecap:square;stroke-linejoin:round;stroke:rgb(69.019608%,69.019608%,69.019608%);stroke-opacity:1;stroke-miterlimit:4;" d="M 311.69375 143.1 L 311.69375 7.2 " transform="matrix(1.25,0,0,1.25,0,0)"/>
</g>
<path style="fill:none;stroke-width:0.8;stroke-linecap:butt;stroke-linejoin:round;stroke:rgb(0%,0%,0%);stroke-opacity:1;stroke-miterlimit:4;" d="M -0.000885 0 L -0.000885 3.5 " transform="matrix(1.25,0,0,1.25,389.618294,178.875)"/>
<path style=" stroke:none;fill-rule:nonzero;fill:rgb(0%,0%,0%);fill-opacity:1;" d="M 389.613281 192.796875 C 389.027344 192.796875 388.566406 192.953125 388.230469 193.265625 C 387.898438 193.578125 387.730469 194.011719 387.730469 194.558594 C 387.730469 195.109375 387.898438 195.539062 388.230469 195.855469 C 388.566406 196.167969 389.027344 196.324219 389.613281 196.324219 C 390.199219 196.324219 390.660156 196.167969 391 195.851562 C 391.335938 195.535156 391.507812 195.105469 391.507812 194.558594 C 391.507812 194.011719 391.339844 193.578125 391.003906 193.265625 C 390.667969 192.953125 390.207031 192.796875 389.613281 192.796875 Z M 388.382812 192.273438 C 387.851562 192.140625 387.441406 191.894531 387.144531 191.535156 C 386.851562 191.171875 386.703125 190.726562 386.703125 190.207031 C 386.703125 189.480469 386.964844 188.902344 387.480469 188.480469 C 388 188.058594 388.710938 187.847656 389.613281 187.847656 C 390.523438 187.847656 391.234375 188.058594 391.75 188.480469 C 392.269531 188.902344 392.527344 189.480469 392.527344 190.207031 C 392.527344 190.726562 392.378906 191.171875 392.082031 191.535156 C 391.789062 191.894531 391.378906 192.140625 390.855469 192.273438 C 391.449219 192.410156 391.910156 192.679688 392.242188 193.085938 C 392.574219 193.488281 392.738281 193.976562 392.738281 194.558594 C 392.738281 195.441406 392.46875 196.121094 391.929688 196.59375 C 391.390625 197.066406 390.621094 197.300781 389.613281 197.300781 C 388.609375 197.300781 387.839844 197.066406 387.296875 196.59375 C 386.757812 196.121094 386.488281 195.441406 386.488281 194.558594 C 386.488281 193.976562 386.65625 193.488281 386.988281 193.085938 C 387.324219 192.679688 387.789062 192.410156 388.382812 192.273438 Z M 387.929688 190.324219 C 387.929688 190.796875 388.078125 191.164062 388.371094 191.429688 C 388.667969 191.691406 389.082031 191.824219 389.613281 191.824219 C 390.144531 191.824219 390.558594 191.691406 390.855469 191.429688 C 391.15625 191.164062 391.304688 190.796875 391.304688 190.324219 C 391.304688 189.851562 391.15625 189.484375 390.855469 189.21875 C 390.558594 188.953125 390.144531 188.824219 389.613281 188.824219 C 389.082031 188.824219 388.667969 188.953125 388.371094 189.21875 C 388.078125 189.484375 387.929688 189.851562 387.929688 190.324219 Z M 387.929688 190.324219 "/>
<path style=" stroke:none;fill-rule:nonzero;fill:rgb(0%,0%,0%);fill-opacity:1;" d="M 232.265625 207.386719 L 229.789062 210.710938 L 232.390625 214.222656 L 231.066406 214.222656 L 229.078125 211.535156 L 227.085938 214.222656 L 225.761719 214.222656 L 228.417969 210.644531 L 225.988281 207.386719 L 227.3125 207.386719 L 229.125 209.820312 L 230.9375 207.386719 Z M 232.265625 207.386719 "/>
<g clip-path="url(#clip10)" clip-rule="nonzero">
<path style="fill:none;stroke-width:0.8;stroke-linecap:square;stroke-linejoin:round;stroke:rgb(69.019608%,69.019608%,69.019608%);stroke-opacity:1;stroke-miterlimit:4;" d="M 43.78125 136.921875 L 322.78125 136.921875 " transform="matrix(1.25,0,0,1.25,0,0)"/>
</g>
<path style="fill:none;stroke-width:0.8;stroke-linecap:butt;stroke-linejoin:round;stroke:rgb(0%,0%,0%);stroke-opacity:1;stroke-miterlimit:4;" d="M 0 -0.000852 L -3.5 -0.000852 " transform="matrix(1.25,0,0,1.25,54.726562,171.153409)"/>
<path style=" stroke:none;fill-rule:nonzero;fill:rgb(0%,0%,0%);fill-opacity:1;" d="M 30.070312 167.601562 C 29.4375 167.601562 28.960938 167.914062 28.640625 168.539062 C 28.320312 169.164062 28.160156 170.101562 28.160156 171.355469 C 28.160156 172.605469 28.320312 173.542969 28.640625 174.167969 C 28.960938 174.792969 29.4375 175.105469 30.070312 175.105469 C 30.710938 175.105469 31.1875 174.792969 31.507812 174.167969 C 31.828125 173.542969 31.988281 172.605469 31.988281 171.355469 C 31.988281 170.101562 31.828125 169.164062 31.507812 168.539062 C 31.1875 167.914062 30.710938 167.601562 30.070312 167.601562 Z M 30.070312 166.625 C 31.09375 166.625 31.875 167.03125 32.414062 167.839844 C 32.953125 168.644531 33.21875 169.816406 33.21875 171.355469 C 33.21875 172.890625 32.953125 174.0625 32.414062 174.871094 C 31.875 175.675781 31.09375 176.082031 30.070312 176.082031 C 29.050781 176.082031 28.269531 175.675781 27.730469 174.871094 C 27.191406 174.0625 26.921875 172.890625 26.921875 171.355469 C 26.921875 169.816406 27.191406 168.644531 27.730469 167.839844 C 28.269531 167.03125 29.050781 166.625 30.070312 166.625 Z M 30.070312 166.625 "/>
<path style=" stroke:none;fill-rule:nonzero;fill:rgb(0%,0%,0%);fill-opacity:1;" d="M 35.386719 174.351562 L 36.675781 174.351562 L 36.675781 175.902344 L 35.386719 175.902344 Z M 35.386719 174.351562 "/>
<path style=" stroke:none;fill-rule:nonzero;fill:rgb(0%,0%,0%);fill-opacity:1;" d="M 41.996094 167.601562 C 41.363281 167.601562 40.886719 167.914062 40.566406 168.539062 C 40.246094 169.164062 40.085938 170.101562 40.085938 171.355469 C 40.085938 172.605469 40.246094 173.542969 40.566406 174.167969 C 40.886719 174.792969 41.363281 175.105469 41.996094 175.105469 C 42.636719 175.105469 43.113281 174.792969 43.433594 174.167969 C 43.753906 173.542969 43.914062 172.605469 43.914062 171.355469 C 43.914062 170.101562 43.753906 169.164062 43.433594 168.539062 C 43.113281 167.914062 42.636719 167.601562 41.996094 167.601562 Z M 41.996094 166.625 C 43.019531 166.625 43.800781 167.03125 44.339844 167.839844 C 44.878906 168.644531 45.148438 169.816406 45.148438 171.355469 C 45.148438 172.890625 44.878906 174.0625 44.339844 174.871094 C 43.800781 175.675781 43.019531 176.082031 41.996094 176.082031 C 40.976562 176.082031 40.195312 175.675781 39.65625 174.871094 C 39.117188 174.0625 38.847656 172.890625 38.847656 171.355469 C 38.847656 169.816406 39.117188 168.644531 39.65625 167.839844 C 40.195312 167.03125 40.976562 166.625 41.996094 166.625 Z M 41.996094 166.625 "/>
<g clip-path="url(#clip11)" clip-rule="nonzero">
<path style="fill:none;stroke-width:0.8;stroke-linecap:square;stroke-linejoin:round;stroke:rgb(69.019608%,69.019608%,69.019608%);stroke-opacity:1;stroke-miterlimit:4;" d="M 43.78125 112.2125 L 322.78125 112.2125 " transform="matrix(1.25,0,0,1.25,0,0)"/>
</g>
<path style="fill:none;stroke-width:0.8;stroke-linecap:butt;stroke-linejoin:round;stroke:rgb(0%,0%,0%);stroke-opacity:1;stroke-miterlimit:4;" d="M 0 -0.001136 L -3.5 -0.001136 " transform="matrix(1.25,0,0,1.25,54.726562,140.267045)"/>
<path style=" stroke:none;fill-rule:nonzero;fill:rgb(0%,0%,0%);fill-opacity:1;" d="M 30.070312 136.714844 C 29.4375 136.714844 28.960938 137.027344 28.640625 137.652344 C 28.320312 138.277344 28.160156 139.214844 28.160156 140.46875 C 28.160156 141.71875 28.320312 142.65625 28.640625 143.28125 C 28.960938 143.90625 29.4375 144.21875 30.070312 144.21875 C 30.710938 144.21875 31.1875 143.90625 31.507812 143.28125 C 31.828125 142.65625 31.988281 141.71875 31.988281 140.46875 C 31.988281 139.214844 31.828125 138.277344 31.507812 137.652344 C 31.1875 137.027344 30.710938 136.714844 30.070312 136.714844 Z M 30.070312 135.738281 C 31.09375 135.738281 31.875 136.144531 32.414062 136.953125 C 32.953125 137.757812 33.21875 138.929688 33.21875 140.46875 C 33.21875 142.003906 32.953125 143.175781 32.414062 143.984375 C 31.875 144.789062 31.09375 145.195312 30.070312 145.195312 C 29.050781 145.195312 28.269531 144.789062 27.730469 143.984375 C 27.191406 143.175781 26.921875 142.003906 26.921875 140.46875 C 26.921875 138.929688 27.191406 137.757812 27.730469 136.953125 C 28.269531 136.144531 29.050781 135.738281 30.070312 135.738281 Z M 30.070312 135.738281 "/>
<path style=" stroke:none;fill-rule:nonzero;fill:rgb(0%,0%,0%);fill-opacity:1;" d="M 35.386719 143.464844 L 36.675781 143.464844 L 36.675781 145.015625 L 35.386719 145.015625 Z M 35.386719 143.464844 "/>
<path style=" stroke:none;fill-rule:nonzero;fill:rgb(0%,0%,0%);fill-opacity:1;" d="M 40.421875 143.980469 L 44.726562 143.980469 L 44.726562 145.015625 L 38.941406 145.015625 L 38.941406 143.980469 C 39.40625 143.496094 40.042969 142.84375 40.851562 142.03125 C 41.660156 141.214844 42.167969 140.6875 42.375 140.449219 C 42.769531 140.007812 43.046875 139.632812 43.203125 139.324219 C 43.359375 139.015625 43.4375 138.714844 43.4375 138.417969 C 43.4375 137.933594 43.269531 137.539062 42.929688 137.234375 C 42.589844 136.929688 42.144531 136.777344 41.601562 136.777344 C 41.214844 136.777344 40.804688 136.84375 40.375 136.976562 C 39.945312 137.109375 39.488281 137.316406 39 137.589844 L 39 136.34375 C 39.496094 136.144531 39.960938 135.992188 40.390625 135.890625 C 40.824219 135.789062 41.21875 135.738281 41.578125 135.738281 C 42.519531 135.738281 43.273438 135.976562 43.835938 136.449219 C 44.394531 136.917969 44.675781 137.550781 44.675781 138.339844 C 44.675781 138.714844 44.605469 139.070312 44.464844 139.40625 C 44.324219 139.738281 44.070312 140.132812 43.699219 140.589844 C 43.597656 140.707031 43.273438 141.050781 42.730469 141.613281 C 42.183594 142.175781 41.414062 142.964844 40.421875 143.980469 Z M 40.421875 143.980469 "/>
<g clip-path="url(#clip12)" clip-rule="nonzero">
<path style="fill:none;stroke-width:0.8;stroke-linecap:square;stroke-linejoin:round;stroke:rgb(69.019608%,69.019608%,69.019608%);stroke-opacity:1;stroke-miterlimit:4;" d="M 43.78125 87.503125 L 322.78125 87.503125 " transform="matrix(1.25,0,0,1.25,0,0)"/>
</g>
<path style="fill:none;stroke-width:0.8;stroke-linecap:butt;stroke-linejoin:round;stroke:rgb(0%,0%,0%);stroke-opacity:1;stroke-miterlimit:4;" d="M 0 -0.00142 L -3.5 -0.00142 " transform="matrix(1.25,0,0,1.25,54.726562,109.380681)"/>
<path style=" stroke:none;fill-rule:nonzero;fill:rgb(0%,0%,0%);fill-opacity:1;" d="M 30.070312 105.828125 C 29.4375 105.828125 28.960938 106.140625 28.640625 106.765625 C 28.320312 107.390625 28.160156 108.328125 28.160156 109.582031 C 28.160156 110.832031 28.320312 111.769531 28.640625 112.394531 C 28.960938 113.019531 29.4375 113.332031 30.070312 113.332031 C 30.710938 113.332031 31.1875 113.019531 31.507812 112.394531 C 31.828125 111.769531 31.988281 110.832031 31.988281 109.582031 C 31.988281 108.328125 31.828125 107.390625 31.507812 106.765625 C 31.1875 106.140625 30.710938 105.828125 30.070312 105.828125 Z M 30.070312 104.851562 C 31.09375 104.851562 31.875 105.257812 32.414062 106.066406 C 32.953125 106.871094 33.21875 108.046875 33.21875 109.582031 C 33.21875 111.117188 32.953125 112.289062 32.414062 113.097656 C 31.875 113.902344 31.09375 114.308594 30.070312 114.308594 C 29.050781 114.308594 28.269531 113.902344 27.730469 113.097656 C 27.191406 112.289062 26.921875 111.117188 26.921875 109.582031 C 26.921875 108.046875 27.191406 106.871094 27.730469 106.066406 C 28.269531 105.257812 29.050781 104.851562 30.070312 104.851562 Z M 30.070312 104.851562 "/>
<path style=" stroke:none;fill-rule:nonzero;fill:rgb(0%,0%,0%);fill-opacity:1;" d="M 35.386719 112.578125 L 36.675781 112.578125 L 36.675781 114.128906 L 35.386719 114.128906 Z M 35.386719 112.578125 "/>
<path style=" stroke:none;fill-rule:nonzero;fill:rgb(0%,0%,0%);fill-opacity:1;" d="M 42.75 106.089844 L 39.636719 110.957031 L 42.75 110.957031 Z M 42.425781 105.015625 L 43.976562 105.015625 L 43.976562 110.957031 L 45.277344 110.957031 L 45.277344 111.980469 L 43.976562 111.980469 L 43.976562 114.128906 L 42.75 114.128906 L 42.75 111.980469 L 38.636719 111.980469 L 38.636719 110.792969 Z M 42.425781 105.015625 "/>
<g clip-path="url(#clip13)" clip-rule="nonzero">
<path style="fill:none;stroke-width:0.8;stroke-linecap:square;stroke-linejoin:round;stroke:rgb(69.019608%,69.019608%,69.019608%);stroke-opacity:1;stroke-miterlimit:4;" d="M 43.78125 62.796875 L 322.78125 62.796875 " transform="matrix(1.25,0,0,1.25,0,0)"/>
</g>
<path style="fill:none;stroke-width:0.8;stroke-linecap:butt;stroke-linejoin:round;stroke:rgb(0%,0%,0%);stroke-opacity:1;stroke-miterlimit:4;" d="M 0 0.00142 L -3.5 0.00142 " transform="matrix(1.25,0,0,1.25,54.726562,78.494319)"/>
<path style=" stroke:none;fill-rule:nonzero;fill:rgb(0%,0%,0%);fill-opacity:1;" d="M 30.070312 74.941406 C 29.4375 74.941406 28.960938 75.253906 28.640625 75.878906 C 28.320312 76.503906 28.160156 77.441406 28.160156 78.695312 C 28.160156 79.945312 28.320312 80.882812 28.640625 81.507812 C 28.960938 82.132812 29.4375 82.445312 30.070312 82.445312 C 30.710938 82.445312 31.1875 82.132812 31.507812 81.507812 C 31.828125 80.882812 31.988281 79.945312 31.988281 78.695312 C 31.988281 77.441406 31.828125 76.503906 31.507812 75.878906 C 31.1875 75.253906 30.710938 74.941406 30.070312 74.941406 Z M 30.070312 73.964844 C 31.09375 73.964844 31.875 74.371094 32.414062 75.179688 C 32.953125 75.984375 33.21875 77.160156 33.21875 78.695312 C 33.21875 80.230469 32.953125 81.402344 32.414062 82.210938 C 31.875 83.015625 31.09375 83.421875 30.070312 83.421875 C 29.050781 83.421875 28.269531 83.015625 27.730469 82.210938 C 27.191406 81.402344 26.921875 80.230469 26.921875 78.695312 C 26.921875 77.160156 27.191406 75.984375 27.730469 75.179688 C 28.269531 74.371094 29.050781 73.964844 30.070312 73.964844 Z M 30.070312 73.964844 "/>
<path style=" stroke:none;fill-rule:nonzero;fill:rgb(0%,0%,0%);fill-opacity:1;" d="M 35.386719 81.691406 L 36.675781 81.691406 L 36.675781 83.242188 L 35.386719 83.242188 Z M 35.386719 81.691406 "/>
<path style=" stroke:none;fill-rule:nonzero;fill:rgb(0%,0%,0%);fill-opacity:1;" d="M 42.152344 78.195312 C 41.597656 78.195312 41.160156 78.386719 40.835938 78.765625 C 40.511719 79.140625 40.351562 79.660156 40.351562 80.320312 C 40.351562 80.972656 40.511719 81.492188 40.835938 81.875 C 41.160156 82.253906 41.597656 82.445312 42.152344 82.445312 C 42.703125 82.445312 43.140625 82.253906 43.464844 81.875 C 43.789062 81.492188 43.949219 80.972656 43.949219 80.320312 C 43.949219 79.660156 43.789062 79.140625 43.464844 78.765625 C 43.140625 78.386719 42.703125 78.195312 42.152344 78.195312 Z M 44.597656 74.332031 L 44.597656 75.453125 C 44.289062 75.308594 43.976562 75.195312 43.660156 75.121094 C 43.34375 75.042969 43.03125 75.003906 42.722656 75.003906 C 41.910156 75.003906 41.289062 75.277344 40.859375 75.828125 C 40.429688 76.375 40.183594 77.207031 40.125 78.316406 C 40.363281 77.964844 40.664062 77.691406 41.027344 77.503906 C 41.390625 77.3125 41.789062 77.21875 42.222656 77.21875 C 43.136719 77.21875 43.863281 77.496094 44.394531 78.054688 C 44.925781 78.609375 45.191406 79.363281 45.191406 80.320312 C 45.191406 81.253906 44.914062 82.007812 44.359375 82.574219 C 43.804688 83.136719 43.070312 83.421875 42.152344 83.421875 C 41.097656 83.421875 40.289062 83.015625 39.734375 82.210938 C 39.175781 81.402344 38.898438 80.230469 38.898438 78.695312 C 38.898438 77.257812 39.238281 76.109375 39.921875 75.25 C 40.605469 74.394531 41.523438 73.964844 42.675781 73.964844 C 42.984375 73.964844 43.296875 73.996094 43.613281 74.058594 C 43.925781 74.117188 44.253906 74.210938 44.597656 74.332031 Z M 44.597656 74.332031 "/>
<g clip-path="url(#clip14)" clip-rule="nonzero">
<path style="fill:none;stroke-width:0.8;stroke-linecap:square;stroke-linejoin:round;stroke:rgb(69.019608%,69.019608%,69.019608%);stroke-opacity:1;stroke-miterlimit:4;" d="M 43.78125 38.0875 L 322.78125 38.0875 " transform="matrix(1.25,0,0,1.25,0,0)"/>
</g>
<path style="fill:none;stroke-width:0.8;stroke-linecap:butt;stroke-linejoin:round;stroke:rgb(0%,0%,0%);stroke-opacity:1;stroke-miterlimit:4;" d="M 0 0.001136 L -3.5 0.001136 " transform="matrix(1.25,0,0,1.25,54.726562,47.607955)"/>
<path style=" stroke:none;fill-rule:nonzero;fill:rgb(0%,0%,0%);fill-opacity:1;" d="M 30.070312 44.054688 C 29.4375 44.054688 28.960938 44.367188 28.640625 44.992188 C 28.320312 45.617188 28.160156 46.554688 28.160156 47.808594 C 28.160156 49.058594 28.320312 49.996094 28.640625 50.621094 C 28.960938 51.246094 29.4375 51.558594 30.070312 51.558594 C 30.710938 51.558594 31.1875 51.246094 31.507812 50.621094 C 31.828125 49.996094 31.988281 49.058594 31.988281 47.808594 C 31.988281 46.554688 31.828125 45.617188 31.507812 44.992188 C 31.1875 44.367188 30.710938 44.054688 30.070312 44.054688 Z M 30.070312 43.078125 C 31.09375 43.078125 31.875 43.484375 32.414062 44.292969 C 32.953125 45.101562 33.21875 46.273438 33.21875 47.808594 C 33.21875 49.34375 32.953125 50.515625 32.414062 51.324219 C 31.875 52.132812 31.09375 52.535156 30.070312 52.535156 C 29.050781 52.535156 28.269531 52.132812 27.730469 51.324219 C 27.191406 50.515625 26.921875 49.34375 26.921875 47.808594 C 26.921875 46.273438 27.191406 45.101562 27.730469 44.292969 C 28.269531 43.484375 29.050781 43.078125 30.070312 43.078125 Z M 30.070312 43.078125 "/>
<path style=" stroke:none;fill-rule:nonzero;fill:rgb(0%,0%,0%);fill-opacity:1;" d="M 35.386719 50.804688 L 36.675781 50.804688 L 36.675781 52.355469 L 35.386719 52.355469 Z M 35.386719 50.804688 "/>
<path style=" stroke:none;fill-rule:nonzero;fill:rgb(0%,0%,0%);fill-opacity:1;" d="M 41.996094 48.027344 C 41.410156 48.027344 40.949219 48.1875 40.613281 48.5 C 40.277344 48.8125 40.113281 49.246094 40.113281 49.792969 C 40.113281 50.34375 40.277344 50.773438 40.613281 51.085938 C 40.949219 51.402344 41.410156 51.558594 41.996094 51.558594 C 42.582031 51.558594 43.042969 51.402344 43.382812 51.085938 C 43.71875 50.769531 43.890625 50.339844 43.890625 49.792969 C 43.890625 49.246094 43.722656 48.8125 43.386719 48.5 C 43.050781 48.1875 42.585938 48.027344 41.996094 48.027344 Z M 40.765625 47.503906 C 40.234375 47.375 39.824219 47.128906 39.527344 46.765625 C 39.234375 46.402344 39.085938 45.960938 39.085938 45.441406 C 39.085938 44.714844 39.34375 44.136719 39.863281 43.714844 C 40.382812 43.292969 41.09375 43.078125 41.996094 43.078125 C 42.902344 43.078125 43.617188 43.292969 44.132812 43.714844 C 44.648438 44.136719 44.910156 44.714844 44.910156 45.441406 C 44.910156 45.960938 44.761719 46.402344 44.464844 46.765625 C 44.171875 47.128906 43.761719 47.375 43.238281 47.503906 C 43.832031 47.644531 44.292969 47.914062 44.625 48.316406 C 44.957031 48.71875 45.121094 49.210938 45.121094 49.792969 C 45.121094 50.675781 44.851562 51.355469 44.3125 51.828125 C 43.773438 52.300781 43 52.535156 41.996094 52.535156 C 40.992188 52.535156 40.21875 52.300781 39.679688 51.828125 C 39.140625 51.355469 38.871094 50.675781 38.871094 49.792969 C 38.871094 49.210938 39.039062 48.71875 39.371094 48.316406 C 39.707031 47.914062 40.171875 47.644531 40.765625 47.503906 Z M 40.3125 45.558594 C 40.3125 46.03125 40.460938 46.398438 40.753906 46.660156 C 41.050781 46.925781 41.464844 47.058594 41.996094 47.058594 C 42.527344 47.058594 42.941406 46.925781 43.238281 46.660156 C 43.539062 46.398438 43.6875 46.03125 43.6875 45.558594 C 43.6875 45.085938 43.539062 44.71875 43.238281 44.453125 C 42.941406 44.1875 42.527344 44.054688 41.996094 44.054688 C 41.464844 44.054688 41.050781 44.1875 40.753906 44.453125 C 40.460938 44.71875 40.3125 45.085938 40.3125 45.558594 Z M 40.3125 45.558594 "/>
<g clip-path="url(#clip15)" clip-rule="nonzero">
<path style="fill:none;stroke-width:0.8;stroke-linecap:square;stroke-linejoin:round;stroke:rgb(69.019608%,69.019608%,69.019608%);stroke-opacity:1;stroke-miterlimit:4;" d="M 43.78125 13.378125 L 322.78125 13.378125 " transform="matrix(1.25,0,0,1.25,0,0)"/>
</g>
<path style="fill:none;stroke-width:0.8;stroke-linecap:butt;stroke-linejoin:round;stroke:rgb(0%,0%,0%);stroke-opacity:1;stroke-miterlimit:4;" d="M 0 0.000852 L -3.5 0.000852 " transform="matrix(1.25,0,0,1.25,54.726562,16.721591)"/>
<path style=" stroke:none;fill-rule:nonzero;fill:rgb(0%,0%,0%);fill-opacity:1;" d="M 27.648438 20.433594 L 29.664062 20.433594 L 29.664062 13.480469 L 27.46875 13.917969 L 27.46875 12.796875 L 29.648438 12.355469 L 30.882812 12.355469 L 30.882812 20.433594 L 32.898438 20.433594 L 32.898438 21.46875 L 27.648438 21.46875 Z M 27.648438 20.433594 "/>
<path style=" stroke:none;fill-rule:nonzero;fill:rgb(0%,0%,0%);fill-opacity:1;" d="M 35.386719 19.917969 L 36.675781 19.917969 L 36.675781 21.46875 L 35.386719 21.46875 Z M 35.386719 19.917969 "/>
<path style=" stroke:none;fill-rule:nonzero;fill:rgb(0%,0%,0%);fill-opacity:1;" d="M 41.996094 13.167969 C 41.363281 13.167969 40.886719 13.480469 40.566406 14.105469 C 40.246094 14.730469 40.085938 15.667969 40.085938 16.921875 C 40.085938 18.171875 40.246094 19.109375 40.566406 19.734375 C 40.886719 20.359375 41.363281 20.671875 41.996094 20.671875 C 42.636719 20.671875 43.113281 20.359375 43.433594 19.734375 C 43.753906 19.109375 43.914062 18.171875 43.914062 16.921875 C 43.914062 15.667969 43.753906 14.730469 43.433594 14.105469 C 43.113281 13.480469 42.636719 13.167969 41.996094 13.167969 Z M 41.996094 12.191406 C 43.019531 12.191406 43.800781 12.597656 44.339844 13.40625 C 44.878906 14.214844 45.148438 15.386719 45.148438 16.921875 C 45.148438 18.457031 44.878906 19.628906 44.339844 20.4375 C 43.800781 21.246094 43.019531 21.648438 41.996094 21.648438 C 40.976562 21.648438 40.195312 21.246094 39.65625 20.4375 C 39.117188 19.628906 38.847656 18.457031 38.847656 16.921875 C 38.847656 15.386719 39.117188 14.214844 39.65625 13.40625 C 40.195312 12.597656 40.976562 12.191406 41.996094 12.191406 Z M 41.996094 12.191406 "/>
<path style=" stroke:none;fill-rule:nonzero;fill:rgb(0%,0%,0%);fill-opacity:1;" d="M 15 124.566406 C 14.1875 124.566406 13.554688 124.734375 13.109375 125.070312 C 12.660156 125.402344 12.4375 125.875 12.4375 126.480469 C 12.4375 127.082031 12.660156 127.550781 13.109375 127.886719 C 13.554688 128.222656 14.1875 128.390625 15 128.390625 C 15.808594 128.390625 16.4375 128.222656 16.886719 127.886719 C 17.335938 127.550781 17.558594 127.082031 17.558594 126.480469 C 17.558594 125.875 17.335938 125.402344 16.886719 125.070312 C 16.4375 124.734375 15.808594 124.566406 15 124.566406 Z M 17.652344 123.441406 C 18.8125 123.441406 19.679688 123.699219 20.246094 124.21875 C 20.8125 124.734375 21.097656 125.523438 21.097656 126.589844 C 21.097656 126.984375 21.070312 127.359375 21.011719 127.707031 C 20.953125 128.058594 20.859375 128.398438 20.738281 128.726562 L 19.648438 128.726562 C 19.824219 128.398438 19.957031 128.074219 20.042969 127.75 C 20.128906 127.429688 20.171875 127.101562 20.171875 126.769531 C 20.171875 126.03125 19.976562 125.480469 19.59375 125.113281 C 19.210938 124.75 18.628906 124.566406 17.851562 124.566406 L 17.296875 124.566406 C 17.699219 124.796875 18 125.09375 18.199219 125.457031 C 18.398438 125.816406 18.5 126.25 18.5 126.757812 C 18.5 127.59375 18.179688 128.269531 17.542969 128.78125 C 16.902344 129.296875 16.054688 129.550781 15 129.550781 C 13.941406 129.550781 13.09375 129.296875 12.457031 128.78125 C 11.816406 128.269531 11.5 127.59375 11.5 126.757812 C 11.5 126.25 11.597656 125.816406 11.796875 125.457031 C 11.996094 125.09375 12.296875 124.796875 12.699219 124.566406 L 11.664062 124.566406 L 11.664062 123.441406 Z M 17.652344 123.441406 "/>
<path style=" stroke:none;fill-rule:nonzero;fill:rgb(0%,0%,0%);fill-opacity:1;" d="M 12.710938 117.167969 C 12.636719 117.292969 12.585938 117.433594 12.550781 117.582031 C 12.515625 117.730469 12.5 117.890625 12.5 118.070312 C 12.5 118.707031 12.703125 119.195312 13.117188 119.535156 C 13.53125 119.875 14.125 120.042969 14.898438 120.042969 L 18.5 120.042969 L 18.5 121.171875 L 11.664062 121.171875 L 11.664062 120.042969 L 12.726562 120.042969 C 12.308594 119.804688 12 119.5 11.800781 119.121094 C 11.597656 118.742188 11.5 118.28125 11.5 117.742188 C 11.5 117.664062 11.503906 117.578125 11.515625 117.484375 C 11.523438 117.390625 11.539062 117.289062 11.558594 117.175781 Z M 12.710938 117.167969 "/>
<path style=" stroke:none;fill-rule:nonzero;fill:rgb(0%,0%,0%);fill-opacity:1;" d="M 15.0625 112.882812 C 15.0625 113.789062 15.167969 114.417969 15.375 114.769531 C 15.582031 115.121094 15.933594 115.292969 16.4375 115.292969 C 16.835938 115.292969 17.152344 115.164062 17.386719 114.898438 C 17.617188 114.636719 17.734375 114.28125 17.734375 113.828125 C 17.734375 113.207031 17.515625 112.707031 17.074219 112.328125 C 16.632812 111.953125 16.042969 111.765625 15.3125 111.765625 L 15.0625 111.765625 Z M 14.597656 110.640625 L 18.5 110.640625 L 18.5 111.765625 L 17.460938 111.765625 C 17.875 112.023438 18.179688 112.339844 18.378906 112.722656 C 18.578125 113.105469 18.675781 113.574219 18.675781 114.128906 C 18.675781 114.828125 18.480469 115.382812 18.085938 115.796875 C 17.691406 116.210938 17.167969 116.417969 16.507812 116.417969 C 15.738281 116.417969 15.160156 116.160156 14.769531 115.644531 C 14.378906 115.128906 14.183594 114.363281 14.183594 113.339844 L 14.183594 111.765625 L 14.074219 111.765625 C 13.554688 111.765625 13.15625 111.933594 12.875 112.273438 C 12.589844 112.613281 12.449219 113.09375 12.449219 113.707031 C 12.449219 114.097656 12.496094 114.476562 12.589844 114.847656 C 12.683594 115.21875 12.824219 115.574219 13.011719 115.914062 L 11.972656 115.914062 C 11.8125 115.503906 11.695312 115.105469 11.617188 114.71875 C 11.539062 114.332031 11.5 113.957031 11.5 113.589844 C 11.5 112.601562 11.753906 111.863281 12.269531 111.375 C 12.78125 110.886719 13.554688 110.640625 14.597656 110.640625 Z M 14.597656 110.640625 "/>
<path style=" stroke:none;fill-rule:nonzero;fill:rgb(0%,0%,0%);fill-opacity:1;" d="M 12.699219 103.832031 L 9 103.832031 L 9 102.707031 L 18.5 102.707031 L 18.5 103.832031 L 17.472656 103.832031 C 17.878906 104.066406 18.179688 104.367188 18.378906 104.726562 C 18.578125 105.085938 18.675781 105.519531 18.675781 106.023438 C 18.675781 106.847656 18.347656 107.519531 17.6875 108.039062 C 17.027344 108.558594 16.160156 108.816406 15.085938 108.816406 C 14.011719 108.816406 13.144531 108.558594 12.488281 108.039062 C 11.828125 107.519531 11.5 106.847656 11.5 106.023438 C 11.5 105.519531 11.597656 105.085938 11.796875 104.726562 C 11.992188 104.367188 12.292969 104.066406 12.699219 103.832031 Z M 15.085938 107.65625 C 15.910156 107.65625 16.558594 107.488281 17.03125 107.148438 C 17.5 106.808594 17.734375 106.339844 17.734375 105.746094 C 17.734375 105.152344 17.5 104.6875 17.03125 104.34375 C 16.558594 104.003906 15.910156 103.832031 15.085938 103.832031 C 14.261719 103.832031 13.613281 104.003906 13.144531 104.34375 C 12.671875 104.6875 12.4375 105.152344 12.4375 105.746094 C 12.4375 106.339844 12.671875 106.808594 13.144531 107.148438 C 13.613281 107.488281 14.261719 107.65625 15.085938 107.65625 Z M 15.085938 107.65625 "/>
<path style=" stroke:none;fill-rule:nonzero;fill:rgb(0%,0%,0%);fill-opacity:1;" d="M 12.449219 93.773438 C 12.449219 94.375 12.683594 94.851562 13.15625 95.203125 C 13.625 95.550781 14.269531 95.726562 15.085938 95.726562 C 15.902344 95.726562 16.546875 95.554688 17.019531 95.207031 C 17.488281 94.855469 17.722656 94.378906 17.722656 93.773438 C 17.722656 93.175781 17.488281 92.699219 17.015625 92.351562 C 16.542969 92 15.898438 91.828125 15.085938 91.828125 C 14.277344 91.828125 13.632812 92 13.160156 92.351562 C 12.6875 92.699219 12.449219 93.175781 12.449219 93.773438 Z M 11.5 93.773438 C 11.5 92.796875 11.816406 92.03125 12.453125 91.472656 C 13.085938 90.914062 13.964844 90.636719 15.085938 90.636719 C 16.203125 90.636719 17.082031 90.914062 17.722656 91.472656 C 18.359375 92.03125 18.675781 92.796875 18.675781 93.773438 C 18.675781 94.753906 18.359375 95.523438 17.722656 96.078125 C 17.082031 96.632812 16.203125 96.910156 15.085938 96.910156 C 13.964844 96.910156 13.085938 96.632812 12.453125 96.078125 C 11.816406 95.523438 11.5 94.753906 11.5 93.773438 Z M 11.5 93.773438 "/>
<path style=" stroke:none;fill-rule:nonzero;fill:rgb(0%,0%,0%);fill-opacity:1;" d="M 9 85.3125 L 9.9375 85.3125 L 9.9375 86.386719 C 9.9375 86.789062 10.015625 87.070312 10.179688 87.226562 C 10.34375 87.382812 10.636719 87.460938 11.058594 87.460938 L 11.664062 87.460938 L 11.664062 85.613281 L 12.535156 85.613281 L 12.535156 87.460938 L 18.5 87.460938 L 18.5 88.589844 L 12.535156 88.589844 L 12.535156 89.664062 L 11.664062 89.664062 L 11.664062 88.589844 L 11.1875 88.589844 C 10.425781 88.589844 9.871094 88.414062 9.523438 88.058594 C 9.175781 87.707031 9 87.144531 9 86.375 Z M 9 85.3125 "/>
<path style=" stroke:none;fill-rule:nonzero;fill:rgb(0%,0%,0%);fill-opacity:1;" d="M 12.710938 76.4375 C 12.636719 76.566406 12.585938 76.703125 12.550781 76.851562 C 12.515625 77 12.5 77.164062 12.5 77.339844 C 12.5 77.976562 12.703125 78.464844 13.117188 78.804688 C 13.53125 79.144531 14.125 79.3125 14.898438 79.3125 L 18.5 79.3125 L 18.5 80.441406 L 11.664062 80.441406 L 11.664062 79.3125 L 12.726562 79.3125 C 12.308594 79.078125 12 78.769531 11.800781 78.390625 C 11.597656 78.011719 11.5 77.554688 11.5 77.011719 C 11.5 76.933594 11.503906 76.847656 11.515625 76.753906 C 11.523438 76.660156 11.539062 76.558594 11.558594 76.445312 Z M 12.710938 76.4375 "/>
<path style=" stroke:none;fill-rule:nonzero;fill:rgb(0%,0%,0%);fill-opacity:1;" d="M 14.800781 69.695312 L 15.347656 69.695312 L 15.347656 74.859375 C 16.121094 74.808594 16.710938 74.574219 17.117188 74.160156 C 17.519531 73.742188 17.722656 73.160156 17.722656 72.417969 C 17.722656 71.984375 17.671875 71.566406 17.566406 71.164062 C 17.460938 70.757812 17.300781 70.355469 17.089844 69.957031 L 18.152344 69.957031 C 18.320312 70.359375 18.453125 70.773438 18.542969 71.195312 C 18.632812 71.621094 18.675781 72.046875 18.675781 72.484375 C 18.675781 73.574219 18.359375 74.4375 17.726562 75.074219 C 17.089844 75.710938 16.230469 76.03125 15.148438 76.03125 C 14.027344 76.03125 13.140625 75.726562 12.484375 75.125 C 11.828125 74.519531 11.5 73.703125 11.5 72.679688 C 11.5 71.757812 11.792969 71.03125 12.386719 70.496094 C 12.976562 69.960938 13.78125 69.695312 14.800781 69.695312 Z M 14.46875 70.816406 C 13.855469 70.824219 13.367188 70.996094 13 71.332031 C 12.632812 71.667969 12.449219 72.113281 12.449219 72.667969 C 12.449219 73.292969 12.625 73.792969 12.980469 74.171875 C 13.335938 74.546875 13.832031 74.765625 14.476562 74.820312 Z M 14.46875 70.816406 "/>
<path style=" stroke:none;fill-rule:nonzero;fill:rgb(0%,0%,0%);fill-opacity:1;" d="M 9 67.851562 L 9 66.730469 L 18.5 66.730469 L 18.5 67.851562 Z M 9 67.851562 "/>
<path style=" stroke:none;fill-rule:nonzero;fill:rgb(0%,0%,0%);fill-opacity:1;" d="M 15.800781 64.496094 L 11.664062 64.496094 L 11.664062 63.371094 L 15.757812 63.371094 C 16.40625 63.371094 16.890625 63.246094 17.214844 62.996094 C 17.539062 62.742188 17.699219 62.363281 17.699219 61.859375 C 17.699219 61.253906 17.507812 60.773438 17.121094 60.421875 C 16.734375 60.070312 16.207031 59.894531 15.539062 59.894531 L 11.664062 59.894531 L 11.664062 58.769531 L 18.5 58.769531 L 18.5 59.894531 L 17.449219 59.894531 C 17.863281 60.164062 18.171875 60.480469 18.375 60.84375 C 18.574219 61.203125 18.675781 61.621094 18.675781 62.097656 C 18.675781 62.882812 18.433594 63.476562 17.945312 63.886719 C 17.457031 64.292969 16.742188 64.496094 15.800781 64.496094 Z M 11.5 61.667969 Z M 11.5 61.667969 "/>
<path style="fill:none;stroke-width:1.5;stroke-linecap:square;stroke-linejoin:round;stroke:rgb(12.156863%,46.666667%,70.588235%);stroke-opacity:1;stroke-miterlimit:4;" d="M 56.4625 136.921875 L 182.484375 136.921875 L 184.078125 13.378125 L 310.1 13.378125 " transform="matrix(1.25,0,0,1.25,0,0)"/>
<path style="fill:none;stroke-width:0.8;stroke-linecap:square;stroke-linejoin:miter;stroke:rgb(0%,0%,0%);stroke-opacity:1;stroke-miterlimit:4;" d="M 43.78125 143.1 L 43.78125 7.2 " transform="matrix(1.25,0,0,1.25,0,0)"/>
<path style="fill:none;stroke-width:0.8;stroke-linecap:square;stroke-linejoin:miter;stroke:rgb(0%,0%,0%);stroke-opacity:1;stroke-miterlimit:4;" d="M 322.78125 143.1 L 322.78125 7.2 " transform="matrix(1.25,0,0,1.25,0,0)"/>
<path style="fill:none;stroke-width:0.8;stroke-linecap:square;stroke-linejoin:miter;stroke:rgb(0%,0%,0%);stroke-opacity:1;stroke-miterlimit:4;" d="M 43.78125 143.1 L 322.78125 143.1 " transform="matrix(1.25,0,0,1.25,0,0)"/>
<path style="fill:none;stroke-width:0.8;stroke-linecap:square;stroke-linejoin:miter;stroke:rgb(0%,0%,0%);stroke-opacity:1;stroke-miterlimit:4;" d="M 43.78125 7.2 L 322.78125 7.2 " transform="matrix(1.25,0,0,1.25,0,0)"/>
</g>
</svg>
