<?xml version="1.0" encoding="UTF-8"?>
<svg xmlns="http://www.w3.org/2000/svg" xmlns:xlink="http://www.w3.org/1999/xlink" width="420pt" height="226pt" viewBox="0 0 420 226" version="1.1">
<defs>
<clipPath id="clip1">
  <path d="M 77 9 L 80 9 L 80 178.875 L 77 178.875 Z M 77 9 "/>
</clipPath>
<clipPath id="clip2">
  <path d="M 117 9 L 120 9 L 120 178.875 L 117 178.875 Z M 117 9 "/>
</clipPath>
<clipPath id="clip3">
  <path d="M 157 9 L 159 9 L 159 178.875 L 157 178.875 Z M 157 9 "/>
</clipPath>
<clipPath id="clip4">
  <path d="M 197 9 L 199 9 L 199 178.875 L 197 178.875 Z M 197 9 "/>
</clipPath>
<clipPath id="clip5">
  <path d="M 237 9 L 239 9 L 239 178.875 L 237 178.875 Z M 237 9 "/>
</clipPath>
<clipPath id="clip6">
  <path d="M 277 9 L 279 9 L 279 178.875 L 277 178.875 Z M 277 9 "/>
</clipPath>
<clipPath id="clip7">
  <path d="M 317 9 L 319 9 L 319 178.875 L 317 178.875 Z M 317 9 "/>
</clipPath>
<clipPath id="clip8">
  <path d="M 356 9 L 359 9 L 359 178.875 L 356 178.875 Z M 356 9 "/>
</clipPath>
<clipPath id="clip9">
  <path d="M 396 9 L 399 9 L 399 178.875 L 396 178.875 Z M 396 9 "/>
</clipPath>
<clipPath id="clip10">
  <path d="M 62.679688 170 L 411.429688 170 L 411.429688 173 L 62.679688 173 Z M 62.679688 170 "/>
</clipPath>
<clipPath id="clip11">
  <path d="M 62.679688 139 L 411.429688 139 L 411.429688 142 L 62.679688 142 Z M 62.679688 139 "/>
</clipPath>
<clipPath id="clip12">
  <path d="M 62.679688 108 L 411.429688 108 L 411.429688 111 L 62.679688 111 Z M 62.679688 108 "/>
</clipPath>
<clipPath id="clip13">
  <path d="M 62.679688 77 L 411.429688 77 L 411.429688 80 L 62.679688 80 Z M 62.679688 77 "/>
</clipPath>
<clipPath id="clip14">
  <path d="M 62.679688 46 L 411.429688 46 L 411.429688 49 L 62.679688 49 Z M 62.679688 46 "/>
</clipPath>
<clipPath id="clip15">
  <path d="M 62.679688 16 L 411.429688 16 L 411.429688 18 L 62.679688 18 Z M 62.679688 16 "/>
</clipPath>
</defs>
<g id="surface1">
<path style=" stroke:none;fill-rule:nonzero;fill:rgb(100%,100%,100%);fill-opacity:1;" d="M 62.679688 178.875 L 411.429688 178.875 L 411.429688 9 L 62.679688 9 Z M 62.679688 178.875 "/>
<g clip-path="url(#clip1)" clip-rule="nonzero">
<path style="fill:none;stroke-width:0.8;stroke-linecap:square;stroke-linejoin:round;stroke:rgb(69.019608%,69.019608%,69.019608%);stroke-opacity:1;stroke-miterlimit:4;" d="M 62.825 143.1 L 62.825 7.2 " transform="matrix(1.25,0,0,1.25,0,0)"/>
</g>
<path style="fill:none;stroke-width:0.8;stroke-linecap:butt;stroke-linejoin:round;stroke:rgb(0%,0%,0%);stroke-opacity:1;stroke-miterlimit:4;" d="M -0.000568 0 L -0.000568 3.5 " transform="matrix(1.25,0,0,1.25,78.53196,178.875)"/>
<path style=" stroke:none;fill-rule:nonzero;fill:rgb(0%,0%,0%);fill-opacity:1;" d="M 70.640625 192.6875 L 78.464844 192.6875 L 78.464844 193.722656 L 70.640625 193.722656 Z M 70.640625 192.6875 "/>
<path style=" stroke:none;fill-rule:nonzero;fill:rgb(0%,0%,0%);fill-opacity:1;" d="M 83.765625 192.796875 C 83.179688 192.796875 82.71875 192.953125 82.382812 193.265625 C 82.046875 193.578125 81.878906 194.011719 81.878906 194.558594 C 81.878906 195.109375 82.046875 195.539062 82.382812 195.855469 C 82.71875 196.167969 83.179688 196.324219 83.765625 196.324219 C 84.351562 196.324219 84.8125 196.167969 85.148438 195.851562 C 85.488281 195.535156 85.65625 195.105469 85.65625 194.558594 C 85.65625 194.011719 85.488281 193.578125 85.152344 193.265625 C 84.820312 192.953125 84.355469 192.796875 83.765625 192.796875 Z M 82.53125 192.273438 C 82.003906 192.140625 81.589844 191.894531 81.296875 191.535156 C 81 191.171875 80.855469 190.726562 80.855469 190.207031 C 80.855469 189.480469 81.113281 188.902344 81.632812 188.480469 C 82.152344 188.058594 82.863281 187.847656 83.765625 187.847656 C 84.671875 187.847656 85.382812 188.058594 85.902344 188.480469 C 86.417969 188.902344 86.675781 189.480469 86.675781 190.207031 C 86.675781 190.726562 86.527344 191.171875 86.234375 191.535156 C 85.9375 191.894531 85.53125 192.140625 85.003906 192.273438 C 85.597656 192.410156 86.0625 192.679688 86.390625 193.085938 C 86.722656 193.488281 86.890625 193.976562 86.890625 194.558594 C 86.890625 195.441406 86.621094 196.121094 86.082031 196.59375 C 85.542969 197.066406 84.769531 197.300781 83.765625 197.300781 C 82.761719 197.300781 81.988281 197.066406 81.449219 196.59375 C 80.910156 196.121094 80.640625 195.441406 80.640625 194.558594 C 80.640625 193.976562 80.804688 193.488281 81.140625 193.085938 C 81.472656 192.679688 81.9375 192.410156 82.53125 192.273438 Z M 82.082031 190.324219 C 82.082031 190.796875 82.226562 191.164062 82.523438 191.429688 C 82.816406 191.691406 83.230469 191.824219 83.765625 191.824219 C 84.292969 191.824219 84.707031 191.691406 85.007812 191.429688 C 85.304688 191.164062 85.457031 190.796875 85.457031 190.324219 C 85.457031 189.851562 85.304688 189.484375 85.007812 189.21875 C 84.707031 188.953125 84.292969 188.824219 83.765625 188.824219 C 83.230469 188.824219 82.816406 188.953125 82.523438 189.21875 C 82.226562 189.484375 82.082031 189.851562 82.082031 190.324219 Z M 82.082031 190.324219 "/>
<g clip-path="url(#clip2)" clip-rule="nonzero">
<path style="fill:none;stroke-width:0.8;stroke-linecap:square;stroke-linejoin:round;stroke:rgb(69.019608%,69.019608%,69.019608%);stroke-opacity:1;stroke-miterlimit:4;" d="M 94.728125 143.1 L 94.728125 7.2 " transform="matrix(1.25,0,0,1.25,0,0)"/>
</g>
<path style="fill:none;stroke-width:0.8;stroke-linecap:butt;stroke-linejoin:round;stroke:rgb(0%,0%,0%);stroke-opacity:1;stroke-miterlimit:4;" d="M -0.001389 0 L -0.001389 3.5 " transform="matrix(1.25,0,0,1.25,118.411892,178.875)"/>
<path style=" stroke:none;fill-rule:nonzero;fill:rgb(0%,0%,0%);fill-opacity:1;" d="M 110.523438 192.6875 L 118.347656 192.6875 L 118.347656 193.722656 L 110.523438 193.722656 Z M 110.523438 192.6875 "/>
<path style=" stroke:none;fill-rule:nonzero;fill:rgb(0%,0%,0%);fill-opacity:1;" d="M 123.796875 192.078125 C 123.246094 192.078125 122.804688 192.265625 122.480469 192.644531 C 122.160156 193.023438 121.996094 193.539062 121.996094 194.199219 C 121.996094 194.855469 122.160156 195.371094 122.480469 195.753906 C 122.804688 196.132812 123.246094 196.324219 123.796875 196.324219 C 124.351562 196.324219 124.789062 196.132812 125.113281 195.753906 C 125.4375 195.371094 125.597656 194.855469 125.597656 194.199219 C 125.597656 193.539062 125.4375 193.023438 125.113281 192.644531 C 124.789062 192.265625 124.351562 192.078125 123.796875 192.078125 Z M 126.246094 188.210938 L 126.246094 189.335938 C 125.9375 189.1875 125.625 189.078125 125.308594 189 C 124.992188 188.921875 124.679688 188.882812 124.371094 188.882812 C 123.558594 188.882812 122.933594 189.15625 122.503906 189.707031 C 122.078125 190.257812 121.832031 191.085938 121.769531 192.199219 C 122.011719 191.84375 122.3125 191.570312 122.671875 191.382812 C 123.035156 191.195312 123.4375 191.101562 123.871094 191.101562 C 124.785156 191.101562 125.507812 191.378906 126.039062 191.933594 C 126.570312 192.488281 126.835938 193.242188 126.835938 194.199219 C 126.835938 195.136719 126.5625 195.886719 126.007812 196.453125 C 125.453125 197.019531 124.71875 197.300781 123.796875 197.300781 C 122.742188 197.300781 121.9375 196.898438 121.378906 196.089844 C 120.824219 195.28125 120.542969 194.109375 120.542969 192.578125 C 120.542969 191.136719 120.886719 189.988281 121.570312 189.132812 C 122.253906 188.273438 123.171875 187.847656 124.320312 187.847656 C 124.632812 187.847656 124.945312 187.875 125.257812 187.9375 C 125.574219 188 125.902344 188.089844 126.246094 188.210938 Z M 126.246094 188.210938 "/>
<g clip-path="url(#clip3)" clip-rule="nonzero">
<path style="fill:none;stroke-width:0.8;stroke-linecap:square;stroke-linejoin:round;stroke:rgb(69.019608%,69.019608%,69.019608%);stroke-opacity:1;stroke-miterlimit:4;" d="M 126.634375 143.1 L 126.634375 7.2 " transform="matrix(1.25,0,0,1.25,0,0)"/>
</g>
<path style="fill:none;stroke-width:0.8;stroke-linecap:butt;stroke-linejoin:round;stroke:rgb(0%,0%,0%);stroke-opacity:1;stroke-miterlimit:4;" d="M 0.000915 0 L 0.000915 3.5 " transform="matrix(1.25,0,0,1.25,158.291825,178.875)"/>
<path style=" stroke:none;fill-rule:nonzero;fill:rgb(0%,0%,0%);fill-opacity:1;" d="M 150.402344 192.6875 L 158.226562 192.6875 L 158.226562 193.722656 L 150.402344 193.722656 Z M 150.402344 192.6875 "/>
<path style=" stroke:none;fill-rule:nonzero;fill:rgb(0%,0%,0%);fill-opacity:1;" d="M 164.277344 189.085938 L 161.164062 193.949219 L 164.277344 193.949219 Z M 163.953125 188.011719 L 165.503906 188.011719 L 165.503906 193.949219 L 166.804688 193.949219 L 166.804688 194.976562 L 165.503906 194.976562 L 165.503906 197.125 L 164.277344 197.125 L 164.277344 194.976562 L 160.164062 194.976562 L 160.164062 193.785156 Z M 163.953125 188.011719 "/>
<g clip-path="url(#clip4)" clip-rule="nonzero">
<path style="fill:none;stroke-width:0.8;stroke-linecap:square;stroke-linejoin:round;stroke:rgb(69.019608%,69.019608%,69.019608%);stroke-opacity:1;stroke-miterlimit:4;" d="M 158.5375 143.1 L 158.5375 7.2 " transform="matrix(1.25,0,0,1.25,0,0)"/>
</g>
<path style="fill:none;stroke-width:0.8;stroke-linecap:butt;stroke-linejoin:round;stroke:rgb(0%,0%,0%);stroke-opacity:1;stroke-miterlimit:4;" d="M 0.000094 0 L 0.000094 3.5 " transform="matrix(1.25,0,0,1.25,198.171758,178.875)"/>
<path style=" stroke:none;fill-rule:nonzero;fill:rgb(0%,0%,0%);fill-opacity:1;" d="M 190.28125 192.6875 L 198.105469 192.6875 L 198.105469 193.722656 L 190.28125 193.722656 Z M 190.28125 192.6875 "/>
<path style=" stroke:none;fill-rule:nonzero;fill:rgb(0%,0%,0%);fill-opacity:1;" d="M 201.828125 196.085938 L 206.132812 196.085938 L 206.132812 197.125 L 200.347656 197.125 L 200.347656 196.085938 C 200.816406 195.601562 201.453125 194.953125 202.257812 194.136719 C 203.066406 193.320312 203.574219 192.792969 203.78125 192.558594 C 204.175781 192.113281 204.453125 191.738281 204.609375 191.433594 C 204.765625 191.125 204.84375 190.824219 204.84375 190.527344 C 204.84375 190.042969 204.675781 189.648438 204.335938 189.34375 C 203.996094 189.035156 203.554688 188.882812 203.007812 188.882812 C 202.621094 188.882812 202.210938 188.949219 201.78125 189.085938 C 201.355469 189.21875 200.894531 189.421875 200.40625 189.695312 L 200.40625 188.449219 C 200.902344 188.25 201.367188 188.101562 201.796875 188 C 202.230469 187.898438 202.625 187.847656 202.984375 187.847656 C 203.929688 187.847656 204.679688 188.082031 205.242188 188.554688 C 205.804688 189.027344 206.082031 189.65625 206.082031 190.445312 C 206.082031 190.820312 206.011719 191.175781 205.871094 191.511719 C 205.734375 191.847656 205.476562 192.242188 205.105469 192.699219 C 205.003906 192.816406 204.683594 193.15625 204.136719 193.722656 C 203.59375 194.285156 202.824219 195.074219 201.828125 196.085938 Z M 201.828125 196.085938 "/>
<g clip-path="url(#clip5)" clip-rule="nonzero">
<path style="fill:none;stroke-width:0.8;stroke-linecap:square;stroke-linejoin:round;stroke:rgb(69.019608%,69.019608%,69.019608%);stroke-opacity:1;stroke-miterlimit:4;" d="M 190.440625 143.1 L 190.440625 7.2 " transform="matrix(1.25,0,0,1.25,0,0)"/>
</g>
<path style="fill:none;stroke-width:0.8;stroke-linecap:butt;stroke-linejoin:round;stroke:rgb(0%,0%,0%);stroke-opacity:1;stroke-miterlimit:4;" d="M -0.000727 0 L -0.000727 3.5 " transform="matrix(1.25,0,0,1.25,238.05169,178.875)"/>
<path style=" stroke:none;fill-rule:nonzero;fill:rgb(0%,0%,0%);fill-opacity:1;" d="M 238.046875 188.824219 C 237.414062 188.824219 236.9375 189.136719 236.617188 189.761719 C 236.296875 190.382812 236.136719 191.324219 236.136719 192.578125 C 236.136719 193.824219 236.296875 194.761719 236.617188 195.386719 C 236.9375 196.011719 237.414062 196.324219 238.046875 196.324219 C 238.6875 196.324219 239.167969 196.011719 239.484375 195.386719 C 239.804688 194.761719 239.964844 193.824219 239.964844 192.578125 C 239.964844 191.324219 239.804688 190.382812 239.484375 189.761719 C 239.167969 189.136719 238.6875 188.824219 238.046875 188.824219 Z M 238.046875 187.847656 C 239.070312 187.847656 239.851562 188.25 240.390625 189.058594 C 240.929688 189.867188 241.199219 191.039062 241.199219 192.578125 C 241.199219 194.109375 240.929688 195.28125 240.390625 196.089844 C 239.851562 196.898438 239.070312 197.300781 238.046875 197.300781 C 237.027344 197.300781 236.246094 196.898438 235.707031 196.089844 C 235.167969 195.28125 234.898438 194.109375 234.898438 192.578125 C 234.898438 191.039062 235.167969 189.867188 235.707031 189.058594 C 236.246094 188.25 237.027344 187.847656 238.046875 187.847656 Z M 238.046875 187.847656 "/>
<g clip-path="url(#clip6)" clip-rule="nonzero">
<path style="fill:none;stroke-width:0.8;stroke-linecap:square;stroke-linejoin:round;stroke:rgb(69.019608%,69.019608%,69.019608%);stroke-opacity:1;stroke-miterlimit:4;" d="M 222.34375 143.1 L 222.34375 7.2 " transform="matrix(1.25,0,0,1.25,0,0)"/>
</g>
<path style="fill:none;stroke-width:0.8;stroke-linecap:butt;stroke-linejoin:round;stroke:rgb(0%,0%,0%);stroke-opacity:1;stroke-miterlimit:4;" d="M -0.001548 0 L -0.001548 3.5 " transform="matrix(1.25,0,0,1.25,277.931623,178.875)"/>
<path style=" stroke:none;fill-rule:nonzero;fill:rgb(0%,0%,0%);fill-opacity:1;" d="M 276.351562 196.085938 L 280.65625 196.085938 L 280.65625 197.125 L 274.871094 197.125 L 274.871094 196.085938 C 275.339844 195.601562 275.976562 194.953125 276.78125 194.136719 C 277.589844 193.320312 278.097656 192.792969 278.304688 192.558594 C 278.699219 192.113281 278.976562 191.738281 279.132812 191.433594 C 279.289062 191.125 279.367188 190.824219 279.367188 190.527344 C 279.367188 190.042969 279.199219 189.648438 278.859375 189.34375 C 278.519531 189.035156 278.078125 188.882812 277.53125 188.882812 C 277.144531 188.882812 276.734375 188.949219 276.304688 189.085938 C 275.878906 189.21875 275.417969 189.421875 274.929688 189.695312 L 274.929688 188.449219 C 275.425781 188.25 275.890625 188.101562 276.320312 188 C 276.753906 187.898438 277.148438 187.847656 277.507812 187.847656 C 278.453125 187.847656 279.203125 188.082031 279.765625 188.554688 C 280.328125 189.027344 280.605469 189.65625 280.605469 190.445312 C 280.605469 190.820312 280.535156 191.175781 280.394531 191.511719 C 280.257812 191.847656 280 192.242188 279.628906 192.699219 C 279.527344 192.816406 279.207031 193.15625 278.660156 193.722656 C 278.117188 194.285156 277.347656 195.074219 276.351562 196.085938 Z M 276.351562 196.085938 "/>
<g clip-path="url(#clip7)" clip-rule="nonzero">
<path style="fill:none;stroke-width:0.8;stroke-linecap:square;stroke-linejoin:round;stroke:rgb(69.019608%,69.019608%,69.019608%);stroke-opacity:1;stroke-miterlimit:4;" d="M 254.25 143.1 L 254.25 7.2 " transform="matrix(1.25,0,0,1.25,0,0)"/>
</g>
<path style="fill:none;stroke-width:0.8;stroke-linecap:butt;stroke-linejoin:round;stroke:rgb(0%,0%,0%);stroke-opacity:1;stroke-miterlimit:4;" d="M 0.000757 0 L 0.000757 3.5 " transform="matrix(1.25,0,0,1.25,317.811554,178.875)"/>
<path style=" stroke:none;fill-rule:nonzero;fill:rgb(0%,0%,0%);fill-opacity:1;" d="M 318.558594 189.085938 L 315.445312 193.949219 L 318.558594 193.949219 Z M 318.234375 188.011719 L 319.785156 188.011719 L 319.785156 193.949219 L 321.085938 193.949219 L 321.085938 194.976562 L 319.785156 194.976562 L 319.785156 197.125 L 318.558594 197.125 L 318.558594 194.976562 L 314.445312 194.976562 L 314.445312 193.785156 Z M 318.234375 188.011719 "/>
<g clip-path="url(#clip8)" clip-rule="nonzero">
<path style="fill:none;stroke-width:0.8;stroke-linecap:square;stroke-linejoin:round;stroke:rgb(69.019608%,69.019608%,69.019608%);stroke-opacity:1;stroke-miterlimit:4;" d="M 286.153125 143.1 L 286.153125 7.2 " transform="matrix(1.25,0,0,1.25,0,0)"/>
</g>
<path style="fill:none;stroke-width:0.8;stroke-linecap:butt;stroke-linejoin:round;stroke:rgb(0%,0%,0%);stroke-opacity:1;stroke-miterlimit:4;" d="M -0.000064 0 L -0.000064 3.5 " transform="matrix(1.25,0,0,1.25,357.691486,178.875)"/>
<path style=" stroke:none;fill-rule:nonzero;fill:rgb(0%,0%,0%);fill-opacity:1;" d="M 357.84375 192.078125 C 357.289062 192.078125 356.851562 192.265625 356.527344 192.644531 C 356.203125 193.023438 356.042969 193.539062 356.042969 194.199219 C 356.042969 194.855469 356.203125 195.371094 356.527344 195.753906 C 356.851562 196.132812 357.289062 196.324219 357.84375 196.324219 C 358.394531 196.324219 358.832031 196.132812 359.15625 195.753906 C 359.480469 195.371094 359.640625 194.855469 359.640625 194.199219 C 359.640625 193.539062 359.480469 193.023438 359.15625 192.644531 C 358.832031 192.265625 358.394531 192.078125 357.84375 192.078125 Z M 360.289062 188.210938 L 360.289062 189.335938 C 359.980469 189.1875 359.667969 189.078125 359.351562 189 C 359.035156 188.921875 358.722656 188.882812 358.414062 188.882812 C 357.601562 188.882812 356.980469 189.15625 356.550781 189.707031 C 356.121094 190.257812 355.875 191.085938 355.816406 192.199219 C 356.054688 191.84375 356.355469 191.570312 356.71875 191.382812 C 357.082031 191.195312 357.480469 191.101562 357.914062 191.101562 C 358.828125 191.101562 359.554688 191.378906 360.085938 191.933594 C 360.617188 192.488281 360.882812 193.242188 360.882812 194.199219 C 360.882812 195.136719 360.605469 195.886719 360.050781 196.453125 C 359.496094 197.019531 358.761719 197.300781 357.84375 197.300781 C 356.789062 197.300781 355.980469 196.898438 355.425781 196.089844 C 354.867188 195.28125 354.589844 194.109375 354.589844 192.578125 C 354.589844 191.136719 354.929688 189.988281 355.613281 189.132812 C 356.296875 188.273438 357.214844 187.847656 358.367188 187.847656 C 358.675781 187.847656 358.988281 187.875 359.304688 187.9375 C 359.617188 188 359.945312 188.089844 360.289062 188.210938 Z M 360.289062 188.210938 "/>
<g clip-path="url(#clip9)" clip-rule="nonzero">
<path style="fill:none;stroke-width:0.8;stroke-linecap:square;stroke-linejoin:round;stroke:rgb(69.019608%,69.019608%,69.019608%);stroke-opacity:1;stroke-miterlimit:4;" d="M 318.05625 143.1 L 318.05625 7.2 " transform="matrix(1.25,0,0,1.25,0,0)"/>
</g>
<path style="fill:none;stroke-width:0.8;stroke-linecap:butt;stroke-linejoin:round;stroke:rgb(0%,0%,0%);stroke-opacity:1;stroke-miterlimit:4;" d="M -0.000885 0 L -0.000885 3.5 " transform="matrix(1.25,0,0,1.25,397.571419,178.875)"/>
<path style=" stroke:none;fill-rule:nonzero;fill:rgb(0%,0%,0%);fill-opacity:1;" d="M 397.566406 192.796875 C 396.980469 192.796875 396.519531 192.953125 396.183594 193.265625 C 395.851562 193.578125 395.683594 194.011719 395.683594 194.558594 C 395.683594 195.109375 395.851562 195.539062 396.183594 195.855469 C 396.519531 196.167969 396.980469 196.324219 397.566406 196.324219 C 398.152344 196.324219 398.613281 196.167969 398.953125 195.851562 C 399.289062 195.535156 399.460938 195.105469 399.460938 194.558594 C 399.460938 194.011719 399.292969 193.578125 398.957031 193.265625 C 398.621094 192.953125 398.160156 192.796875 397.566406 192.796875 Z M 396.335938 192.273438 C 395.804688 192.140625 395.394531 191.894531 395.097656 191.535156 C 394.804688 191.171875 394.65625 190.726562 394.65625 190.207031 C 394.65625 189.480469 394.917969 188.902344 395.433594 188.480469 C 395.953125 188.058594 396.664062 187.847656 397.566406 187.847656 C 398.476562 187.847656 399.1875 188.058594 399.703125 188.480469 C 400.222656 188.902344 400.480469 189.480469 400.480469 190.207031 C 400.480469 190.726562 400.332031 191.171875 400.035156 191.535156 C 399.742188 191.894531 399.332031 192.140625 398.808594 192.273438 C 399.402344 192.410156 399.863281 192.679688 400.195312 193.085938 C 400.527344 193.488281 400.691406 193.976562 400.691406 194.558594 C 400.691406 195.441406 400.421875 196.121094 399.882812 196.59375 C 399.34375 197.066406 398.574219 197.300781 397.566406 197.300781 C 396.5625 197.300781 395.792969 197.066406 395.25 196.59375 C 394.710938 196.121094 394.441406 195.441406 394.441406 194.558594 C 394.441406 193.976562 394.609375 193.488281 394.941406 193.085938 C 395.277344 192.679688 395.742188 192.410156 396.335938 192.273438 Z M 395.882812 190.324219 C 395.882812 190.796875 396.03125 191.164062 396.324219 191.429688 C 396.621094 191.691406 397.035156 191.824219 397.566406 191.824219 C 398.097656 191.824219 398.511719 191.691406 398.808594 191.429688 C 399.109375 191.164062 399.257812 190.796875 399.257812 190.324219 C 399.257812 189.851562 399.109375 189.484375 398.808594 189.21875 C 398.511719 188.953125 398.097656 188.824219 397.566406 188.824219 C 397.035156 188.824219 396.621094 188.953125 396.324219 189.21875 C 396.03125 189.484375 395.882812 189.851562 395.882812 190.324219 Z M 395.882812 190.324219 "/>
<path style=" stroke:none;fill-rule:nonzero;fill:rgb(0%,0%,0%);fill-opacity:1;" d="M 240.21875 207.386719 L 237.742188 210.710938 L 240.34375 214.222656 L 239.019531 214.222656 L 237.03125 211.535156 L 235.039062 214.222656 L 233.714844 214.222656 L 236.371094 210.644531 L 233.941406 207.386719 L 235.265625 207.386719 L 237.078125 209.820312 L 238.890625 207.386719 Z M 240.21875 207.386719 "/>
<g clip-path="url(#clip10)" clip-rule="nonzero">
<path style="fill:none;stroke-width:0.8;stroke-linecap:square;stroke-linejoin:round;stroke:rgb(69.019608%,69.019608%,69.019608%);stroke-opacity:1;stroke-miterlimit:4;" d="M 50.14375 137.0875 L 329.14375 137.0875 " transform="matrix(1.25,0,0,1.25,0,0)"/>
</g>
<path style="fill:none;stroke-width:0.8;stroke-linecap:butt;stroke-linejoin:round;stroke:rgb(0%,0%,0%);stroke-opacity:1;stroke-miterlimit:4;" d="M 0 -0.001118 L -3.5 -0.001118 " transform="matrix(1.25,0,0,1.25,62.679688,171.360772)"/>
<path style=" stroke:none;fill-rule:nonzero;fill:rgb(0%,0%,0%);fill-opacity:1;" d="M 30.070312 167.808594 C 29.4375 167.808594 28.960938 168.121094 28.640625 168.746094 C 28.320312 169.371094 28.160156 170.308594 28.160156 171.5625 C 28.160156 172.8125 28.320312 173.75 28.640625 174.375 C 28.960938 175 29.4375 175.3125 30.070312 175.3125 C 30.710938 175.3125 31.1875 175 31.507812 174.375 C 31.828125 173.75 31.988281 172.8125 31.988281 171.5625 C 31.988281 170.308594 31.828125 169.371094 31.507812 168.746094 C 31.1875 168.121094 30.710938 167.808594 30.070312 167.808594 Z M 30.070312 166.832031 C 31.09375 166.832031 31.875 167.238281 32.414062 168.046875 C 32.953125 168.851562 33.21875 170.023438 33.21875 171.5625 C 33.21875 173.097656 32.953125 174.269531 32.414062 175.078125 C 31.875 175.882812 31.09375 176.289062 30.070312 176.289062 C 29.050781 176.289062 28.269531 175.882812 27.730469 175.078125 C 27.191406 174.269531 26.921875 173.097656 26.921875 171.5625 C 26.921875 170.023438 27.191406 168.851562 27.730469 168.046875 C 28.269531 167.238281 29.050781 166.832031 30.070312 166.832031 Z M 30.070312 166.832031 "/>
<path style=" stroke:none;fill-rule:nonzero;fill:rgb(0%,0%,0%);fill-opacity:1;" d="M 35.386719 174.558594 L 36.675781 174.558594 L 36.675781 176.109375 L 35.386719 176.109375 Z M 35.386719 174.558594 "/>
<path style=" stroke:none;fill-rule:nonzero;fill:rgb(0%,0%,0%);fill-opacity:1;" d="M 41.996094 167.808594 C 41.363281 167.808594 40.886719 168.121094 40.566406 168.746094 C 40.246094 169.371094 40.085938 170.308594 40.085938 171.5625 C 40.085938 172.8125 40.246094 173.75 40.566406 174.375 C 40.886719 175 41.363281 175.3125 41.996094 175.3125 C 42.636719 175.3125 43.113281 175 43.433594 174.375 C 43.753906 173.75 43.914062 172.8125 43.914062 171.5625 C 43.914062 170.308594 43.753906 169.371094 43.433594 168.746094 C 43.113281 168.121094 42.636719 167.808594 41.996094 167.808594 Z M 41.996094 166.832031 C 43.019531 166.832031 43.800781 167.238281 44.339844 168.046875 C 44.878906 168.851562 45.148438 170.023438 45.148438 171.5625 C 45.148438 173.097656 44.878906 174.269531 44.339844 175.078125 C 43.800781 175.882812 43.019531 176.289062 41.996094 176.289062 C 40.976562 176.289062 40.195312 175.882812 39.65625 175.078125 C 39.117188 174.269531 38.847656 173.097656 38.847656 171.5625 C 38.847656 170.023438 39.117188 168.851562 39.65625 168.046875 C 40.195312 167.238281 40.976562 166.832031 41.996094 166.832031 Z M 41.996094 166.832031 "/>
<path style=" stroke:none;fill-rule:nonzero;fill:rgb(0%,0%,0%);fill-opacity:1;" d="M 49.949219 167.808594 C 49.316406 167.808594 48.839844 168.121094 48.519531 168.746094 C 48.199219 169.371094 48.039062 170.308594 48.039062 171.5625 C 48.039062 172.8125 48.199219 173.75 48.519531 174.375 C 48.839844 175 49.316406 175.3125 49.949219 175.3125 C 50.589844 175.3125 51.066406 175 51.386719 174.375 C 51.707031 173.75 51.867188 172.8125 51.867188 171.5625 C 51.867188 170.308594 51.707031 169.371094 51.386719 168.746094 C 51.066406 168.121094 50.589844 167.808594 49.949219 167.808594 Z M 49.949219 166.832031 C 50.972656 166.832031 51.753906 167.238281 52.292969 168.046875 C 52.832031 168.851562 53.101562 170.023438 53.101562 171.5625 C 53.101562 173.097656 52.832031 174.269531 52.292969 175.078125 C 51.753906 175.882812 50.972656 176.289062 49.949219 176.289062 C 48.929688 176.289062 48.148438 175.882812 47.609375 175.078125 C 47.070312 174.269531 46.800781 173.097656 46.800781 171.5625 C 46.800781 170.023438 47.070312 168.851562 47.609375 168.046875 C 48.148438 167.238281 48.929688 166.832031 49.949219 166.832031 Z M 49.949219 166.832031 "/>
<g clip-path="url(#clip11)" clip-rule="nonzero">
<path style="fill:none;stroke-width:0.8;stroke-linecap:square;stroke-linejoin:round;stroke:rgb(69.019608%,69.019608%,69.019608%);stroke-opacity:1;stroke-miterlimit:4;" d="M 50.14375 112.346875 L 329.14375 112.346875 " transform="matrix(1.25,0,0,1.25,0,0)"/>
</g>
<path style="fill:none;stroke-width:0.8;stroke-linecap:butt;stroke-linejoin:round;stroke:rgb(0%,0%,0%);stroke-opacity:1;stroke-miterlimit:4;" d="M 0 0.000526 L -3.5 0.000526 " transform="matrix(1.25,0,0,1.25,62.679688,140.432936)"/>
<path style=" stroke:none;fill-rule:nonzero;fill:rgb(0%,0%,0%);fill-opacity:1;" d="M 30.070312 136.882812 C 29.4375 136.882812 28.960938 137.195312 28.640625 137.820312 C 28.320312 138.441406 28.160156 139.382812 28.160156 140.636719 C 28.160156 141.882812 28.320312 142.820312 28.640625 143.445312 C 28.960938 144.070312 29.4375 144.382812 30.070312 144.382812 C 30.710938 144.382812 31.1875 144.070312 31.507812 143.445312 C 31.828125 142.820312 31.988281 141.882812 31.988281 140.636719 C 31.988281 139.382812 31.828125 138.441406 31.507812 137.820312 C 31.1875 137.195312 30.710938 136.882812 30.070312 136.882812 Z M 30.070312 135.90625 C 31.09375 135.90625 31.875 136.308594 32.414062 137.117188 C 32.953125 137.925781 33.21875 139.097656 33.21875 140.636719 C 33.21875 142.167969 32.953125 143.339844 32.414062 144.148438 C 31.875 144.957031 31.09375 145.359375 30.070312 145.359375 C 29.050781 145.359375 28.269531 144.957031 27.730469 144.148438 C 27.191406 143.339844 26.921875 142.167969 26.921875 140.636719 C 26.921875 139.097656 27.191406 137.925781 27.730469 137.117188 C 28.269531 136.308594 29.050781 135.90625 30.070312 135.90625 Z M 30.070312 135.90625 "/>
<path style=" stroke:none;fill-rule:nonzero;fill:rgb(0%,0%,0%);fill-opacity:1;" d="M 35.386719 143.632812 L 36.675781 143.632812 L 36.675781 145.183594 L 35.386719 145.183594 Z M 35.386719 143.632812 "/>
<path style=" stroke:none;fill-rule:nonzero;fill:rgb(0%,0%,0%);fill-opacity:1;" d="M 41.996094 136.882812 C 41.363281 136.882812 40.886719 137.195312 40.566406 137.820312 C 40.246094 138.441406 40.085938 139.382812 40.085938 140.636719 C 40.085938 141.882812 40.246094 142.820312 40.566406 143.445312 C 40.886719 144.070312 41.363281 144.382812 41.996094 144.382812 C 42.636719 144.382812 43.113281 144.070312 43.433594 143.445312 C 43.753906 142.820312 43.914062 141.882812 43.914062 140.636719 C 43.914062 139.382812 43.753906 138.441406 43.433594 137.820312 C 43.113281 137.195312 42.636719 136.882812 41.996094 136.882812 Z M 41.996094 135.90625 C 43.019531 135.90625 43.800781 136.308594 44.339844 137.117188 C 44.878906 137.925781 45.148438 139.097656 45.148438 140.636719 C 45.148438 142.167969 44.878906 143.339844 44.339844 144.148438 C 43.800781 144.957031 43.019531 145.359375 41.996094 145.359375 C 40.976562 145.359375 40.195312 144.957031 39.65625 144.148438 C 39.117188 143.339844 38.847656 142.167969 38.847656 140.636719 C 38.847656 139.097656 39.117188 137.925781 39.65625 137.117188 C 40.195312 136.308594 40.976562 135.90625 41.996094 135.90625 Z M 41.996094 135.90625 "/>
<path style=" stroke:none;fill-rule:nonzero;fill:rgb(0%,0%,0%);fill-opacity:1;" d="M 47.328125 136.070312 L 52.167969 136.070312 L 52.167969 137.109375 L 48.457031 137.109375 L 48.457031 139.339844 C 48.632812 139.277344 48.8125 139.234375 48.992188 139.203125 C 49.171875 139.171875 49.351562 139.160156 49.53125 139.160156 C 50.546875 139.160156 51.351562 139.4375 51.945312 139.996094 C 52.539062 140.550781 52.839844 141.304688 52.839844 142.257812 C 52.839844 143.238281 52.53125 144 51.921875 144.546875 C 51.3125 145.089844 50.449219 145.359375 49.339844 145.359375 C 48.957031 145.359375 48.566406 145.328125 48.171875 145.261719 C 47.773438 145.195312 47.363281 145.097656 46.941406 144.96875 L 46.941406 143.730469 C 47.308594 143.929688 47.6875 144.078125 48.078125 144.175781 C 48.46875 144.273438 48.878906 144.320312 49.316406 144.320312 C 50.019531 144.320312 50.578125 144.136719 50.988281 143.765625 C 51.398438 143.394531 51.605469 142.894531 51.605469 142.257812 C 51.605469 141.625 51.398438 141.121094 50.988281 140.753906 C 50.578125 140.382812 50.019531 140.195312 49.316406 140.195312 C 48.984375 140.195312 48.65625 140.230469 48.328125 140.304688 C 48 140.378906 47.667969 140.492188 47.328125 140.648438 Z M 47.328125 136.070312 "/>
<g clip-path="url(#clip12)" clip-rule="nonzero">
<path style="fill:none;stroke-width:0.8;stroke-linecap:square;stroke-linejoin:round;stroke:rgb(69.019608%,69.019608%,69.019608%);stroke-opacity:1;stroke-miterlimit:4;" d="M 50.14375 87.603125 L 329.14375 87.603125 " transform="matrix(1.25,0,0,1.25,0,0)"/>
</g>
<path style="fill:none;stroke-width:0.8;stroke-linecap:butt;stroke-linejoin:round;stroke:rgb(0%,0%,0%);stroke-opacity:1;stroke-miterlimit:4;" d="M 0 -0.000955 L -3.5 -0.000955 " transform="matrix(1.25,0,0,1.25,62.679688,109.5051)"/>
<path style=" stroke:none;fill-rule:nonzero;fill:rgb(0%,0%,0%);fill-opacity:1;" d="M 30.070312 105.953125 C 29.4375 105.953125 28.960938 106.265625 28.640625 106.890625 C 28.320312 107.515625 28.160156 108.453125 28.160156 109.707031 C 28.160156 110.957031 28.320312 111.894531 28.640625 112.519531 C 28.960938 113.144531 29.4375 113.457031 30.070312 113.457031 C 30.710938 113.457031 31.1875 113.144531 31.507812 112.519531 C 31.828125 111.894531 31.988281 110.957031 31.988281 109.707031 C 31.988281 108.453125 31.828125 107.515625 31.507812 106.890625 C 31.1875 106.265625 30.710938 105.953125 30.070312 105.953125 Z M 30.070312 104.976562 C 31.09375 104.976562 31.875 105.382812 32.414062 106.191406 C 32.953125 106.996094 33.21875 108.167969 33.21875 109.707031 C 33.21875 111.242188 32.953125 112.414062 32.414062 113.222656 C 31.875 114.027344 31.09375 114.433594 30.070312 114.433594 C 29.050781 114.433594 28.269531 114.027344 27.730469 113.222656 C 27.191406 112.414062 26.921875 111.242188 26.921875 109.707031 C 26.921875 108.167969 27.191406 106.996094 27.730469 106.191406 C 28.269531 105.382812 29.050781 104.976562 30.070312 104.976562 Z M 30.070312 104.976562 "/>
<path style=" stroke:none;fill-rule:nonzero;fill:rgb(0%,0%,0%);fill-opacity:1;" d="M 35.386719 112.703125 L 36.675781 112.703125 L 36.675781 114.253906 L 35.386719 114.253906 Z M 35.386719 112.703125 "/>
<path style=" stroke:none;fill-rule:nonzero;fill:rgb(0%,0%,0%);fill-opacity:1;" d="M 39.574219 113.21875 L 41.589844 113.21875 L 41.589844 106.265625 L 39.398438 106.703125 L 39.398438 105.582031 L 41.578125 105.140625 L 42.808594 105.140625 L 42.808594 113.21875 L 44.824219 113.21875 L 44.824219 114.253906 L 39.574219 114.253906 Z M 39.574219 113.21875 "/>
<path style=" stroke:none;fill-rule:nonzero;fill:rgb(0%,0%,0%);fill-opacity:1;" d="M 49.949219 105.953125 C 49.316406 105.953125 48.839844 106.265625 48.519531 106.890625 C 48.199219 107.515625 48.039062 108.453125 48.039062 109.707031 C 48.039062 110.957031 48.199219 111.894531 48.519531 112.519531 C 48.839844 113.144531 49.316406 113.457031 49.949219 113.457031 C 50.589844 113.457031 51.066406 113.144531 51.386719 112.519531 C 51.707031 111.894531 51.867188 110.957031 51.867188 109.707031 C 51.867188 108.453125 51.707031 107.515625 51.386719 106.890625 C 51.066406 106.265625 50.589844 105.953125 49.949219 105.953125 Z M 49.949219 104.976562 C 50.972656 104.976562 51.753906 105.382812 52.292969 106.191406 C 52.832031 106.996094 53.101562 108.167969 53.101562 109.707031 C 53.101562 111.242188 52.832031 112.414062 52.292969 113.222656 C 51.753906 114.027344 50.972656 114.433594 49.949219 114.433594 C 48.929688 114.433594 48.148438 114.027344 47.609375 113.222656 C 47.070312 112.414062 46.800781 111.242188 46.800781 109.707031 C 46.800781 108.167969 47.070312 106.996094 47.609375 106.191406 C 48.148438 105.382812 48.929688 104.976562 49.949219 104.976562 Z M 49.949219 104.976562 "/>
<g clip-path="url(#clip13)" clip-rule="nonzero">
<path style="fill:none;stroke-width:0.8;stroke-linecap:square;stroke-linejoin:round;stroke:rgb(69.019608%,69.019608%,69.019608%);stroke-opacity:1;stroke-miterlimit:4;" d="M 50.14375 62.8625 L 329.14375 62.8625 " transform="matrix(1.25,0,0,1.25,0,0)"/>
</g>
<path style="fill:none;stroke-width:0.8;stroke-linecap:butt;stroke-linejoin:round;stroke:rgb(0%,0%,0%);stroke-opacity:1;stroke-miterlimit:4;" d="M 0 0.000689 L -3.5 0.000689 " transform="matrix(1.25,0,0,1.25,62.679688,78.577264)"/>
<path style=" stroke:none;fill-rule:nonzero;fill:rgb(0%,0%,0%);fill-opacity:1;" d="M 30.070312 75.027344 C 29.4375 75.027344 28.960938 75.339844 28.640625 75.964844 C 28.320312 76.585938 28.160156 77.527344 28.160156 78.78125 C 28.160156 80.027344 28.320312 80.964844 28.640625 81.589844 C 28.960938 82.214844 29.4375 82.527344 30.070312 82.527344 C 30.710938 82.527344 31.1875 82.214844 31.507812 81.589844 C 31.828125 80.964844 31.988281 80.027344 31.988281 78.78125 C 31.988281 77.527344 31.828125 76.585938 31.507812 75.964844 C 31.1875 75.339844 30.710938 75.027344 30.070312 75.027344 Z M 30.070312 74.050781 C 31.09375 74.050781 31.875 74.453125 32.414062 75.261719 C 32.953125 76.070312 33.21875 77.242188 33.21875 78.78125 C 33.21875 80.3125 32.953125 81.484375 32.414062 82.292969 C 31.875 83.101562 31.09375 83.503906 30.070312 83.503906 C 29.050781 83.503906 28.269531 83.101562 27.730469 82.292969 C 27.191406 81.484375 26.921875 80.3125 26.921875 78.78125 C 26.921875 77.242188 27.191406 76.070312 27.730469 75.261719 C 28.269531 74.453125 29.050781 74.050781 30.070312 74.050781 Z M 30.070312 74.050781 "/>
<path style=" stroke:none;fill-rule:nonzero;fill:rgb(0%,0%,0%);fill-opacity:1;" d="M 35.386719 81.777344 L 36.675781 81.777344 L 36.675781 83.328125 L 35.386719 83.328125 Z M 35.386719 81.777344 "/>
<path style=" stroke:none;fill-rule:nonzero;fill:rgb(0%,0%,0%);fill-opacity:1;" d="M 39.574219 82.289062 L 41.589844 82.289062 L 41.589844 75.335938 L 39.398438 75.777344 L 39.398438 74.652344 L 41.578125 74.214844 L 42.808594 74.214844 L 42.808594 82.289062 L 44.824219 82.289062 L 44.824219 83.328125 L 39.574219 83.328125 Z M 39.574219 82.289062 "/>
<path style=" stroke:none;fill-rule:nonzero;fill:rgb(0%,0%,0%);fill-opacity:1;" d="M 47.328125 74.214844 L 52.167969 74.214844 L 52.167969 75.253906 L 48.457031 75.253906 L 48.457031 77.484375 C 48.632812 77.421875 48.8125 77.378906 48.992188 77.347656 C 49.171875 77.316406 49.351562 77.304688 49.53125 77.304688 C 50.546875 77.304688 51.351562 77.582031 51.945312 78.140625 C 52.539062 78.695312 52.839844 79.449219 52.839844 80.402344 C 52.839844 81.382812 52.53125 82.144531 51.921875 82.691406 C 51.3125 83.234375 50.449219 83.503906 49.339844 83.503906 C 48.957031 83.503906 48.566406 83.472656 48.171875 83.40625 C 47.773438 83.339844 47.363281 83.242188 46.941406 83.113281 L 46.941406 81.875 C 47.308594 82.074219 47.6875 82.222656 48.078125 82.320312 C 48.46875 82.417969 48.878906 82.464844 49.316406 82.464844 C 50.019531 82.464844 50.578125 82.28125 50.988281 81.910156 C 51.398438 81.539062 51.605469 81.039062 51.605469 80.402344 C 51.605469 79.769531 51.398438 79.265625 50.988281 78.898438 C 50.578125 78.527344 50.019531 78.339844 49.316406 78.339844 C 48.984375 78.339844 48.65625 78.375 48.328125 78.449219 C 48 78.523438 47.667969 78.636719 47.328125 78.792969 Z M 47.328125 74.214844 "/>
<g clip-path="url(#clip14)" clip-rule="nonzero">
<path style="fill:none;stroke-width:0.8;stroke-linecap:square;stroke-linejoin:round;stroke:rgb(69.019608%,69.019608%,69.019608%);stroke-opacity:1;stroke-miterlimit:4;" d="M 50.14375 38.11875 L 329.14375 38.11875 " transform="matrix(1.25,0,0,1.25,0,0)"/>
</g>
<path style="fill:none;stroke-width:0.8;stroke-linecap:butt;stroke-linejoin:round;stroke:rgb(0%,0%,0%);stroke-opacity:1;stroke-miterlimit:4;" d="M 0 -0.000792 L -3.5 -0.000792 " transform="matrix(1.25,0,0,1.25,62.679688,47.649428)"/>
<path style=" stroke:none;fill-rule:nonzero;fill:rgb(0%,0%,0%);fill-opacity:1;" d="M 30.070312 44.097656 C 29.4375 44.097656 28.960938 44.410156 28.640625 45.035156 C 28.320312 45.660156 28.160156 46.597656 28.160156 47.851562 C 28.160156 49.101562 28.320312 50.039062 28.640625 50.664062 C 28.960938 51.289062 29.4375 51.601562 30.070312 51.601562 C 30.710938 51.601562 31.1875 51.289062 31.507812 50.664062 C 31.828125 50.039062 31.988281 49.101562 31.988281 47.851562 C 31.988281 46.597656 31.828125 45.660156 31.507812 45.035156 C 31.1875 44.410156 30.710938 44.097656 30.070312 44.097656 Z M 30.070312 43.121094 C 31.09375 43.121094 31.875 43.527344 32.414062 44.335938 C 32.953125 45.140625 33.21875 46.3125 33.21875 47.851562 C 33.21875 49.386719 32.953125 50.558594 32.414062 51.367188 C 31.875 52.171875 31.09375 52.578125 30.070312 52.578125 C 29.050781 52.578125 28.269531 52.171875 27.730469 51.367188 C 27.191406 50.558594 26.921875 49.386719 26.921875 47.851562 C 26.921875 46.3125 27.191406 45.140625 27.730469 44.335938 C 28.269531 43.527344 29.050781 43.121094 30.070312 43.121094 Z M 30.070312 43.121094 "/>
<path style=" stroke:none;fill-rule:nonzero;fill:rgb(0%,0%,0%);fill-opacity:1;" d="M 35.386719 50.847656 L 36.675781 50.847656 L 36.675781 52.398438 L 35.386719 52.398438 Z M 35.386719 50.847656 "/>
<path style=" stroke:none;fill-rule:nonzero;fill:rgb(0%,0%,0%);fill-opacity:1;" d="M 40.421875 51.363281 L 44.726562 51.363281 L 44.726562 52.398438 L 38.941406 52.398438 L 38.941406 51.363281 C 39.40625 50.878906 40.042969 50.226562 40.851562 49.414062 C 41.660156 48.597656 42.167969 48.070312 42.375 47.832031 C 42.769531 47.390625 43.046875 47.015625 43.203125 46.707031 C 43.359375 46.398438 43.4375 46.097656 43.4375 45.800781 C 43.4375 45.316406 43.269531 44.921875 42.929688 44.617188 C 42.589844 44.3125 42.144531 44.160156 41.601562 44.160156 C 41.214844 44.160156 40.804688 44.226562 40.375 44.359375 C 39.945312 44.492188 39.488281 44.699219 39 44.972656 L 39 43.726562 C 39.496094 43.527344 39.960938 43.375 40.390625 43.273438 C 40.824219 43.171875 41.21875 43.121094 41.578125 43.121094 C 42.519531 43.121094 43.273438 43.359375 43.835938 43.832031 C 44.394531 44.300781 44.675781 44.933594 44.675781 45.722656 C 44.675781 46.097656 44.605469 46.453125 44.464844 46.789062 C 44.324219 47.121094 44.070312 47.515625 43.699219 47.972656 C 43.597656 48.089844 43.273438 48.433594 42.730469 48.996094 C 42.183594 49.558594 41.414062 50.347656 40.421875 51.363281 Z M 40.421875 51.363281 "/>
<path style=" stroke:none;fill-rule:nonzero;fill:rgb(0%,0%,0%);fill-opacity:1;" d="M 49.949219 44.097656 C 49.316406 44.097656 48.839844 44.410156 48.519531 45.035156 C 48.199219 45.660156 48.039062 46.597656 48.039062 47.851562 C 48.039062 49.101562 48.199219 50.039062 48.519531 50.664062 C 48.839844 51.289062 49.316406 51.601562 49.949219 51.601562 C 50.589844 51.601562 51.066406 51.289062 51.386719 50.664062 C 51.707031 50.039062 51.867188 49.101562 51.867188 47.851562 C 51.867188 46.597656 51.707031 45.660156 51.386719 45.035156 C 51.066406 44.410156 50.589844 44.097656 49.949219 44.097656 Z M 49.949219 43.121094 C 50.972656 43.121094 51.753906 43.527344 52.292969 44.335938 C 52.832031 45.140625 53.101562 46.3125 53.101562 47.851562 C 53.101562 49.386719 52.832031 50.558594 52.292969 51.367188 C 51.753906 52.171875 50.972656 52.578125 49.949219 52.578125 C 48.929688 52.578125 48.148438 52.171875 47.609375 51.367188 C 47.070312 50.558594 46.800781 49.386719 46.800781 47.851562 C 46.800781 46.3125 47.070312 45.140625 47.609375 44.335938 C 48.148438 43.527344 48.929688 43.121094 49.949219 43.121094 Z M 49.949219 43.121094 "/>
<g clip-path="url(#clip15)" clip-rule="nonzero">
<path style="fill:none;stroke-width:0.8;stroke-linecap:square;stroke-linejoin:round;stroke:rgb(69.019608%,69.019608%,69.019608%);stroke-opacity:1;stroke-miterlimit:4;" d="M 50.14375 13.378125 L 329.14375 13.378125 " transform="matrix(1.25,0,0,1.25,0,0)"/>
</g>
<path style="fill:none;stroke-width:0.8;stroke-linecap:butt;stroke-linejoin:round;stroke:rgb(0%,0%,0%);stroke-opacity:1;stroke-miterlimit:4;" d="M 0 0.000852 L -3.5 0.000852 " transform="matrix(1.25,0,0,1.25,62.679688,16.721591)"/>
<path style=" stroke:none;fill-rule:nonzero;fill:rgb(0%,0%,0%);fill-opacity:1;" d="M 30.070312 13.167969 C 29.4375 13.167969 28.960938 13.480469 28.640625 14.105469 C 28.320312 14.730469 28.160156 15.667969 28.160156 16.921875 C 28.160156 18.171875 28.320312 19.109375 28.640625 19.734375 C 28.960938 20.359375 29.4375 20.671875 30.070312 20.671875 C 30.710938 20.671875 31.1875 20.359375 31.507812 19.734375 C 31.828125 19.109375 31.988281 18.171875 31.988281 16.921875 C 31.988281 15.667969 31.828125 14.730469 31.507812 14.105469 C 31.1875 13.480469 30.710938 13.167969 30.070312 13.167969 Z M 30.070312 12.191406 C 31.09375 12.191406 31.875 12.597656 32.414062 13.40625 C 32.953125 14.214844 33.21875 15.386719 33.21875 16.921875 C 33.21875 18.457031 32.953125 19.628906 32.414062 20.4375 C 31.875 21.246094 31.09375 21.648438 30.070312 21.648438 C 29.050781 21.648438 28.269531 21.246094 27.730469 20.4375 C 27.191406 19.628906 26.921875 18.457031 26.921875 16.921875 C 26.921875 15.386719 27.191406 14.214844 27.730469 13.40625 C 28.269531 12.597656 29.050781 12.191406 30.070312 12.191406 Z M 30.070312 12.191406 "/>
<path style=" stroke:none;fill-rule:nonzero;fill:rgb(0%,0%,0%);fill-opacity:1;" d="M 35.386719 19.917969 L 36.675781 19.917969 L 36.675781 21.46875 L 35.386719 21.46875 Z M 35.386719 19.917969 "/>
<path style=" stroke:none;fill-rule:nonzero;fill:rgb(0%,0%,0%);fill-opacity:1;" d="M 40.421875 20.433594 L 44.726562 20.433594 L 44.726562 21.46875 L 38.941406 21.46875 L 38.941406 20.433594 C 39.40625 19.949219 40.042969 19.300781 40.851562 18.484375 C 41.660156 17.667969 42.167969 17.140625 42.375 16.902344 C 42.769531 16.460938 43.046875 16.085938 43.203125 15.777344 C 43.359375 15.472656 43.4375 15.167969 43.4375 14.871094 C 43.4375 14.386719 43.269531 13.992188 42.929688 13.6875 C 42.589844 13.382812 42.144531 13.230469 41.601562 13.230469 C 41.214844 13.230469 40.804688 13.296875 40.375 13.429688 C 39.945312 13.566406 39.488281 13.769531 39 14.042969 L 39 12.796875 C 39.496094 12.597656 39.960938 12.445312 40.390625 12.34375 C 40.824219 12.242188 41.21875 12.191406 41.578125 12.191406 C 42.519531 12.191406 43.273438 12.429688 43.835938 12.902344 C 44.394531 13.375 44.675781 14.003906 44.675781 14.792969 C 44.675781 15.167969 44.605469 15.523438 44.464844 15.859375 C 44.324219 16.195312 44.070312 16.589844 43.699219 17.042969 C 43.597656 17.164062 43.273438 17.503906 42.730469 18.066406 C 42.183594 18.632812 41.414062 19.421875 40.421875 20.433594 Z M 40.421875 20.433594 "/>
<path style=" stroke:none;fill-rule:nonzero;fill:rgb(0%,0%,0%);fill-opacity:1;" d="M 47.328125 12.355469 L 52.167969 12.355469 L 52.167969 13.394531 L 48.457031 13.394531 L 48.457031 15.628906 C 48.632812 15.566406 48.8125 15.523438 48.992188 15.492188 C 49.171875 15.460938 49.351562 15.445312 49.53125 15.445312 C 50.546875 15.445312 51.351562 15.726562 51.945312 16.28125 C 52.539062 16.839844 52.839844 17.59375 52.839844 18.546875 C 52.839844 19.527344 52.53125 20.289062 51.921875 20.832031 C 51.3125 21.375 50.449219 21.648438 49.339844 21.648438 C 48.957031 21.648438 48.566406 21.617188 48.171875 21.550781 C 47.773438 21.484375 47.363281 21.386719 46.941406 21.257812 L 46.941406 20.015625 C 47.308594 20.214844 47.6875 20.363281 48.078125 20.460938 C 48.46875 20.558594 48.878906 20.609375 49.316406 20.609375 C 50.019531 20.609375 50.578125 20.425781 50.988281 20.054688 C 51.398438 19.683594 51.605469 19.183594 51.605469 18.546875 C 51.605469 17.914062 51.398438 17.410156 50.988281 17.039062 C 50.578125 16.667969 50.019531 16.484375 49.316406 16.484375 C 48.984375 16.484375 48.65625 16.519531 48.328125 16.59375 C 48 16.667969 47.667969 16.78125 47.328125 16.933594 Z M 47.328125 12.355469 "/>
<path style=" stroke:none;fill-rule:nonzero;fill:rgb(0%,0%,0%);fill-opacity:1;" d="M 15 137.167969 C 14.1875 137.167969 13.554688 137.335938 13.109375 137.671875 C 12.660156 138.007812 12.4375 138.480469 12.4375 139.085938 C 12.4375 139.6875 12.660156 140.15625 13.109375 140.492188 C 13.554688 140.828125 14.1875 140.996094 15 140.996094 C 15.808594 140.996094 16.4375 140.828125 16.886719 140.492188 C 17.335938 140.15625 17.558594 139.6875 17.558594 139.085938 C 17.558594 138.480469 17.335938 138.007812 16.886719 137.671875 C 16.4375 137.335938 15.808594 137.167969 15 137.167969 Z M 17.652344 136.046875 C 18.8125 136.046875 19.679688 136.304688 20.246094 136.820312 C 20.8125 137.335938 21.097656 138.128906 21.097656 139.195312 C 21.097656 139.589844 21.070312 139.960938 21.011719 140.3125 C 20.953125 140.664062 20.859375 141.003906 20.738281 141.332031 L 19.648438 141.332031 C 19.824219 141.003906 19.957031 140.675781 20.042969 140.355469 C 20.128906 140.035156 20.171875 139.707031 20.171875 139.371094 C 20.171875 138.636719 19.976562 138.085938 19.59375 137.71875 C 19.210938 137.351562 18.628906 137.167969 17.851562 137.167969 L 17.296875 137.167969 C 17.699219 137.402344 18 137.699219 18.199219 138.058594 C 18.398438 138.421875 18.5 138.855469 18.5 139.359375 C 18.5 140.199219 18.179688 140.875 17.542969 141.386719 C 16.902344 141.898438 16.054688 142.15625 15 142.15625 C 13.941406 142.15625 13.09375 141.898438 12.457031 141.386719 C 11.816406 140.875 11.5 140.199219 11.5 139.359375 C 11.5 138.855469 11.597656 138.421875 11.796875 138.058594 C 11.996094 137.699219 12.296875 137.402344 12.699219 137.167969 L 11.664062 137.167969 L 11.664062 136.046875 Z M 17.652344 136.046875 "/>
<path style=" stroke:none;fill-rule:nonzero;fill:rgb(0%,0%,0%);fill-opacity:1;" d="M 12.710938 129.773438 C 12.636719 129.898438 12.585938 130.035156 12.550781 130.183594 C 12.515625 130.332031 12.5 130.496094 12.5 130.675781 C 12.5 131.308594 12.703125 131.796875 13.117188 132.136719 C 13.53125 132.476562 14.125 132.648438 14.898438 132.648438 L 18.5 132.648438 L 18.5 133.777344 L 11.664062 133.777344 L 11.664062 132.648438 L 12.726562 132.648438 C 12.308594 132.410156 12 132.101562 11.800781 131.726562 C 11.597656 131.347656 11.5 130.886719 11.5 130.34375 C 11.5 130.269531 11.503906 130.183594 11.515625 130.089844 C 11.523438 129.996094 11.539062 129.890625 11.558594 129.777344 Z M 12.710938 129.773438 "/>
<path style=" stroke:none;fill-rule:nonzero;fill:rgb(0%,0%,0%);fill-opacity:1;" d="M 15.0625 125.488281 C 15.0625 126.394531 15.167969 127.023438 15.375 127.375 C 15.582031 127.722656 15.933594 127.898438 16.4375 127.898438 C 16.835938 127.898438 17.152344 127.765625 17.386719 127.503906 C 17.617188 127.242188 17.734375 126.882812 17.734375 126.433594 C 17.734375 125.808594 17.515625 125.308594 17.074219 124.933594 C 16.632812 124.558594 16.042969 124.371094 15.3125 124.371094 L 15.0625 124.371094 Z M 14.597656 123.246094 L 18.5 123.246094 L 18.5 124.371094 L 17.460938 124.371094 C 17.875 124.625 18.179688 124.945312 18.378906 125.328125 C 18.578125 125.710938 18.675781 126.179688 18.675781 126.734375 C 18.675781 127.433594 18.480469 127.988281 18.085938 128.402344 C 17.691406 128.816406 17.167969 129.023438 16.507812 129.023438 C 15.738281 129.023438 15.160156 128.765625 14.769531 128.25 C 14.378906 127.734375 14.183594 126.964844 14.183594 125.945312 L 14.183594 124.371094 L 14.074219 124.371094 C 13.554688 124.371094 13.15625 124.539062 12.875 124.878906 C 12.589844 125.21875 12.449219 125.695312 12.449219 126.3125 C 12.449219 126.703125 12.496094 127.082031 12.589844 127.453125 C 12.683594 127.824219 12.824219 128.179688 13.011719 128.519531 L 11.972656 128.519531 C 11.8125 128.109375 11.695312 127.710938 11.617188 127.324219 C 11.539062 126.9375 11.5 126.5625 11.5 126.195312 C 11.5 125.207031 11.753906 124.46875 12.269531 123.980469 C 12.78125 123.492188 13.554688 123.246094 14.597656 123.246094 Z M 14.597656 123.246094 "/>
<path style=" stroke:none;fill-rule:nonzero;fill:rgb(0%,0%,0%);fill-opacity:1;" d="M 12.699219 116.4375 L 9 116.4375 L 9 115.3125 L 18.5 115.3125 L 18.5 116.4375 L 17.472656 116.4375 C 17.878906 116.671875 18.179688 116.96875 18.378906 117.332031 C 18.578125 117.691406 18.675781 118.121094 18.675781 118.628906 C 18.675781 119.453125 18.347656 120.125 17.6875 120.644531 C 17.027344 121.164062 16.160156 121.421875 15.085938 121.421875 C 14.011719 121.421875 13.144531 121.164062 12.488281 120.644531 C 11.828125 120.125 11.5 119.453125 11.5 118.628906 C 11.5 118.121094 11.597656 117.691406 11.796875 117.332031 C 11.992188 116.96875 12.292969 116.671875 12.699219 116.4375 Z M 15.085938 120.261719 C 15.910156 120.261719 16.558594 120.09375 17.03125 119.753906 C 17.5 119.414062 17.734375 118.945312 17.734375 118.351562 C 17.734375 117.757812 17.5 117.292969 17.03125 116.949219 C 16.558594 116.609375 15.910156 116.4375 15.085938 116.4375 C 14.261719 116.4375 13.613281 116.609375 13.144531 116.949219 C 12.671875 117.292969 12.4375 117.757812 12.4375 118.351562 C 12.4375 118.945312 12.671875 119.414062 13.144531 119.753906 C 13.613281 120.09375 14.261719 120.261719 15.085938 120.261719 Z M 15.085938 120.261719 "/>
<path style=" stroke:none;fill-rule:nonzero;fill:rgb(0%,0%,0%);fill-opacity:1;" d="M 12.449219 106.378906 C 12.449219 106.980469 12.683594 107.457031 13.15625 107.804688 C 13.625 108.15625 14.269531 108.332031 15.085938 108.332031 C 15.902344 108.332031 16.546875 108.15625 17.019531 107.808594 C 17.488281 107.460938 17.722656 106.984375 17.722656 106.378906 C 17.722656 105.777344 17.488281 105.304688 17.015625 104.957031 C 16.542969 104.605469 15.898438 104.429688 15.085938 104.429688 C 14.277344 104.429688 13.632812 104.605469 13.160156 104.957031 C 12.6875 105.304688 12.449219 105.777344 12.449219 106.378906 Z M 11.5 106.378906 C 11.5 105.402344 11.816406 104.632812 12.453125 104.078125 C 13.085938 103.519531 13.964844 103.238281 15.085938 103.238281 C 16.203125 103.238281 17.082031 103.519531 17.722656 104.078125 C 18.359375 104.632812 18.675781 105.402344 18.675781 106.378906 C 18.675781 107.359375 18.359375 108.125 17.722656 108.683594 C 17.082031 109.238281 16.203125 109.515625 15.085938 109.515625 C 13.964844 109.515625 13.085938 109.238281 12.453125 108.683594 C 11.816406 108.125 11.5 107.359375 11.5 106.378906 Z M 11.5 106.378906 "/>
<path style=" stroke:none;fill-rule:nonzero;fill:rgb(0%,0%,0%);fill-opacity:1;" d="M 9 97.917969 L 9.9375 97.917969 L 9.9375 98.992188 C 9.9375 99.394531 10.015625 99.675781 10.179688 99.832031 C 10.34375 99.988281 10.636719 100.066406 11.058594 100.066406 L 11.664062 100.066406 L 11.664062 98.214844 L 12.535156 98.214844 L 12.535156 100.066406 L 18.5 100.066406 L 18.5 101.195312 L 12.535156 101.195312 L 12.535156 102.269531 L 11.664062 102.269531 L 11.664062 101.195312 L 11.1875 101.195312 C 10.425781 101.195312 9.871094 101.019531 9.523438 100.664062 C 9.175781 100.308594 9 99.75 9 98.980469 Z M 9 97.917969 "/>
<path style=" stroke:none;fill-rule:nonzero;fill:rgb(0%,0%,0%);fill-opacity:1;" d="M 11.863281 88.648438 L 12.925781 88.648438 C 12.761719 88.964844 12.640625 89.292969 12.5625 89.636719 C 12.480469 89.976562 12.4375 90.332031 12.4375 90.699219 C 12.4375 91.253906 12.523438 91.671875 12.695312 91.953125 C 12.863281 92.230469 13.121094 92.371094 13.464844 92.371094 C 13.722656 92.371094 13.929688 92.269531 14.078125 92.070312 C 14.226562 91.871094 14.367188 91.472656 14.5 90.867188 L 14.585938 90.484375 C 14.757812 89.6875 14.996094 89.121094 15.308594 88.785156 C 15.621094 88.449219 16.054688 88.28125 16.613281 88.28125 C 17.246094 88.28125 17.75 88.53125 18.121094 89.035156 C 18.492188 89.535156 18.675781 90.226562 18.675781 91.105469 C 18.675781 91.472656 18.640625 91.855469 18.570312 92.25 C 18.496094 92.648438 18.390625 93.066406 18.25 93.503906 L 17.089844 93.503906 C 17.304688 93.089844 17.464844 92.679688 17.574219 92.277344 C 17.679688 91.875 17.734375 91.476562 17.734375 91.082031 C 17.734375 90.550781 17.644531 90.144531 17.464844 89.863281 C 17.28125 89.578125 17.027344 89.433594 16.699219 89.433594 C 16.394531 89.433594 16.160156 89.539062 15.996094 89.742188 C 15.832031 89.949219 15.675781 90.398438 15.527344 91.09375 L 15.433594 91.484375 C 15.289062 92.179688 15.0625 92.683594 14.761719 92.992188 C 14.457031 93.300781 14.039062 93.457031 13.511719 93.457031 C 12.867188 93.457031 12.371094 93.226562 12.023438 92.773438 C 11.671875 92.316406 11.5 91.667969 11.5 90.832031 C 11.5 90.417969 11.527344 90.027344 11.589844 89.660156 C 11.648438 89.292969 11.742188 88.957031 11.863281 88.648438 Z M 11.863281 88.648438 "/>
<path style=" stroke:none;fill-rule:nonzero;fill:rgb(0%,0%,0%);fill-opacity:1;" d="M 11.664062 86.492188 L 11.664062 85.367188 L 18.5 85.367188 L 18.5 86.492188 Z M 9 86.492188 L 9 85.367188 L 10.425781 85.367188 L 10.425781 86.492188 Z M 9 86.492188 "/>
<path style=" stroke:none;fill-rule:nonzero;fill:rgb(0%,0%,0%);fill-opacity:1;" d="M 15 78.519531 C 14.1875 78.519531 13.554688 78.6875 13.109375 79.023438 C 12.660156 79.359375 12.4375 79.832031 12.4375 80.4375 C 12.4375 81.039062 12.660156 81.507812 13.109375 81.84375 C 13.554688 82.179688 14.1875 82.347656 15 82.347656 C 15.808594 82.347656 16.4375 82.179688 16.886719 81.84375 C 17.335938 81.507812 17.558594 81.039062 17.558594 80.4375 C 17.558594 79.832031 17.335938 79.359375 16.886719 79.023438 C 16.4375 78.6875 15.808594 78.519531 15 78.519531 Z M 17.652344 77.398438 C 18.8125 77.398438 19.679688 77.65625 20.246094 78.171875 C 20.8125 78.6875 21.097656 79.480469 21.097656 80.546875 C 21.097656 80.941406 21.070312 81.3125 21.011719 81.664062 C 20.953125 82.015625 20.859375 82.355469 20.738281 82.683594 L 19.648438 82.683594 C 19.824219 82.355469 19.957031 82.027344 20.042969 81.707031 C 20.128906 81.386719 20.171875 81.058594 20.171875 80.722656 C 20.171875 79.988281 19.976562 79.4375 19.59375 79.070312 C 19.210938 78.703125 18.628906 78.519531 17.851562 78.519531 L 17.296875 78.519531 C 17.699219 78.753906 18 79.050781 18.199219 79.410156 C 18.398438 79.773438 18.5 80.207031 18.5 80.710938 C 18.5 81.550781 18.179688 82.226562 17.542969 82.738281 C 16.902344 83.25 16.054688 83.507812 15 83.507812 C 13.941406 83.507812 13.09375 83.25 12.457031 82.738281 C 11.816406 82.226562 11.5 81.550781 11.5 80.710938 C 11.5 80.207031 11.597656 79.773438 11.796875 79.410156 C 11.996094 79.050781 12.296875 78.753906 12.699219 78.519531 L 11.664062 78.519531 L 11.664062 77.398438 Z M 17.652344 77.398438 "/>
<path style=" stroke:none;fill-rule:nonzero;fill:rgb(0%,0%,0%);fill-opacity:1;" d="M 12.976562 69.761719 C 12.46875 69.480469 12.097656 69.144531 11.859375 68.753906 C 11.617188 68.363281 11.5 67.90625 11.5 67.375 C 11.5 66.664062 11.746094 66.113281 12.246094 65.726562 C 12.742188 65.339844 13.453125 65.148438 14.371094 65.148438 L 18.5 65.148438 L 18.5 66.277344 L 14.410156 66.277344 C 13.753906 66.277344 13.269531 66.394531 12.953125 66.625 C 12.632812 66.859375 12.476562 67.210938 12.476562 67.6875 C 12.476562 68.269531 12.667969 68.730469 13.054688 69.066406 C 13.441406 69.40625 13.96875 69.574219 14.636719 69.574219 L 18.5 69.574219 L 18.5 70.703125 L 14.410156 70.703125 C 13.75 70.703125 13.261719 70.816406 12.949219 71.050781 C 12.632812 71.28125 12.476562 71.640625 12.476562 72.125 C 12.476562 72.699219 12.667969 73.15625 13.058594 73.492188 C 13.445312 73.832031 13.972656 74 14.636719 74 L 18.5 74 L 18.5 75.128906 L 11.664062 75.128906 L 11.664062 74 L 12.726562 74 C 12.304688 73.742188 11.996094 73.433594 11.796875 73.078125 C 11.597656 72.71875 11.5 72.292969 11.5 71.800781 C 11.5 71.304688 11.625 70.882812 11.878906 70.535156 C 12.128906 70.1875 12.496094 69.929688 12.976562 69.761719 Z M 12.976562 69.761719 "/>
<path style=" stroke:none;fill-rule:nonzero;fill:rgb(0%,0%,0%);fill-opacity:1;" d="M 12.449219 60.257812 C 12.449219 60.859375 12.683594 61.335938 13.15625 61.6875 C 13.625 62.039062 14.269531 62.210938 15.085938 62.210938 C 15.902344 62.210938 16.546875 62.039062 17.019531 61.691406 C 17.488281 61.34375 17.722656 60.863281 17.722656 60.257812 C 17.722656 59.660156 17.488281 59.1875 17.015625 58.835938 C 16.542969 58.488281 15.898438 58.3125 15.085938 58.3125 C 14.277344 58.3125 13.632812 58.488281 13.160156 58.835938 C 12.6875 59.1875 12.449219 59.660156 12.449219 60.257812 Z M 11.5 60.257812 C 11.5 59.28125 11.816406 58.515625 12.453125 57.957031 C 13.085938 57.398438 13.964844 57.121094 15.085938 57.121094 C 16.203125 57.121094 17.082031 57.398438 17.722656 57.957031 C 18.359375 58.515625 18.675781 59.28125 18.675781 60.257812 C 18.675781 61.238281 18.359375 62.007812 17.722656 62.5625 C 17.082031 63.117188 16.203125 63.394531 15.085938 63.394531 C 13.964844 63.394531 13.085938 63.117188 12.453125 62.5625 C 11.816406 62.007812 11.5 61.238281 11.5 60.257812 Z M 11.5 60.257812 "/>
<path style=" stroke:none;fill-rule:nonzero;fill:rgb(0%,0%,0%);fill-opacity:1;" d="M 11.664062 55.261719 L 11.664062 54.136719 L 18.5 54.136719 L 18.5 55.261719 Z M 9 55.261719 L 9 54.136719 L 10.425781 54.136719 L 10.425781 55.261719 Z M 9 55.261719 "/>
<path style=" stroke:none;fill-rule:nonzero;fill:rgb(0%,0%,0%);fill-opacity:1;" d="M 12.699219 47.289062 L 9 47.289062 L 9 46.167969 L 18.5 46.167969 L 18.5 47.289062 L 17.472656 47.289062 C 17.878906 47.523438 18.179688 47.824219 18.378906 48.183594 C 18.578125 48.542969 18.675781 48.976562 18.675781 49.480469 C 18.675781 50.304688 18.347656 50.980469 17.6875 51.5 C 17.027344 52.015625 16.160156 52.277344 15.085938 52.277344 C 14.011719 52.277344 13.144531 52.015625 12.488281 51.5 C 11.828125 50.980469 11.5 50.304688 11.5 49.480469 C 11.5 48.976562 11.597656 48.542969 11.796875 48.183594 C 11.992188 47.824219 12.292969 47.523438 12.699219 47.289062 Z M 15.085938 51.117188 C 15.910156 51.117188 16.558594 50.945312 17.03125 50.605469 C 17.5 50.265625 17.734375 49.800781 17.734375 49.207031 C 17.734375 48.613281 17.5 48.144531 17.03125 47.804688 C 16.558594 47.460938 15.910156 47.289062 15.085938 47.289062 C 14.261719 47.289062 13.613281 47.460938 13.144531 47.804688 C 12.671875 48.144531 12.4375 48.613281 12.4375 49.207031 C 12.4375 49.800781 12.671875 50.265625 13.144531 50.605469 C 13.613281 50.945312 14.261719 51.117188 15.085938 51.117188 Z M 15.085938 51.117188 "/>
<path style="fill:none;stroke-width:1.5;stroke-linecap:square;stroke-linejoin:round;stroke:rgb(12.156863%,46.666667%,70.588235%);stroke-opacity:1;stroke-miterlimit:4;" d="M 62.825 136.921875 L 78.778125 136.6375 L 88.35 136.26875 L 96.325 135.740625 L 102.70625 135.08125 L 107.490625 134.3875 L 112.278125 133.459375 L 115.465625 132.66875 L 118.65625 131.7125 L 121.846875 130.553125 L 125.0375 129.153125 L 128.228125 127.465625 L 131.41875 125.4375 L 134.609375 123.009375 L 137.8 120.1125 L 140.990625 116.678125 L 144.18125 112.628125 L 147.371875 107.8875 L 150.5625 102.396875 L 153.753125 96.10625 L 156.94375 88.99375 L 160.13125 81.08125 L 163.321875 72.459375 L 168.109375 58.565625 L 174.490625 39.796875 L 177.68125 31.2375 L 179.275 27.375 L 180.86875 23.875 L 182.465625 20.796875 L 184.059375 18.196875 L 185.65625 16.11875 L 187.25 14.60625 L 188.846875 13.6875 L 190.440625 13.378125 L 192.0375 13.6875 L 193.63125 14.60625 L 195.228125 16.11875 L 196.821875 18.196875 L 198.41875 20.796875 L 200.0125 23.875 L 201.60625 27.375 L 203.203125 31.2375 L 206.39375 39.796875 L 211.178125 53.80625 L 215.965625 67.928125 L 219.15625 76.85 L 222.34375 85.134375 L 225.534375 92.65 L 228.725 99.353125 L 231.915625 105.240625 L 235.10625 110.346875 L 238.296875 114.734375 L 241.4875 118.465625 L 244.678125 121.625 L 247.86875 124.278125 L 251.059375 126.496875 L 254.25 128.346875 L 257.440625 129.884375 L 260.63125 131.159375 L 263.821875 132.2125 L 267.009375 133.08125 L 271.796875 134.109375 L 276.58125 134.875 L 282.9625 135.6 L 289.34375 136.0875 L 297.31875 136.48125 L 308.4875 136.7875 L 316.4625 136.90625 " transform="matrix(1.25,0,0,1.25,0,0)"/>
<path style="fill:none;stroke-width:0.8;stroke-linecap:square;stroke-linejoin:miter;stroke:rgb(0%,0%,0%);stroke-opacity:1;stroke-miterlimit:4;" d="M 50.14375 143.1 L 50.14375 7.2 " transform="matrix(1.25,0,0,1.25,0,0)"/>
<path style="fill:none;stroke-width:0.8;stroke-linecap:square;stroke-linejoin:miter;stroke:rgb(0%,0%,0%);stroke-opacity:1;stroke-miterlimit:4;" d="M 329.14375 143.1 L 329.14375 7.2 " transform="matrix(1.25,0,0,1.25,0,0)"/>
<path style="fill:none;stroke-width:0.8;stroke-linecap:square;stroke-linejoin:miter;stroke:rgb(0%,0%,0%);stroke-opacity:1;stroke-miterlimit:4;" d="M 50.14375 143.1 L 329.14375 143.1 " transform="matrix(1.25,0,0,1.25,0,0)"/>
<path style="fill:none;stroke-width:0.8;stroke-linecap:square;stroke-linejoin:miter;stroke:rgb(0%,0%,0%);stroke-opacity:1;stroke-miterlimit:4;" d="M 50.14375 7.2 L 329.14375 7.2 " transform="matrix(1.25,0,0,1.25,0,0)"/>
</g>
</svg>
