<?xml version="1.0" encoding="UTF-8"?>
<svg xmlns="http://www.w3.org/2000/svg" xmlns:xlink="http://www.w3.org/1999/xlink" width="412pt" height="226pt" viewBox="0 0 412 226" version="1.1">
<defs>
<clipPath id="clip1">
  <path d="M 69 9 L 72 9 L 72 178.875 L 69 178.875 Z M 69 9 "/>
</clipPath>
<clipPath id="clip2">
  <path d="M 109 9 L 112 9 L 112 178.875 L 109 178.875 Z M 109 9 "/>
</clipPath>
<clipPath id="clip3">
  <path d="M 149 9 L 152 9 L 152 178.875 L 149 178.875 Z M 149 9 "/>
</clipPath>
<clipPath id="clip4">
  <path d="M 189 9 L 191 9 L 191 178.875 L 189 178.875 Z M 189 9 "/>
</clipPath>
<clipPath id="clip5">
  <path d="M 229 9 L 231 9 L 231 178.875 L 229 178.875 Z M 229 9 "/>
</clipPath>
<clipPath id="clip6">
  <path d="M 269 9 L 271 9 L 271 178.875 L 269 178.875 Z M 269 9 "/>
</clipPath>
<clipPath id="clip7">
  <path d="M 309 9 L 311 9 L 311 178.875 L 309 178.875 Z M 309 9 "/>
</clipPath>
<clipPath id="clip8">
  <path d="M 349 9 L 351 9 L 351 178.875 L 349 178.875 Z M 349 9 "/>
</clipPath>
<clipPath id="clip9">
  <path d="M 388 9 L 391 9 L 391 178.875 L 388 178.875 Z M 388 9 "/>
</clipPath>
<clipPath id="clip10">
  <path d="M 54.726562 170 L 403.476562 170 L 403.476562 172 L 54.726562 172 Z M 54.726562 170 "/>
</clipPath>
<clipPath id="clip11">
  <path d="M 54.726562 139 L 403.476562 139 L 403.476562 142 L 54.726562 142 Z M 54.726562 139 "/>
</clipPath>
<clipPath id="clip12">
  <path d="M 54.726562 108 L 403.476562 108 L 403.476562 111 L 54.726562 111 Z M 54.726562 108 "/>
</clipPath>
<clipPath id="clip13">
  <path d="M 54.726562 77 L 403.476562 77 L 403.476562 80 L 54.726562 80 Z M 54.726562 77 "/>
</clipPath>
<clipPath id="clip14">
  <path d="M 54.726562 46 L 403.476562 46 L 403.476562 49 L 54.726562 49 Z M 54.726562 46 "/>
</clipPath>
<clipPath id="clip15">
  <path d="M 54.726562 15 L 403.476562 15 L 403.476562 18 L 54.726562 18 Z M 54.726562 15 "/>
</clipPath>
</defs>
<g id="surface1">
<path style=" stroke:none;fill-rule:nonzero;fill:rgb(100%,100%,100%);fill-opacity:1;" d="M 54.726562 178.875 L 403.476562 178.875 L 403.476562 9 L 54.726562 9 Z M 54.726562 178.875 "/>
<g clip-path="url(#clip1)" clip-rule="nonzero">
<path style="fill:none;stroke-width:0.8;stroke-linecap:square;stroke-linejoin:round;stroke:rgb(69.019608%,69.019608%,69.019608%);stroke-opacity:1;stroke-miterlimit:4;" d="M 56.4625 143.1 L 56.4625 7.2 " transform="matrix(1.25,0,0,1.25,0,0)"/>
</g>
<path style="fill:none;stroke-width:0.8;stroke-linecap:butt;stroke-linejoin:round;stroke:rgb(0%,0%,0%);stroke-opacity:1;stroke-miterlimit:4;" d="M -0.000568 0 L -0.000568 3.5 " transform="matrix(1.25,0,0,1.25,70.578835,178.875)"/>
<path style=" stroke:none;fill-rule:nonzero;fill:rgb(0%,0%,0%);fill-opacity:1;" d="M 62.6875 192.6875 L 70.511719 192.6875 L 70.511719 193.722656 L 62.6875 193.722656 Z M 62.6875 192.6875 "/>
<path style=" stroke:none;fill-rule:nonzero;fill:rgb(0%,0%,0%);fill-opacity:1;" d="M 75.8125 192.796875 C 75.226562 192.796875 74.765625 192.953125 74.429688 193.265625 C 74.09375 193.578125 73.925781 194.011719 73.925781 194.558594 C 73.925781 195.109375 74.09375 195.539062 74.429688 195.855469 C 74.765625 196.167969 75.226562 196.324219 75.8125 196.324219 C 76.398438 196.324219 76.859375 196.167969 77.195312 195.851562 C 77.535156 195.535156 77.703125 195.105469 77.703125 194.558594 C 77.703125 194.011719 77.535156 193.578125 77.199219 193.265625 C 76.867188 192.953125 76.402344 192.796875 75.8125 192.796875 Z M 74.578125 192.273438 C 74.050781 192.140625 73.636719 191.894531 73.34375 191.535156 C 73.046875 191.171875 72.902344 190.726562 72.902344 190.207031 C 72.902344 189.480469 73.160156 188.902344 73.679688 188.480469 C 74.199219 188.058594 74.910156 187.847656 75.8125 187.847656 C 76.71875 187.847656 77.429688 188.058594 77.949219 188.480469 C 78.464844 188.902344 78.722656 189.480469 78.722656 190.207031 C 78.722656 190.726562 78.574219 191.171875 78.28125 191.535156 C 77.984375 191.894531 77.578125 192.140625 77.050781 192.273438 C 77.644531 192.410156 78.109375 192.679688 78.4375 193.085938 C 78.769531 193.488281 78.9375 193.976562 78.9375 194.558594 C 78.9375 195.441406 78.667969 196.121094 78.128906 196.59375 C 77.589844 197.066406 76.816406 197.300781 75.8125 197.300781 C 74.808594 197.300781 74.035156 197.066406 73.496094 196.59375 C 72.957031 196.121094 72.6875 195.441406 72.6875 194.558594 C 72.6875 193.976562 72.851562 193.488281 73.1875 193.085938 C 73.519531 192.679688 73.984375 192.410156 74.578125 192.273438 Z M 74.128906 190.324219 C 74.128906 190.796875 74.273438 191.164062 74.570312 191.429688 C 74.863281 191.691406 75.277344 191.824219 75.8125 191.824219 C 76.339844 191.824219 76.753906 191.691406 77.054688 191.429688 C 77.351562 191.164062 77.503906 190.796875 77.503906 190.324219 C 77.503906 189.851562 77.351562 189.484375 77.054688 189.21875 C 76.753906 188.953125 76.339844 188.824219 75.8125 188.824219 C 75.277344 188.824219 74.863281 188.953125 74.570312 189.21875 C 74.273438 189.484375 74.128906 189.851562 74.128906 190.324219 Z M 74.128906 190.324219 "/>
<g clip-path="url(#clip2)" clip-rule="nonzero">
<path style="fill:none;stroke-width:0.8;stroke-linecap:square;stroke-linejoin:round;stroke:rgb(69.019608%,69.019608%,69.019608%);stroke-opacity:1;stroke-miterlimit:4;" d="M 88.365625 143.1 L 88.365625 7.2 " transform="matrix(1.25,0,0,1.25,0,0)"/>
</g>
<path style="fill:none;stroke-width:0.8;stroke-linecap:butt;stroke-linejoin:round;stroke:rgb(0%,0%,0%);stroke-opacity:1;stroke-miterlimit:4;" d="M -0.001389 0 L -0.001389 3.5 " transform="matrix(1.25,0,0,1.25,110.458767,178.875)"/>
<path style=" stroke:none;fill-rule:nonzero;fill:rgb(0%,0%,0%);fill-opacity:1;" d="M 102.570312 192.6875 L 110.394531 192.6875 L 110.394531 193.722656 L 102.570312 193.722656 Z M 102.570312 192.6875 "/>
<path style=" stroke:none;fill-rule:nonzero;fill:rgb(0%,0%,0%);fill-opacity:1;" d="M 115.84375 192.078125 C 115.292969 192.078125 114.851562 192.265625 114.527344 192.644531 C 114.207031 193.023438 114.042969 193.539062 114.042969 194.199219 C 114.042969 194.855469 114.207031 195.371094 114.527344 195.753906 C 114.851562 196.132812 115.292969 196.324219 115.84375 196.324219 C 116.398438 196.324219 116.835938 196.132812 117.160156 195.753906 C 117.484375 195.371094 117.644531 194.855469 117.644531 194.199219 C 117.644531 193.539062 117.484375 193.023438 117.160156 192.644531 C 116.835938 192.265625 116.398438 192.078125 115.84375 192.078125 Z M 118.292969 188.210938 L 118.292969 189.335938 C 117.984375 189.1875 117.671875 189.078125 117.355469 189 C 117.039062 188.921875 116.726562 188.882812 116.417969 188.882812 C 115.605469 188.882812 114.980469 189.15625 114.550781 189.707031 C 114.125 190.257812 113.878906 191.085938 113.816406 192.199219 C 114.058594 191.84375 114.359375 191.570312 114.71875 191.382812 C 115.082031 191.195312 115.484375 191.101562 115.917969 191.101562 C 116.832031 191.101562 117.554688 191.378906 118.085938 191.933594 C 118.617188 192.488281 118.882812 193.242188 118.882812 194.199219 C 118.882812 195.136719 118.609375 195.886719 118.054688 196.453125 C 117.5 197.019531 116.765625 197.300781 115.84375 197.300781 C 114.789062 197.300781 113.984375 196.898438 113.425781 196.089844 C 112.871094 195.28125 112.589844 194.109375 112.589844 192.578125 C 112.589844 191.136719 112.933594 189.988281 113.617188 189.132812 C 114.300781 188.273438 115.21875 187.847656 116.367188 187.847656 C 116.679688 187.847656 116.992188 187.875 117.304688 187.9375 C 117.621094 188 117.949219 188.089844 118.292969 188.210938 Z M 118.292969 188.210938 "/>
<g clip-path="url(#clip3)" clip-rule="nonzero">
<path style="fill:none;stroke-width:0.8;stroke-linecap:square;stroke-linejoin:round;stroke:rgb(69.019608%,69.019608%,69.019608%);stroke-opacity:1;stroke-miterlimit:4;" d="M 120.271875 143.1 L 120.271875 7.2 " transform="matrix(1.25,0,0,1.25,0,0)"/>
</g>
<path style="fill:none;stroke-width:0.8;stroke-linecap:butt;stroke-linejoin:round;stroke:rgb(0%,0%,0%);stroke-opacity:1;stroke-miterlimit:4;" d="M 0.000915 0 L 0.000915 3.5 " transform="matrix(1.25,0,0,1.25,150.3387,178.875)"/>
<path style=" stroke:none;fill-rule:nonzero;fill:rgb(0%,0%,0%);fill-opacity:1;" d="M 142.449219 192.6875 L 150.273438 192.6875 L 150.273438 193.722656 L 142.449219 193.722656 Z M 142.449219 192.6875 "/>
<path style=" stroke:none;fill-rule:nonzero;fill:rgb(0%,0%,0%);fill-opacity:1;" d="M 156.324219 189.085938 L 153.210938 193.949219 L 156.324219 193.949219 Z M 156 188.011719 L 157.550781 188.011719 L 157.550781 193.949219 L 158.851562 193.949219 L 158.851562 194.976562 L 157.550781 194.976562 L 157.550781 197.125 L 156.324219 197.125 L 156.324219 194.976562 L 152.210938 194.976562 L 152.210938 193.785156 Z M 156 188.011719 "/>
<g clip-path="url(#clip4)" clip-rule="nonzero">
<path style="fill:none;stroke-width:0.8;stroke-linecap:square;stroke-linejoin:round;stroke:rgb(69.019608%,69.019608%,69.019608%);stroke-opacity:1;stroke-miterlimit:4;" d="M 152.175 143.1 L 152.175 7.2 " transform="matrix(1.25,0,0,1.25,0,0)"/>
</g>
<path style="fill:none;stroke-width:0.8;stroke-linecap:butt;stroke-linejoin:round;stroke:rgb(0%,0%,0%);stroke-opacity:1;stroke-miterlimit:4;" d="M 0.000094 0 L 0.000094 3.5 " transform="matrix(1.25,0,0,1.25,190.218632,178.875)"/>
<path style=" stroke:none;fill-rule:nonzero;fill:rgb(0%,0%,0%);fill-opacity:1;" d="M 182.328125 192.6875 L 190.152344 192.6875 L 190.152344 193.722656 L 182.328125 193.722656 Z M 182.328125 192.6875 "/>
<path style=" stroke:none;fill-rule:nonzero;fill:rgb(0%,0%,0%);fill-opacity:1;" d="M 193.875 196.085938 L 198.179688 196.085938 L 198.179688 197.125 L 192.394531 197.125 L 192.394531 196.085938 C 192.863281 195.601562 193.5 194.953125 194.304688 194.136719 C 195.113281 193.320312 195.621094 192.792969 195.828125 192.558594 C 196.222656 192.113281 196.5 191.738281 196.65625 191.433594 C 196.8125 191.125 196.890625 190.824219 196.890625 190.527344 C 196.890625 190.042969 196.722656 189.648438 196.382812 189.34375 C 196.042969 189.035156 195.601562 188.882812 195.054688 188.882812 C 194.667969 188.882812 194.257812 188.949219 193.828125 189.085938 C 193.402344 189.21875 192.941406 189.421875 192.453125 189.695312 L 192.453125 188.449219 C 192.949219 188.25 193.414062 188.101562 193.84375 188 C 194.277344 187.898438 194.671875 187.847656 195.03125 187.847656 C 195.976562 187.847656 196.726562 188.082031 197.289062 188.554688 C 197.851562 189.027344 198.128906 189.65625 198.128906 190.445312 C 198.128906 190.820312 198.058594 191.175781 197.917969 191.511719 C 197.78125 191.847656 197.523438 192.242188 197.152344 192.699219 C 197.050781 192.816406 196.730469 193.15625 196.183594 193.722656 C 195.640625 194.285156 194.871094 195.074219 193.875 196.085938 Z M 193.875 196.085938 "/>
<g clip-path="url(#clip5)" clip-rule="nonzero">
<path style="fill:none;stroke-width:0.8;stroke-linecap:square;stroke-linejoin:round;stroke:rgb(69.019608%,69.019608%,69.019608%);stroke-opacity:1;stroke-miterlimit:4;" d="M 184.078125 143.1 L 184.078125 7.2 " transform="matrix(1.25,0,0,1.25,0,0)"/>
</g>
<path style="fill:none;stroke-width:0.8;stroke-linecap:butt;stroke-linejoin:round;stroke:rgb(0%,0%,0%);stroke-opacity:1;stroke-miterlimit:4;" d="M -0.000727 0 L -0.000727 3.5 " transform="matrix(1.25,0,0,1.25,230.098565,178.875)"/>
<path style=" stroke:none;fill-rule:nonzero;fill:rgb(0%,0%,0%);fill-opacity:1;" d="M 230.09375 188.824219 C 229.460938 188.824219 228.984375 189.136719 228.664062 189.761719 C 228.34375 190.382812 228.183594 191.324219 228.183594 192.578125 C 228.183594 193.824219 228.34375 194.761719 228.664062 195.386719 C 228.984375 196.011719 229.460938 196.324219 230.09375 196.324219 C 230.734375 196.324219 231.214844 196.011719 231.53125 195.386719 C 231.851562 194.761719 232.011719 193.824219 232.011719 192.578125 C 232.011719 191.324219 231.851562 190.382812 231.53125 189.761719 C 231.214844 189.136719 230.734375 188.824219 230.09375 188.824219 Z M 230.09375 187.847656 C 231.117188 187.847656 231.898438 188.25 232.4375 189.058594 C 232.976562 189.867188 233.246094 191.039062 233.246094 192.578125 C 233.246094 194.109375 232.976562 195.28125 232.4375 196.089844 C 231.898438 196.898438 231.117188 197.300781 230.09375 197.300781 C 229.074219 197.300781 228.292969 196.898438 227.753906 196.089844 C 227.214844 195.28125 226.945312 194.109375 226.945312 192.578125 C 226.945312 191.039062 227.214844 189.867188 227.753906 189.058594 C 228.292969 188.25 229.074219 187.847656 230.09375 187.847656 Z M 230.09375 187.847656 "/>
<g clip-path="url(#clip6)" clip-rule="nonzero">
<path style="fill:none;stroke-width:0.8;stroke-linecap:square;stroke-linejoin:round;stroke:rgb(69.019608%,69.019608%,69.019608%);stroke-opacity:1;stroke-miterlimit:4;" d="M 215.98125 143.1 L 215.98125 7.2 " transform="matrix(1.25,0,0,1.25,0,0)"/>
</g>
<path style="fill:none;stroke-width:0.8;stroke-linecap:butt;stroke-linejoin:round;stroke:rgb(0%,0%,0%);stroke-opacity:1;stroke-miterlimit:4;" d="M -0.001548 0 L -0.001548 3.5 " transform="matrix(1.25,0,0,1.25,269.978498,178.875)"/>
<path style=" stroke:none;fill-rule:nonzero;fill:rgb(0%,0%,0%);fill-opacity:1;" d="M 268.398438 196.085938 L 272.703125 196.085938 L 272.703125 197.125 L 266.917969 197.125 L 266.917969 196.085938 C 267.386719 195.601562 268.023438 194.953125 268.828125 194.136719 C 269.636719 193.320312 270.144531 192.792969 270.351562 192.558594 C 270.746094 192.113281 271.023438 191.738281 271.179688 191.433594 C 271.335938 191.125 271.414062 190.824219 271.414062 190.527344 C 271.414062 190.042969 271.246094 189.648438 270.90625 189.34375 C 270.566406 189.035156 270.125 188.882812 269.578125 188.882812 C 269.191406 188.882812 268.78125 188.949219 268.351562 189.085938 C 267.925781 189.21875 267.464844 189.421875 266.976562 189.695312 L 266.976562 188.449219 C 267.472656 188.25 267.9375 188.101562 268.367188 188 C 268.800781 187.898438 269.195312 187.847656 269.554688 187.847656 C 270.5 187.847656 271.25 188.082031 271.8125 188.554688 C 272.375 189.027344 272.652344 189.65625 272.652344 190.445312 C 272.652344 190.820312 272.582031 191.175781 272.441406 191.511719 C 272.304688 191.847656 272.046875 192.242188 271.675781 192.699219 C 271.574219 192.816406 271.253906 193.15625 270.707031 193.722656 C 270.164062 194.285156 269.394531 195.074219 268.398438 196.085938 Z M 268.398438 196.085938 "/>
<g clip-path="url(#clip7)" clip-rule="nonzero">
<path style="fill:none;stroke-width:0.8;stroke-linecap:square;stroke-linejoin:round;stroke:rgb(69.019608%,69.019608%,69.019608%);stroke-opacity:1;stroke-miterlimit:4;" d="M 247.8875 143.1 L 247.8875 7.2 " transform="matrix(1.25,0,0,1.25,0,0)"/>
</g>
<path style="fill:none;stroke-width:0.8;stroke-linecap:butt;stroke-linejoin:round;stroke:rgb(0%,0%,0%);stroke-opacity:1;stroke-miterlimit:4;" d="M 0.000757 0 L 0.000757 3.5 " transform="matrix(1.25,0,0,1.25,309.858429,178.875)"/>
<path style=" stroke:none;fill-rule:nonzero;fill:rgb(0%,0%,0%);fill-opacity:1;" d="M 310.605469 189.085938 L 307.492188 193.949219 L 310.605469 193.949219 Z M 310.28125 188.011719 L 311.832031 188.011719 L 311.832031 193.949219 L 313.132812 193.949219 L 313.132812 194.976562 L 311.832031 194.976562 L 311.832031 197.125 L 310.605469 197.125 L 310.605469 194.976562 L 306.492188 194.976562 L 306.492188 193.785156 Z M 310.28125 188.011719 "/>
<g clip-path="url(#clip8)" clip-rule="nonzero">
<path style="fill:none;stroke-width:0.8;stroke-linecap:square;stroke-linejoin:round;stroke:rgb(69.019608%,69.019608%,69.019608%);stroke-opacity:1;stroke-miterlimit:4;" d="M 279.790625 143.1 L 279.790625 7.2 " transform="matrix(1.25,0,0,1.25,0,0)"/>
</g>
<path style="fill:none;stroke-width:0.8;stroke-linecap:butt;stroke-linejoin:round;stroke:rgb(0%,0%,0%);stroke-opacity:1;stroke-miterlimit:4;" d="M -0.000064 0 L -0.000064 3.5 " transform="matrix(1.25,0,0,1.25,349.738361,178.875)"/>
<path style=" stroke:none;fill-rule:nonzero;fill:rgb(0%,0%,0%);fill-opacity:1;" d="M 349.890625 192.078125 C 349.335938 192.078125 348.898438 192.265625 348.574219 192.644531 C 348.25 193.023438 348.089844 193.539062 348.089844 194.199219 C 348.089844 194.855469 348.25 195.371094 348.574219 195.753906 C 348.898438 196.132812 349.335938 196.324219 349.890625 196.324219 C 350.441406 196.324219 350.878906 196.132812 351.203125 195.753906 C 351.527344 195.371094 351.6875 194.855469 351.6875 194.199219 C 351.6875 193.539062 351.527344 193.023438 351.203125 192.644531 C 350.878906 192.265625 350.441406 192.078125 349.890625 192.078125 Z M 352.335938 188.210938 L 352.335938 189.335938 C 352.027344 189.1875 351.714844 189.078125 351.398438 189 C 351.082031 188.921875 350.769531 188.882812 350.460938 188.882812 C 349.648438 188.882812 349.027344 189.15625 348.597656 189.707031 C 348.167969 190.257812 347.921875 191.085938 347.863281 192.199219 C 348.101562 191.84375 348.402344 191.570312 348.765625 191.382812 C 349.128906 191.195312 349.527344 191.101562 349.960938 191.101562 C 350.875 191.101562 351.601562 191.378906 352.132812 191.933594 C 352.664062 192.488281 352.929688 193.242188 352.929688 194.199219 C 352.929688 195.136719 352.652344 195.886719 352.097656 196.453125 C 351.542969 197.019531 350.808594 197.300781 349.890625 197.300781 C 348.835938 197.300781 348.027344 196.898438 347.472656 196.089844 C 346.914062 195.28125 346.636719 194.109375 346.636719 192.578125 C 346.636719 191.136719 346.976562 189.988281 347.660156 189.132812 C 348.34375 188.273438 349.261719 187.847656 350.414062 187.847656 C 350.722656 187.847656 351.035156 187.875 351.351562 187.9375 C 351.664062 188 351.992188 188.089844 352.335938 188.210938 Z M 352.335938 188.210938 "/>
<g clip-path="url(#clip9)" clip-rule="nonzero">
<path style="fill:none;stroke-width:0.8;stroke-linecap:square;stroke-linejoin:round;stroke:rgb(69.019608%,69.019608%,69.019608%);stroke-opacity:1;stroke-miterlimit:4;" d="M 311.69375 143.1 L 311.69375 7.2 " transform="matrix(1.25,0,0,1.25,0,0)"/>
</g>
<path style="fill:none;stroke-width:0.8;stroke-linecap:butt;stroke-linejoin:round;stroke:rgb(0%,0%,0%);stroke-opacity:1;stroke-miterlimit:4;" d="M -0.000885 0 L -0.000885 3.5 " transform="matrix(1.25,0,0,1.25,389.618294,178.875)"/>
<path style=" stroke:none;fill-rule:nonzero;fill:rgb(0%,0%,0%);fill-opacity:1;" d="M 389.613281 192.796875 C 389.027344 192.796875 388.566406 192.953125 388.230469 193.265625 C 387.898438 193.578125 387.730469 194.011719 387.730469 194.558594 C 387.730469 195.109375 387.898438 195.539062 388.230469 195.855469 C 388.566406 196.167969 389.027344 196.324219 389.613281 196.324219 C 390.199219 196.324219 390.660156 196.167969 391 195.851562 C 391.335938 195.535156 391.507812 195.105469 391.507812 194.558594 C 391.507812 194.011719 391.339844 193.578125 391.003906 193.265625 C 390.667969 192.953125 390.207031 192.796875 389.613281 192.796875 Z M 388.382812 192.273438 C 387.851562 192.140625 387.441406 191.894531 387.144531 191.535156 C 386.851562 191.171875 386.703125 190.726562 386.703125 190.207031 C 386.703125 189.480469 386.964844 188.902344 387.480469 188.480469 C 388 188.058594 388.710938 187.847656 389.613281 187.847656 C 390.523438 187.847656 391.234375 188.058594 391.75 188.480469 C 392.269531 188.902344 392.527344 189.480469 392.527344 190.207031 C 392.527344 190.726562 392.378906 191.171875 392.082031 191.535156 C 391.789062 191.894531 391.378906 192.140625 390.855469 192.273438 C 391.449219 192.410156 391.910156 192.679688 392.242188 193.085938 C 392.574219 193.488281 392.738281 193.976562 392.738281 194.558594 C 392.738281 195.441406 392.46875 196.121094 391.929688 196.59375 C 391.390625 197.066406 390.621094 197.300781 389.613281 197.300781 C 388.609375 197.300781 387.839844 197.066406 387.296875 196.59375 C 386.757812 196.121094 386.488281 195.441406 386.488281 194.558594 C 386.488281 193.976562 386.65625 193.488281 386.988281 193.085938 C 387.324219 192.679688 387.789062 192.410156 388.382812 192.273438 Z M 387.929688 190.324219 C 387.929688 190.796875 388.078125 191.164062 388.371094 191.429688 C 388.667969 191.691406 389.082031 191.824219 389.613281 191.824219 C 390.144531 191.824219 390.558594 191.691406 390.855469 191.429688 C 391.15625 191.164062 391.304688 190.796875 391.304688 190.324219 C 391.304688 189.851562 391.15625 189.484375 390.855469 189.21875 C 390.558594 188.953125 390.144531 188.824219 389.613281 188.824219 C 389.082031 188.824219 388.667969 188.953125 388.371094 189.21875 C 388.078125 189.484375 387.929688 189.851562 387.929688 190.324219 Z M 387.929688 190.324219 "/>
<path style=" stroke:none;fill-rule:nonzero;fill:rgb(0%,0%,0%);fill-opacity:1;" d="M 232.265625 207.386719 L 229.789062 210.710938 L 232.390625 214.222656 L 231.066406 214.222656 L 229.078125 211.535156 L 227.085938 214.222656 L 225.761719 214.222656 L 228.417969 210.644531 L 225.988281 207.386719 L 227.3125 207.386719 L 229.125 209.820312 L 230.9375 207.386719 Z M 232.265625 207.386719 "/>
<g clip-path="url(#clip10)" clip-rule="nonzero">
<path style="fill:none;stroke-width:0.8;stroke-linecap:square;stroke-linejoin:round;stroke:rgb(69.019608%,69.019608%,69.019608%);stroke-opacity:1;stroke-miterlimit:4;" d="M 43.78125 136.965625 L 322.78125 136.965625 " transform="matrix(1.25,0,0,1.25,0,0)"/>
</g>
<path style="fill:none;stroke-width:0.8;stroke-linecap:butt;stroke-linejoin:round;stroke:rgb(0%,0%,0%);stroke-opacity:1;stroke-miterlimit:4;" d="M 0 0.001437 L -3.5 0.001437 " transform="matrix(1.25,0,0,1.25,54.726562,171.205235)"/>
<path style=" stroke:none;fill-rule:nonzero;fill:rgb(0%,0%,0%);fill-opacity:1;" d="M 30.070312 167.652344 C 29.4375 167.652344 28.960938 167.964844 28.640625 168.589844 C 28.320312 169.214844 28.160156 170.152344 28.160156 171.40625 C 28.160156 172.65625 28.320312 173.59375 28.640625 174.21875 C 28.960938 174.84375 29.4375 175.15625 30.070312 175.15625 C 30.710938 175.15625 31.1875 174.84375 31.507812 174.21875 C 31.828125 173.59375 31.988281 172.65625 31.988281 171.40625 C 31.988281 170.152344 31.828125 169.214844 31.507812 168.589844 C 31.1875 167.964844 30.710938 167.652344 30.070312 167.652344 Z M 30.070312 166.675781 C 31.09375 166.675781 31.875 167.082031 32.414062 167.890625 C 32.953125 168.695312 33.21875 169.871094 33.21875 171.40625 C 33.21875 172.941406 32.953125 174.113281 32.414062 174.921875 C 31.875 175.726562 31.09375 176.132812 30.070312 176.132812 C 29.050781 176.132812 28.269531 175.726562 27.730469 174.921875 C 27.191406 174.113281 26.921875 172.941406 26.921875 171.40625 C 26.921875 169.871094 27.191406 168.695312 27.730469 167.890625 C 28.269531 167.082031 29.050781 166.675781 30.070312 166.675781 Z M 30.070312 166.675781 "/>
<path style=" stroke:none;fill-rule:nonzero;fill:rgb(0%,0%,0%);fill-opacity:1;" d="M 35.386719 174.402344 L 36.675781 174.402344 L 36.675781 175.953125 L 35.386719 175.953125 Z M 35.386719 174.402344 "/>
<path style=" stroke:none;fill-rule:nonzero;fill:rgb(0%,0%,0%);fill-opacity:1;" d="M 41.996094 167.652344 C 41.363281 167.652344 40.886719 167.964844 40.566406 168.589844 C 40.246094 169.214844 40.085938 170.152344 40.085938 171.40625 C 40.085938 172.65625 40.246094 173.59375 40.566406 174.21875 C 40.886719 174.84375 41.363281 175.15625 41.996094 175.15625 C 42.636719 175.15625 43.113281 174.84375 43.433594 174.21875 C 43.753906 173.59375 43.914062 172.65625 43.914062 171.40625 C 43.914062 170.152344 43.753906 169.214844 43.433594 168.589844 C 43.113281 167.964844 42.636719 167.652344 41.996094 167.652344 Z M 41.996094 166.675781 C 43.019531 166.675781 43.800781 167.082031 44.339844 167.890625 C 44.878906 168.695312 45.148438 169.871094 45.148438 171.40625 C 45.148438 172.941406 44.878906 174.113281 44.339844 174.921875 C 43.800781 175.726562 43.019531 176.132812 41.996094 176.132812 C 40.976562 176.132812 40.195312 175.726562 39.65625 174.921875 C 39.117188 174.113281 38.847656 172.941406 38.847656 171.40625 C 38.847656 169.871094 39.117188 168.695312 39.65625 167.890625 C 40.195312 167.082031 40.976562 166.675781 41.996094 166.675781 Z M 41.996094 166.675781 "/>
<g clip-path="url(#clip11)" clip-rule="nonzero">
<path style="fill:none;stroke-width:0.8;stroke-linecap:square;stroke-linejoin:round;stroke:rgb(69.019608%,69.019608%,69.019608%);stroke-opacity:1;stroke-miterlimit:4;" d="M 43.78125 112.2375 L 322.78125 112.2375 " transform="matrix(1.25,0,0,1.25,0,0)"/>
</g>
<path style="fill:none;stroke-width:0.8;stroke-linecap:butt;stroke-linejoin:round;stroke:rgb(0%,0%,0%);stroke-opacity:1;stroke-miterlimit:4;" d="M 0 -0.00014 L -3.5 -0.00014 " transform="matrix(1.25,0,0,1.25,54.726562,140.29705)"/>
<path style=" stroke:none;fill-rule:nonzero;fill:rgb(0%,0%,0%);fill-opacity:1;" d="M 30.070312 136.746094 C 29.4375 136.746094 28.960938 137.058594 28.640625 137.683594 C 28.320312 138.304688 28.160156 139.246094 28.160156 140.5 C 28.160156 141.746094 28.320312 142.683594 28.640625 143.308594 C 28.960938 143.933594 29.4375 144.246094 30.070312 144.246094 C 30.710938 144.246094 31.1875 143.933594 31.507812 143.308594 C 31.828125 142.683594 31.988281 141.746094 31.988281 140.5 C 31.988281 139.246094 31.828125 138.304688 31.507812 137.683594 C 31.1875 137.058594 30.710938 136.746094 30.070312 136.746094 Z M 30.070312 135.769531 C 31.09375 135.769531 31.875 136.171875 32.414062 136.980469 C 32.953125 137.789062 33.21875 138.960938 33.21875 140.5 C 33.21875 142.03125 32.953125 143.203125 32.414062 144.011719 C 31.875 144.820312 31.09375 145.222656 30.070312 145.222656 C 29.050781 145.222656 28.269531 144.820312 27.730469 144.011719 C 27.191406 143.203125 26.921875 142.03125 26.921875 140.5 C 26.921875 138.960938 27.191406 137.789062 27.730469 136.980469 C 28.269531 136.171875 29.050781 135.769531 30.070312 135.769531 Z M 30.070312 135.769531 "/>
<path style=" stroke:none;fill-rule:nonzero;fill:rgb(0%,0%,0%);fill-opacity:1;" d="M 35.386719 143.496094 L 36.675781 143.496094 L 36.675781 145.046875 L 35.386719 145.046875 Z M 35.386719 143.496094 "/>
<path style=" stroke:none;fill-rule:nonzero;fill:rgb(0%,0%,0%);fill-opacity:1;" d="M 40.421875 144.007812 L 44.726562 144.007812 L 44.726562 145.046875 L 38.941406 145.046875 L 38.941406 144.007812 C 39.40625 143.523438 40.042969 142.875 40.851562 142.058594 C 41.660156 141.242188 42.167969 140.714844 42.375 140.480469 C 42.769531 140.035156 43.046875 139.660156 43.203125 139.355469 C 43.359375 139.046875 43.4375 138.746094 43.4375 138.449219 C 43.4375 137.964844 43.269531 137.570312 42.929688 137.265625 C 42.589844 136.957031 42.144531 136.804688 41.601562 136.804688 C 41.214844 136.804688 40.804688 136.871094 40.375 137.007812 C 39.945312 137.140625 39.488281 137.34375 39 137.617188 L 39 136.371094 C 39.496094 136.171875 39.960938 136.023438 40.390625 135.921875 C 40.824219 135.820312 41.21875 135.769531 41.578125 135.769531 C 42.519531 135.769531 43.273438 136.003906 43.835938 136.476562 C 44.394531 136.949219 44.675781 137.578125 44.675781 138.367188 C 44.675781 138.742188 44.605469 139.097656 44.464844 139.433594 C 44.324219 139.769531 44.070312 140.164062 43.699219 140.621094 C 43.597656 140.738281 43.273438 141.078125 42.730469 141.644531 C 42.183594 142.207031 41.414062 142.996094 40.421875 144.007812 Z M 40.421875 144.007812 "/>
<g clip-path="url(#clip12)" clip-rule="nonzero">
<path style="fill:none;stroke-width:0.8;stroke-linecap:square;stroke-linejoin:round;stroke:rgb(69.019608%,69.019608%,69.019608%);stroke-opacity:1;stroke-miterlimit:4;" d="M 43.78125 87.5125 L 322.78125 87.5125 " transform="matrix(1.25,0,0,1.25,0,0)"/>
</g>
<path style="fill:none;stroke-width:0.8;stroke-linecap:butt;stroke-linejoin:round;stroke:rgb(0%,0%,0%);stroke-opacity:1;stroke-miterlimit:4;" d="M 0 0.001407 L -3.5 0.001407 " transform="matrix(1.25,0,0,1.25,54.726562,109.388866)"/>
<path style=" stroke:none;fill-rule:nonzero;fill:rgb(0%,0%,0%);fill-opacity:1;" d="M 30.070312 105.835938 C 29.4375 105.835938 28.960938 106.148438 28.640625 106.773438 C 28.320312 107.398438 28.160156 108.335938 28.160156 109.589844 C 28.160156 110.839844 28.320312 111.777344 28.640625 112.402344 C 28.960938 113.027344 29.4375 113.339844 30.070312 113.339844 C 30.710938 113.339844 31.1875 113.027344 31.507812 112.402344 C 31.828125 111.777344 31.988281 110.839844 31.988281 109.589844 C 31.988281 108.335938 31.828125 107.398438 31.507812 106.773438 C 31.1875 106.148438 30.710938 105.835938 30.070312 105.835938 Z M 30.070312 104.859375 C 31.09375 104.859375 31.875 105.265625 32.414062 106.074219 C 32.953125 106.878906 33.21875 108.054688 33.21875 109.589844 C 33.21875 111.125 32.953125 112.296875 32.414062 113.105469 C 31.875 113.910156 31.09375 114.316406 30.070312 114.316406 C 29.050781 114.316406 28.269531 113.910156 27.730469 113.105469 C 27.191406 112.296875 26.921875 111.125 26.921875 109.589844 C 26.921875 108.054688 27.191406 106.878906 27.730469 106.074219 C 28.269531 105.265625 29.050781 104.859375 30.070312 104.859375 Z M 30.070312 104.859375 "/>
<path style=" stroke:none;fill-rule:nonzero;fill:rgb(0%,0%,0%);fill-opacity:1;" d="M 35.386719 112.585938 L 36.675781 112.585938 L 36.675781 114.136719 L 35.386719 114.136719 Z M 35.386719 112.585938 "/>
<path style=" stroke:none;fill-rule:nonzero;fill:rgb(0%,0%,0%);fill-opacity:1;" d="M 42.75 106.097656 L 39.636719 110.964844 L 42.75 110.964844 Z M 42.425781 105.023438 L 43.976562 105.023438 L 43.976562 110.964844 L 45.277344 110.964844 L 45.277344 111.988281 L 43.976562 111.988281 L 43.976562 114.136719 L 42.75 114.136719 L 42.75 111.988281 L 38.636719 111.988281 L 38.636719 110.800781 Z M 42.425781 105.023438 "/>
<g clip-path="url(#clip13)" clip-rule="nonzero">
<path style="fill:none;stroke-width:0.8;stroke-linecap:square;stroke-linejoin:round;stroke:rgb(69.019608%,69.019608%,69.019608%);stroke-opacity:1;stroke-miterlimit:4;" d="M 43.78125 62.784375 L 322.78125 62.784375 " transform="matrix(1.25,0,0,1.25,0,0)"/>
</g>
<path style="fill:none;stroke-width:0.8;stroke-linecap:butt;stroke-linejoin:round;stroke:rgb(0%,0%,0%);stroke-opacity:1;stroke-miterlimit:4;" d="M 0 -0.000171 L -3.5 -0.000171 " transform="matrix(1.25,0,0,1.25,54.726562,78.480683)"/>
<path style=" stroke:none;fill-rule:nonzero;fill:rgb(0%,0%,0%);fill-opacity:1;" d="M 30.070312 74.929688 C 29.4375 74.929688 28.960938 75.242188 28.640625 75.867188 C 28.320312 76.488281 28.160156 77.429688 28.160156 78.683594 C 28.160156 79.929688 28.320312 80.867188 28.640625 81.492188 C 28.960938 82.117188 29.4375 82.429688 30.070312 82.429688 C 30.710938 82.429688 31.1875 82.117188 31.507812 81.492188 C 31.828125 80.867188 31.988281 79.929688 31.988281 78.683594 C 31.988281 77.429688 31.828125 76.488281 31.507812 75.867188 C 31.1875 75.242188 30.710938 74.929688 30.070312 74.929688 Z M 30.070312 73.953125 C 31.09375 73.953125 31.875 74.355469 32.414062 75.164062 C 32.953125 75.972656 33.21875 77.144531 33.21875 78.683594 C 33.21875 80.214844 32.953125 81.386719 32.414062 82.195312 C 31.875 83.003906 31.09375 83.40625 30.070312 83.40625 C 29.050781 83.40625 28.269531 83.003906 27.730469 82.195312 C 27.191406 81.386719 26.921875 80.214844 26.921875 78.683594 C 26.921875 77.144531 27.191406 75.972656 27.730469 75.164062 C 28.269531 74.355469 29.050781 73.953125 30.070312 73.953125 Z M 30.070312 73.953125 "/>
<path style=" stroke:none;fill-rule:nonzero;fill:rgb(0%,0%,0%);fill-opacity:1;" d="M 35.386719 81.679688 L 36.675781 81.679688 L 36.675781 83.230469 L 35.386719 83.230469 Z M 35.386719 81.679688 "/>
<path style=" stroke:none;fill-rule:nonzero;fill:rgb(0%,0%,0%);fill-opacity:1;" d="M 42.152344 78.183594 C 41.597656 78.183594 41.160156 78.371094 40.835938 78.75 C 40.511719 79.128906 40.351562 79.648438 40.351562 80.304688 C 40.351562 80.960938 40.511719 81.480469 40.835938 81.859375 C 41.160156 82.242188 41.597656 82.429688 42.152344 82.429688 C 42.703125 82.429688 43.140625 82.242188 43.464844 81.859375 C 43.789062 81.480469 43.949219 80.960938 43.949219 80.304688 C 43.949219 79.648438 43.789062 79.128906 43.464844 78.75 C 43.140625 78.371094 42.703125 78.183594 42.152344 78.183594 Z M 44.597656 74.316406 L 44.597656 75.441406 C 44.289062 75.292969 43.976562 75.183594 43.660156 75.105469 C 43.34375 75.027344 43.03125 74.988281 42.722656 74.988281 C 41.910156 74.988281 41.289062 75.265625 40.859375 75.8125 C 40.429688 76.363281 40.183594 77.191406 40.125 78.304688 C 40.363281 77.949219 40.664062 77.679688 41.027344 77.488281 C 41.390625 77.300781 41.789062 77.207031 42.222656 77.207031 C 43.136719 77.207031 43.863281 77.484375 44.394531 78.039062 C 44.925781 78.59375 45.191406 79.351562 45.191406 80.304688 C 45.191406 81.242188 44.914062 81.992188 44.359375 82.558594 C 43.804688 83.125 43.070312 83.40625 42.152344 83.40625 C 41.097656 83.40625 40.289062 83.003906 39.734375 82.195312 C 39.175781 81.386719 38.898438 80.214844 38.898438 78.683594 C 38.898438 77.242188 39.238281 76.09375 39.921875 75.238281 C 40.605469 74.378906 41.523438 73.953125 42.675781 73.953125 C 42.984375 73.953125 43.296875 73.984375 43.613281 74.042969 C 43.925781 74.105469 44.253906 74.195312 44.597656 74.316406 Z M 44.597656 74.316406 "/>
<g clip-path="url(#clip14)" clip-rule="nonzero">
<path style="fill:none;stroke-width:0.8;stroke-linecap:square;stroke-linejoin:round;stroke:rgb(69.019608%,69.019608%,69.019608%);stroke-opacity:1;stroke-miterlimit:4;" d="M 43.78125 38.059375 L 322.78125 38.059375 " transform="matrix(1.25,0,0,1.25,0,0)"/>
</g>
<path style="fill:none;stroke-width:0.8;stroke-linecap:butt;stroke-linejoin:round;stroke:rgb(0%,0%,0%);stroke-opacity:1;stroke-miterlimit:4;" d="M 0 0.001376 L -3.5 0.001376 " transform="matrix(1.25,0,0,1.25,54.726562,47.572499)"/>
<path style=" stroke:none;fill-rule:nonzero;fill:rgb(0%,0%,0%);fill-opacity:1;" d="M 30.070312 44.019531 C 29.4375 44.019531 28.960938 44.332031 28.640625 44.957031 C 28.320312 45.582031 28.160156 46.519531 28.160156 47.773438 C 28.160156 49.023438 28.320312 49.960938 28.640625 50.585938 C 28.960938 51.210938 29.4375 51.523438 30.070312 51.523438 C 30.710938 51.523438 31.1875 51.210938 31.507812 50.585938 C 31.828125 49.960938 31.988281 49.023438 31.988281 47.773438 C 31.988281 46.519531 31.828125 45.582031 31.507812 44.957031 C 31.1875 44.332031 30.710938 44.019531 30.070312 44.019531 Z M 30.070312 43.042969 C 31.09375 43.042969 31.875 43.449219 32.414062 44.257812 C 32.953125 45.0625 33.21875 46.238281 33.21875 47.773438 C 33.21875 49.308594 32.953125 50.480469 32.414062 51.289062 C 31.875 52.09375 31.09375 52.5 30.070312 52.5 C 29.050781 52.5 28.269531 52.09375 27.730469 51.289062 C 27.191406 50.480469 26.921875 49.308594 26.921875 47.773438 C 26.921875 46.238281 27.191406 45.0625 27.730469 44.257812 C 28.269531 43.449219 29.050781 43.042969 30.070312 43.042969 Z M 30.070312 43.042969 "/>
<path style=" stroke:none;fill-rule:nonzero;fill:rgb(0%,0%,0%);fill-opacity:1;" d="M 35.386719 50.769531 L 36.675781 50.769531 L 36.675781 52.320312 L 35.386719 52.320312 Z M 35.386719 50.769531 "/>
<path style=" stroke:none;fill-rule:nonzero;fill:rgb(0%,0%,0%);fill-opacity:1;" d="M 41.996094 47.992188 C 41.410156 47.992188 40.949219 48.148438 40.613281 48.464844 C 40.277344 48.777344 40.113281 49.207031 40.113281 49.757812 C 40.113281 50.304688 40.277344 50.738281 40.613281 51.050781 C 40.949219 51.367188 41.410156 51.523438 41.996094 51.523438 C 42.582031 51.523438 43.042969 51.363281 43.382812 51.050781 C 43.71875 50.734375 43.890625 50.300781 43.890625 49.757812 C 43.890625 49.207031 43.722656 48.777344 43.386719 48.464844 C 43.050781 48.148438 42.585938 47.992188 41.996094 47.992188 Z M 40.765625 47.46875 C 40.234375 47.339844 39.824219 47.09375 39.527344 46.730469 C 39.234375 46.367188 39.085938 45.925781 39.085938 45.40625 C 39.085938 44.675781 39.34375 44.101562 39.863281 43.679688 C 40.382812 43.253906 41.09375 43.042969 41.996094 43.042969 C 42.902344 43.042969 43.617188 43.253906 44.132812 43.679688 C 44.648438 44.101562 44.910156 44.675781 44.910156 45.40625 C 44.910156 45.925781 44.761719 46.367188 44.464844 46.730469 C 44.171875 47.09375 43.761719 47.339844 43.238281 47.46875 C 43.832031 47.609375 44.292969 47.878906 44.625 48.28125 C 44.957031 48.683594 45.121094 49.175781 45.121094 49.757812 C 45.121094 50.640625 44.851562 51.320312 44.3125 51.792969 C 43.773438 52.261719 43 52.5 41.996094 52.5 C 40.992188 52.5 40.21875 52.261719 39.679688 51.792969 C 39.140625 51.320312 38.871094 50.640625 38.871094 49.757812 C 38.871094 49.175781 39.039062 48.683594 39.371094 48.28125 C 39.707031 47.878906 40.171875 47.609375 40.765625 47.46875 Z M 40.3125 45.523438 C 40.3125 45.992188 40.460938 46.363281 40.753906 46.625 C 41.050781 46.890625 41.464844 47.023438 41.996094 47.023438 C 42.527344 47.023438 42.941406 46.890625 43.238281 46.625 C 43.539062 46.363281 43.6875 45.992188 43.6875 45.523438 C 43.6875 45.050781 43.539062 44.679688 43.238281 44.417969 C 42.941406 44.152344 42.527344 44.019531 41.996094 44.019531 C 41.464844 44.019531 41.050781 44.152344 40.753906 44.417969 C 40.460938 44.679688 40.3125 45.050781 40.3125 45.523438 Z M 40.3125 45.523438 "/>
<g clip-path="url(#clip15)" clip-rule="nonzero">
<path style="fill:none;stroke-width:0.8;stroke-linecap:square;stroke-linejoin:round;stroke:rgb(69.019608%,69.019608%,69.019608%);stroke-opacity:1;stroke-miterlimit:4;" d="M 43.78125 13.33125 L 322.78125 13.33125 " transform="matrix(1.25,0,0,1.25,0,0)"/>
</g>
<path style="fill:none;stroke-width:0.8;stroke-linecap:butt;stroke-linejoin:round;stroke:rgb(0%,0%,0%);stroke-opacity:1;stroke-miterlimit:4;" d="M 0 -0.000202 L -3.5 -0.000202 " transform="matrix(1.25,0,0,1.25,54.726562,16.664315)"/>
<path style=" stroke:none;fill-rule:nonzero;fill:rgb(0%,0%,0%);fill-opacity:1;" d="M 27.648438 20.375 L 29.664062 20.375 L 29.664062 13.421875 L 27.46875 13.863281 L 27.46875 12.738281 L 29.648438 12.300781 L 30.882812 12.300781 L 30.882812 20.375 L 32.898438 20.375 L 32.898438 21.414062 L 27.648438 21.414062 Z M 27.648438 20.375 "/>
<path style=" stroke:none;fill-rule:nonzero;fill:rgb(0%,0%,0%);fill-opacity:1;" d="M 35.386719 19.863281 L 36.675781 19.863281 L 36.675781 21.414062 L 35.386719 21.414062 Z M 35.386719 19.863281 "/>
<path style=" stroke:none;fill-rule:nonzero;fill:rgb(0%,0%,0%);fill-opacity:1;" d="M 41.996094 13.113281 C 41.363281 13.113281 40.886719 13.425781 40.566406 14.050781 C 40.246094 14.671875 40.085938 15.613281 40.085938 16.867188 C 40.085938 18.113281 40.246094 19.050781 40.566406 19.675781 C 40.886719 20.300781 41.363281 20.613281 41.996094 20.613281 C 42.636719 20.613281 43.113281 20.300781 43.433594 19.675781 C 43.753906 19.050781 43.914062 18.113281 43.914062 16.867188 C 43.914062 15.613281 43.753906 14.671875 43.433594 14.050781 C 43.113281 13.425781 42.636719 13.113281 41.996094 13.113281 Z M 41.996094 12.136719 C 43.019531 12.136719 43.800781 12.539062 44.339844 13.347656 C 44.878906 14.15625 45.148438 15.328125 45.148438 16.867188 C 45.148438 18.398438 44.878906 19.570312 44.339844 20.378906 C 43.800781 21.1875 43.019531 21.589844 41.996094 21.589844 C 40.976562 21.589844 40.195312 21.1875 39.65625 20.378906 C 39.117188 19.570312 38.847656 18.398438 38.847656 16.867188 C 38.847656 15.328125 39.117188 14.15625 39.65625 13.347656 C 40.195312 12.539062 40.976562 12.136719 41.996094 12.136719 Z M 41.996094 12.136719 "/>
<path style=" stroke:none;fill-rule:nonzero;fill:rgb(0%,0%,0%);fill-opacity:1;" d="M 11.863281 121.554688 L 12.925781 121.554688 C 12.761719 121.871094 12.640625 122.199219 12.5625 122.542969 C 12.480469 122.882812 12.4375 123.238281 12.4375 123.605469 C 12.4375 124.164062 12.523438 124.582031 12.695312 124.859375 C 12.863281 125.136719 13.121094 125.277344 13.464844 125.277344 C 13.722656 125.277344 13.929688 125.179688 14.078125 124.976562 C 14.226562 124.78125 14.367188 124.378906 14.5 123.773438 L 14.585938 123.390625 C 14.757812 122.59375 14.996094 122.027344 15.308594 121.691406 C 15.621094 121.355469 16.054688 121.1875 16.613281 121.1875 C 17.246094 121.1875 17.75 121.4375 18.121094 121.941406 C 18.492188 122.445312 18.675781 123.132812 18.675781 124.015625 C 18.675781 124.378906 18.640625 124.761719 18.570312 125.15625 C 18.496094 125.554688 18.390625 125.972656 18.25 126.414062 L 17.089844 126.414062 C 17.304688 125.996094 17.464844 125.585938 17.574219 125.1875 C 17.679688 124.78125 17.734375 124.382812 17.734375 123.988281 C 17.734375 123.460938 17.644531 123.054688 17.464844 122.769531 C 17.28125 122.484375 17.027344 122.34375 16.699219 122.34375 C 16.394531 122.34375 16.160156 122.445312 15.996094 122.648438 C 15.832031 122.855469 15.675781 123.304688 15.527344 124 L 15.433594 124.390625 C 15.289062 125.085938 15.0625 125.589844 14.761719 125.898438 C 14.457031 126.210938 14.039062 126.363281 13.511719 126.363281 C 12.867188 126.363281 12.371094 126.136719 12.023438 125.679688 C 11.671875 125.222656 11.5 124.578125 11.5 123.738281 C 11.5 123.324219 11.527344 122.933594 11.589844 122.570312 C 11.648438 122.203125 11.742188 121.863281 11.863281 121.554688 Z M 11.863281 121.554688 "/>
<path style=" stroke:none;fill-rule:nonzero;fill:rgb(0%,0%,0%);fill-opacity:1;" d="M 11.664062 119.398438 L 11.664062 118.277344 L 18.5 118.277344 L 18.5 119.398438 Z M 9 119.398438 L 9 118.277344 L 10.425781 118.277344 L 10.425781 119.398438 Z M 9 119.398438 "/>
<path style=" stroke:none;fill-rule:nonzero;fill:rgb(0%,0%,0%);fill-opacity:1;" d="M 15 111.429688 C 14.1875 111.429688 13.554688 111.597656 13.109375 111.933594 C 12.660156 112.265625 12.4375 112.738281 12.4375 113.34375 C 12.4375 113.945312 12.660156 114.414062 13.109375 114.75 C 13.554688 115.085938 14.1875 115.253906 15 115.253906 C 15.808594 115.253906 16.4375 115.085938 16.886719 114.75 C 17.335938 114.414062 17.558594 113.945312 17.558594 113.34375 C 17.558594 112.738281 17.335938 112.265625 16.886719 111.933594 C 16.4375 111.597656 15.808594 111.429688 15 111.429688 Z M 17.652344 110.304688 C 18.8125 110.304688 19.679688 110.5625 20.246094 111.082031 C 20.8125 111.597656 21.097656 112.386719 21.097656 113.453125 C 21.097656 113.847656 21.070312 114.222656 21.011719 114.570312 C 20.953125 114.921875 20.859375 115.261719 20.738281 115.589844 L 19.648438 115.589844 C 19.824219 115.261719 19.957031 114.9375 20.042969 114.613281 C 20.128906 114.292969 20.171875 113.964844 20.171875 113.632812 C 20.171875 112.894531 19.976562 112.34375 19.59375 111.976562 C 19.210938 111.613281 18.628906 111.429688 17.851562 111.429688 L 17.296875 111.429688 C 17.699219 111.660156 18 111.957031 18.199219 112.320312 C 18.398438 112.679688 18.5 113.113281 18.5 113.621094 C 18.5 114.457031 18.179688 115.132812 17.542969 115.644531 C 16.902344 116.160156 16.054688 116.414062 15 116.414062 C 13.941406 116.414062 13.09375 116.160156 12.457031 115.644531 C 11.816406 115.132812 11.5 114.457031 11.5 113.621094 C 11.5 113.113281 11.597656 112.679688 11.796875 112.320312 C 11.996094 111.957031 12.296875 111.660156 12.699219 111.429688 L 11.664062 111.429688 L 11.664062 110.304688 Z M 17.652344 110.304688 "/>
<path style=" stroke:none;fill-rule:nonzero;fill:rgb(0%,0%,0%);fill-opacity:1;" d="M 12.976562 102.671875 C 12.46875 102.390625 12.097656 102.054688 11.859375 101.664062 C 11.617188 101.273438 11.5 100.8125 11.5 100.28125 C 11.5 99.570312 11.746094 99.023438 12.246094 98.632812 C 12.742188 98.25 13.453125 98.054688 14.371094 98.054688 L 18.5 98.054688 L 18.5 99.183594 L 14.410156 99.183594 C 13.753906 99.183594 13.269531 99.300781 12.953125 99.53125 C 12.632812 99.765625 12.476562 100.117188 12.476562 100.59375 C 12.476562 101.175781 12.667969 101.636719 13.054688 101.976562 C 13.441406 102.3125 13.96875 102.480469 14.636719 102.480469 L 18.5 102.480469 L 18.5 103.609375 L 14.410156 103.609375 C 13.75 103.609375 13.261719 103.726562 12.949219 103.957031 C 12.632812 104.1875 12.476562 104.546875 12.476562 105.03125 C 12.476562 105.605469 12.667969 106.0625 13.058594 106.398438 C 13.445312 106.738281 13.972656 106.90625 14.636719 106.90625 L 18.5 106.90625 L 18.5 108.035156 L 11.664062 108.035156 L 11.664062 106.90625 L 12.726562 106.90625 C 12.304688 106.648438 11.996094 106.34375 11.796875 105.984375 C 11.597656 105.625 11.5 105.203125 11.5 104.710938 C 11.5 104.210938 11.625 103.789062 11.878906 103.441406 C 12.128906 103.09375 12.496094 102.835938 12.976562 102.671875 Z M 12.976562 102.671875 "/>
<path style=" stroke:none;fill-rule:nonzero;fill:rgb(0%,0%,0%);fill-opacity:1;" d="M 12.449219 93.167969 C 12.449219 93.769531 12.683594 94.246094 13.15625 94.59375 C 13.625 94.945312 14.269531 95.121094 15.085938 95.121094 C 15.902344 95.121094 16.546875 94.945312 17.019531 94.597656 C 17.488281 94.25 17.722656 93.773438 17.722656 93.167969 C 17.722656 92.566406 17.488281 92.09375 17.015625 91.746094 C 16.542969 91.394531 15.898438 91.21875 15.085938 91.21875 C 14.277344 91.21875 13.632812 91.394531 13.160156 91.746094 C 12.6875 92.09375 12.449219 92.566406 12.449219 93.167969 Z M 11.5 93.167969 C 11.5 92.191406 11.816406 91.421875 12.453125 90.867188 C 13.085938 90.308594 13.964844 90.027344 15.085938 90.027344 C 16.203125 90.027344 17.082031 90.308594 17.722656 90.867188 C 18.359375 91.421875 18.675781 92.191406 18.675781 93.167969 C 18.675781 94.148438 18.359375 94.914062 17.722656 95.472656 C 17.082031 96.027344 16.203125 96.304688 15.085938 96.304688 C 13.964844 96.304688 13.085938 96.027344 12.453125 95.472656 C 11.816406 94.914062 11.5 94.148438 11.5 93.167969 Z M 11.5 93.167969 "/>
<path style=" stroke:none;fill-rule:nonzero;fill:rgb(0%,0%,0%);fill-opacity:1;" d="M 11.664062 88.167969 L 11.664062 87.046875 L 18.5 87.046875 L 18.5 88.167969 Z M 9 88.167969 L 9 87.046875 L 10.425781 87.046875 L 10.425781 88.167969 Z M 9 88.167969 "/>
<path style=" stroke:none;fill-rule:nonzero;fill:rgb(0%,0%,0%);fill-opacity:1;" d="M 12.699219 80.195312 L 9 80.195312 L 9 79.074219 L 18.5 79.074219 L 18.5 80.195312 L 17.472656 80.195312 C 17.878906 80.433594 18.179688 80.730469 18.378906 81.089844 C 18.578125 81.449219 18.675781 81.882812 18.675781 82.386719 C 18.675781 83.214844 18.347656 83.886719 17.6875 84.40625 C 17.027344 84.925781 16.160156 85.183594 15.085938 85.183594 C 14.011719 85.183594 13.144531 84.925781 12.488281 84.40625 C 11.828125 83.886719 11.5 83.214844 11.5 82.386719 C 11.5 81.882812 11.597656 81.449219 11.796875 81.089844 C 11.992188 80.730469 12.292969 80.433594 12.699219 80.195312 Z M 15.085938 84.023438 C 15.910156 84.023438 16.558594 83.851562 17.03125 83.511719 C 17.5 83.171875 17.734375 82.707031 17.734375 82.113281 C 17.734375 81.519531 17.5 81.050781 17.03125 80.710938 C 16.558594 80.367188 15.910156 80.195312 15.085938 80.195312 C 14.261719 80.195312 13.613281 80.367188 13.144531 80.710938 C 12.671875 81.050781 12.4375 81.519531 12.4375 82.113281 C 12.4375 82.707031 12.671875 83.171875 13.144531 83.511719 C 13.613281 83.851562 14.261719 84.023438 15.085938 84.023438 Z M 15.085938 84.023438 "/>
<path style=" stroke:none;fill-rule:nonzero;fill:rgb(0%,0%,0%);fill-opacity:1;" d="M 9.015625 74.0625 C 9.949219 74.609375 10.875 75.011719 11.792969 75.277344 C 12.707031 75.542969 13.632812 75.675781 14.574219 75.675781 C 15.511719 75.675781 16.445312 75.542969 17.367188 75.273438 C 18.289062 75.007812 19.214844 74.605469 20.148438 74.0625 L 20.148438 75.039062 C 19.191406 75.648438 18.25 76.105469 17.328125 76.410156 C 16.402344 76.710938 15.484375 76.863281 14.574219 76.863281 C 13.667969 76.863281 12.753906 76.714844 11.835938 76.414062 C 10.914062 76.109375 9.972656 75.652344 9.015625 75.039062 Z M 9.015625 74.0625 "/>
<path style=" stroke:none;fill-rule:nonzero;fill:rgb(0%,0%,0%);fill-opacity:1;" d="M 11.664062 66.199219 L 14.988281 68.671875 L 18.5 66.074219 L 18.5 67.398438 L 15.8125 69.386719 L 18.5 71.375 L 18.5 72.703125 L 14.921875 70.046875 L 11.664062 72.476562 L 11.664062 71.152344 L 14.097656 69.339844 L 11.664062 67.527344 Z M 11.664062 66.199219 "/>
<path style=" stroke:none;fill-rule:nonzero;fill:rgb(0%,0%,0%);fill-opacity:1;" d="M 9.015625 64.664062 L 9.015625 63.6875 C 9.972656 63.078125 10.914062 62.621094 11.835938 62.316406 C 12.753906 62.011719 13.667969 61.859375 14.574219 61.859375 C 15.484375 61.859375 16.402344 62.011719 17.328125 62.316406 C 18.25 62.621094 19.191406 63.078125 20.148438 63.6875 L 20.148438 64.664062 C 19.214844 64.121094 18.289062 63.71875 17.367188 63.453125 C 16.445312 63.183594 15.511719 63.050781 14.574219 63.050781 C 13.632812 63.050781 12.707031 63.183594 11.792969 63.453125 C 10.875 63.71875 9.949219 64.121094 9.015625 64.664062 Z M 9.015625 64.664062 "/>
<path style="fill:none;stroke-width:1.5;stroke-linecap:square;stroke-linejoin:round;stroke:rgb(12.156863%,46.666667%,70.588235%);stroke-opacity:1;stroke-miterlimit:4;" d="M 56.4625 136.921875 L 83.58125 136.7375 L 96.34375 136.4625 L 105.915625 136.05 L 113.890625 135.465625 L 120.271875 134.740625 L 125.05625 133.98125 L 129.840625 132.971875 L 133.03125 132.121875 L 136.221875 131.1 L 139.4125 129.878125 L 142.603125 128.415625 L 145.79375 126.68125 L 148.984375 124.63125 L 152.175 122.228125 L 155.365625 119.428125 L 158.55625 116.196875 L 161.746875 112.50625 L 164.9375 108.346875 L 168.128125 103.715625 L 171.31875 98.634375 L 174.50625 93.15625 L 179.29375 84.35 L 193.65 57.140625 L 196.840625 51.659375 L 200.03125 46.58125 L 203.221875 41.95 L 206.4125 37.7875 L 209.603125 34.1 L 212.79375 30.86875 L 215.98125 28.06875 L 219.171875 25.6625 L 222.3625 23.615625 L 225.553125 21.878125 L 228.74375 20.41875 L 231.934375 19.19375 L 235.125 18.175 L 239.909375 16.95625 L 244.696875 16.0375 L 249.48125 15.346875 L 255.8625 14.690625 L 263.8375 14.159375 L 273.409375 13.7875 L 286.171875 13.5375 L 306.909375 13.3875 L 310.1 13.378125 " transform="matrix(1.25,0,0,1.25,0,0)"/>
<path style="fill:none;stroke-width:0.8;stroke-linecap:square;stroke-linejoin:miter;stroke:rgb(0%,0%,0%);stroke-opacity:1;stroke-miterlimit:4;" d="M 43.78125 143.1 L 43.78125 7.2 " transform="matrix(1.25,0,0,1.25,0,0)"/>
<path style="fill:none;stroke-width:0.8;stroke-linecap:square;stroke-linejoin:miter;stroke:rgb(0%,0%,0%);stroke-opacity:1;stroke-miterlimit:4;" d="M 322.78125 143.1 L 322.78125 7.2 " transform="matrix(1.25,0,0,1.25,0,0)"/>
<path style="fill:none;stroke-width:0.8;stroke-linecap:square;stroke-linejoin:miter;stroke:rgb(0%,0%,0%);stroke-opacity:1;stroke-miterlimit:4;" d="M 43.78125 143.1 L 322.78125 143.1 " transform="matrix(1.25,0,0,1.25,0,0)"/>
<path style="fill:none;stroke-width:0.8;stroke-linecap:square;stroke-linejoin:miter;stroke:rgb(0%,0%,0%);stroke-opacity:1;stroke-miterlimit:4;" d="M 43.78125 7.2 L 322.78125 7.2 " transform="matrix(1.25,0,0,1.25,0,0)"/>
</g>
</svg>
