<?xml version="1.0" encoding="UTF-8"?>
<svg xmlns="http://www.w3.org/2000/svg" xmlns:xlink="http://www.w3.org/1999/xlink" width="299pt" height="226pt" viewBox="0 0 299 226" version="1.1">
<defs>
<clipPath id="clip1">
  <path d="M 64 9 L 66 9 L 66 178.875 L 64 178.875 Z M 64 9 "/>
</clipPath>
<clipPath id="clip2">
  <path d="M 118 9 L 120 9 L 120 178.875 L 118 178.875 Z M 118 9 "/>
</clipPath>
<clipPath id="clip3">
  <path d="M 172 9 L 174 9 L 174 178.875 L 172 178.875 Z M 172 9 "/>
</clipPath>
<clipPath id="clip4">
  <path d="M 226 9 L 229 9 L 229 178.875 L 226 178.875 Z M 226 9 "/>
</clipPath>
<clipPath id="clip5">
  <path d="M 281 9 L 281.753906 9 L 281.753906 178.875 L 281 178.875 Z M 281 9 "/>
</clipPath>
<clipPath id="clip6">
  <path d="M 37.628906 149 L 281.753906 149 L 281.753906 152 L 37.628906 152 Z M 37.628906 149 "/>
</clipPath>
<clipPath id="clip7">
  <path d="M 37.628906 93 L 281.753906 93 L 281.753906 95 L 37.628906 95 Z M 37.628906 93 "/>
</clipPath>
<clipPath id="clip8">
  <path d="M 37.628906 36 L 281.753906 36 L 281.753906 39 L 37.628906 39 Z M 37.628906 36 "/>
</clipPath>
<clipPath id="clip9">
  <path d="M 42 9 L 281.753906 9 L 281.753906 158 L 42 158 Z M 42 9 "/>
</clipPath>
<clipPath id="clip10">
  <path d="M 37.628906 17 L 281.753906 17 L 281.753906 84 L 37.628906 84 Z M 37.628906 17 "/>
</clipPath>
<clipPath id="clip11">
  <path d="M 37.628906 21 L 281.753906 21 L 281.753906 55 L 37.628906 55 Z M 37.628906 21 "/>
</clipPath>
<filter id="alpha" filterUnits="objectBoundingBox" x="0%" y="0%" width="100%" height="100%">
  <feColorMatrix type="matrix" in="SourceGraphic" values="0 0 0 0 1 0 0 0 0 1 0 0 0 0 1 0 0 0 1 0"/>
</filter>
<mask id="mask0">
  <g filter="url(#alpha)">
<rect x="0" y="0" width="299" height="226" style="fill:rgb(0%,0%,0%);fill-opacity:0.8;stroke:none;"/>
  </g>
</mask>
<clipPath id="clip12">
  <rect x="0" y="0" width="299" height="226"/>
</clipPath>
<g id="surface5" clip-path="url(#clip12)">
<path style="fill-rule:nonzero;fill:rgb(100%,100%,100%);fill-opacity:1;stroke-width:1;stroke-linecap:butt;stroke-linejoin:miter;stroke:rgb(80%,80%,80%);stroke-opacity:1;stroke-miterlimit:4;" d="M 140.634375 98.665625 L 218.403125 98.665625 C 219.7375 98.665625 220.403125 98 220.403125 96.665625 L 220.403125 53.63125 C 220.403125 52.3 219.7375 51.63125 218.403125 51.63125 L 140.634375 51.63125 C 139.3 51.63125 138.634375 52.3 138.634375 53.63125 L 138.634375 96.665625 C 138.634375 98 139.3 98.665625 140.634375 98.665625 Z M 140.634375 98.665625 " transform="matrix(1.25,0,0,1.25,0,0)"/>
</g>
</defs>
<g id="surface1">
<path style=" stroke:none;fill-rule:nonzero;fill:rgb(100%,100%,100%);fill-opacity:1;" d="M 37.628906 178.875 L 281.753906 178.875 L 281.753906 9 L 37.628906 9 Z M 37.628906 178.875 "/>
<g clip-path="url(#clip1)" clip-rule="nonzero">
<path style="fill:none;stroke-width:0.8;stroke-linecap:square;stroke-linejoin:round;stroke:rgb(69.019608%,69.019608%,69.019608%);stroke-opacity:1;stroke-miterlimit:4;" d="M 51.803125 143.1 L 51.803125 7.2 " transform="matrix(1.25,0,0,1.25,0,0)"/>
</g>
<path style="fill:none;stroke-width:0.8;stroke-linecap:butt;stroke-linejoin:round;stroke:rgb(0%,0%,0%);stroke-opacity:1;stroke-miterlimit:4;" d="M 0 0 L 0 3.5 " transform="matrix(1.25,0,0,1.25,64.753906,178.875)"/>
<path style=" stroke:none;fill-rule:nonzero;fill:rgb(0%,0%,0%);fill-opacity:1;" d="M 63.175781 196.085938 L 67.476562 196.085938 L 67.476562 197.125 L 61.695312 197.125 L 61.695312 196.085938 C 62.160156 195.601562 62.796875 194.953125 63.605469 194.136719 C 64.414062 193.320312 64.921875 192.792969 65.128906 192.558594 C 65.523438 192.113281 65.796875 191.738281 65.953125 191.433594 C 66.113281 191.125 66.191406 190.824219 66.191406 190.527344 C 66.191406 190.042969 66.023438 189.648438 65.679688 189.34375 C 65.34375 189.035156 64.898438 188.882812 64.351562 188.882812 C 63.96875 188.882812 63.558594 188.949219 63.128906 189.085938 C 62.699219 189.21875 62.242188 189.421875 61.753906 189.695312 L 61.753906 188.449219 C 62.25 188.25 62.714844 188.101562 63.144531 188 C 63.578125 187.898438 63.972656 187.847656 64.328125 187.847656 C 65.273438 187.847656 66.027344 188.082031 66.585938 188.554688 C 67.148438 189.027344 67.429688 189.65625 67.429688 190.445312 C 67.429688 190.820312 67.359375 191.175781 67.21875 191.511719 C 67.078125 191.847656 66.824219 192.242188 66.453125 192.699219 C 66.351562 192.816406 66.027344 193.15625 65.484375 193.722656 C 64.9375 194.285156 64.167969 195.074219 63.175781 196.085938 Z M 63.175781 196.085938 "/>
<g clip-path="url(#clip2)" clip-rule="nonzero">
<path style="fill:none;stroke-width:0.8;stroke-linecap:square;stroke-linejoin:round;stroke:rgb(69.019608%,69.019608%,69.019608%);stroke-opacity:1;stroke-miterlimit:4;" d="M 95.203125 143.1 L 95.203125 7.2 " transform="matrix(1.25,0,0,1.25,0,0)"/>
</g>
<path style="fill:none;stroke-width:0.8;stroke-linecap:butt;stroke-linejoin:round;stroke:rgb(0%,0%,0%);stroke-opacity:1;stroke-miterlimit:4;" d="M 0 0 L 0 3.5 " transform="matrix(1.25,0,0,1.25,119.003906,178.875)"/>
<path style=" stroke:none;fill-rule:nonzero;fill:rgb(0%,0%,0%);fill-opacity:1;" d="M 119.75 189.085938 L 116.640625 193.949219 L 119.75 193.949219 Z M 119.429688 188.011719 L 120.976562 188.011719 L 120.976562 193.949219 L 122.28125 193.949219 L 122.28125 194.976562 L 120.976562 194.976562 L 120.976562 197.125 L 119.75 197.125 L 119.75 194.976562 L 115.640625 194.976562 L 115.640625 193.785156 Z M 119.429688 188.011719 "/>
<g clip-path="url(#clip3)" clip-rule="nonzero">
<path style="fill:none;stroke-width:0.8;stroke-linecap:square;stroke-linejoin:round;stroke:rgb(69.019608%,69.019608%,69.019608%);stroke-opacity:1;stroke-miterlimit:4;" d="M 138.603125 143.1 L 138.603125 7.2 " transform="matrix(1.25,0,0,1.25,0,0)"/>
</g>
<path style="fill:none;stroke-width:0.8;stroke-linecap:butt;stroke-linejoin:round;stroke:rgb(0%,0%,0%);stroke-opacity:1;stroke-miterlimit:4;" d="M 0 0 L 0 3.5 " transform="matrix(1.25,0,0,1.25,173.253906,178.875)"/>
<path style=" stroke:none;fill-rule:nonzero;fill:rgb(0%,0%,0%);fill-opacity:1;" d="M 173.40625 192.078125 C 172.851562 192.078125 172.414062 192.265625 172.085938 192.644531 C 171.765625 193.023438 171.601562 193.539062 171.601562 194.199219 C 171.601562 194.855469 171.765625 195.371094 172.085938 195.753906 C 172.414062 196.132812 172.851562 196.324219 173.40625 196.324219 C 173.957031 196.324219 174.394531 196.132812 174.71875 195.753906 C 175.042969 195.371094 175.203125 194.855469 175.203125 194.199219 C 175.203125 193.539062 175.042969 193.023438 174.71875 192.644531 C 174.394531 192.265625 173.957031 192.078125 173.40625 192.078125 Z M 175.851562 188.210938 L 175.851562 189.335938 C 175.542969 189.1875 175.230469 189.078125 174.914062 189 C 174.597656 188.921875 174.285156 188.882812 173.976562 188.882812 C 173.164062 188.882812 172.539062 189.15625 172.109375 189.707031 C 171.683594 190.257812 171.4375 191.085938 171.375 192.199219 C 171.617188 191.84375 171.917969 191.570312 172.28125 191.382812 C 172.640625 191.195312 173.042969 191.101562 173.476562 191.101562 C 174.390625 191.101562 175.117188 191.378906 175.648438 191.933594 C 176.179688 192.488281 176.445312 193.242188 176.445312 194.199219 C 176.445312 195.136719 176.167969 195.886719 175.613281 196.453125 C 175.058594 197.019531 174.324219 197.300781 173.40625 197.300781 C 172.351562 197.300781 171.542969 196.898438 170.984375 196.089844 C 170.429688 195.28125 170.148438 194.109375 170.148438 192.578125 C 170.148438 191.136719 170.492188 189.988281 171.175781 189.132812 C 171.859375 188.273438 172.777344 187.847656 173.929688 187.847656 C 174.238281 187.847656 174.550781 187.875 174.867188 187.9375 C 175.179688 188 175.507812 188.089844 175.851562 188.210938 Z M 175.851562 188.210938 "/>
<g clip-path="url(#clip4)" clip-rule="nonzero">
<path style="fill:none;stroke-width:0.8;stroke-linecap:square;stroke-linejoin:round;stroke:rgb(69.019608%,69.019608%,69.019608%);stroke-opacity:1;stroke-miterlimit:4;" d="M 182.003125 143.1 L 182.003125 7.2 " transform="matrix(1.25,0,0,1.25,0,0)"/>
</g>
<path style="fill:none;stroke-width:0.8;stroke-linecap:butt;stroke-linejoin:round;stroke:rgb(0%,0%,0%);stroke-opacity:1;stroke-miterlimit:4;" d="M 0 0 L 0 3.5 " transform="matrix(1.25,0,0,1.25,227.503906,178.875)"/>
<path style=" stroke:none;fill-rule:nonzero;fill:rgb(0%,0%,0%);fill-opacity:1;" d="M 227.5 192.796875 C 226.914062 192.796875 226.453125 192.953125 226.117188 193.265625 C 225.78125 193.578125 225.617188 194.011719 225.617188 194.558594 C 225.617188 195.109375 225.78125 195.539062 226.117188 195.855469 C 226.453125 196.167969 226.914062 196.324219 227.5 196.324219 C 228.085938 196.324219 228.546875 196.167969 228.882812 195.851562 C 229.222656 195.535156 229.390625 195.105469 229.390625 194.558594 C 229.390625 194.011719 229.226562 193.578125 228.890625 193.265625 C 228.554688 192.953125 228.089844 192.796875 227.5 192.796875 Z M 226.265625 192.273438 C 225.738281 192.140625 225.328125 191.894531 225.03125 191.535156 C 224.738281 191.171875 224.589844 190.726562 224.589844 190.207031 C 224.589844 189.480469 224.847656 188.902344 225.367188 188.480469 C 225.886719 188.058594 226.597656 187.847656 227.5 187.847656 C 228.40625 187.847656 229.121094 188.058594 229.636719 188.480469 C 230.152344 188.902344 230.414062 189.480469 230.414062 190.207031 C 230.414062 190.726562 230.265625 191.171875 229.96875 191.535156 C 229.675781 191.894531 229.265625 192.140625 228.742188 192.273438 C 229.335938 192.410156 229.796875 192.679688 230.125 193.085938 C 230.460938 193.488281 230.625 193.976562 230.625 194.558594 C 230.625 195.441406 230.355469 196.121094 229.816406 196.59375 C 229.277344 197.066406 228.503906 197.300781 227.5 197.300781 C 226.496094 197.300781 225.722656 197.066406 225.183594 196.59375 C 224.644531 196.121094 224.375 195.441406 224.375 194.558594 C 224.375 193.976562 224.542969 193.488281 224.875 193.085938 C 225.210938 192.679688 225.671875 192.410156 226.265625 192.273438 Z M 225.816406 190.324219 C 225.816406 190.796875 225.964844 191.164062 226.257812 191.429688 C 226.554688 191.691406 226.96875 191.824219 227.5 191.824219 C 228.03125 191.824219 228.445312 191.691406 228.742188 191.429688 C 229.042969 191.164062 229.191406 190.796875 229.191406 190.324219 C 229.191406 189.851562 229.042969 189.484375 228.742188 189.21875 C 228.445312 188.953125 228.03125 188.824219 227.5 188.824219 C 226.96875 188.824219 226.554688 188.953125 226.257812 189.21875 C 225.964844 189.484375 225.816406 189.851562 225.816406 190.324219 Z M 225.816406 190.324219 "/>
<g clip-path="url(#clip5)" clip-rule="nonzero">
<path style="fill:none;stroke-width:0.8;stroke-linecap:square;stroke-linejoin:round;stroke:rgb(69.019608%,69.019608%,69.019608%);stroke-opacity:1;stroke-miterlimit:4;" d="M 225.403125 143.1 L 225.403125 7.2 " transform="matrix(1.25,0,0,1.25,0,0)"/>
</g>
<path style="fill:none;stroke-width:0.8;stroke-linecap:butt;stroke-linejoin:round;stroke:rgb(0%,0%,0%);stroke-opacity:1;stroke-miterlimit:4;" d="M 0 0 L 0 3.5 " transform="matrix(1.25,0,0,1.25,281.753906,178.875)"/>
<path style=" stroke:none;fill-rule:nonzero;fill:rgb(0%,0%,0%);fill-opacity:1;" d="M 275.351562 196.085938 L 277.367188 196.085938 L 277.367188 189.132812 L 275.171875 189.574219 L 275.171875 188.449219 L 277.351562 188.011719 L 278.585938 188.011719 L 278.585938 196.085938 L 280.601562 196.085938 L 280.601562 197.125 L 275.351562 197.125 Z M 275.351562 196.085938 "/>
<path style=" stroke:none;fill-rule:nonzero;fill:rgb(0%,0%,0%);fill-opacity:1;" d="M 285.726562 188.824219 C 285.09375 188.824219 284.613281 189.136719 284.292969 189.761719 C 283.976562 190.382812 283.816406 191.324219 283.816406 192.578125 C 283.816406 193.824219 283.976562 194.761719 284.292969 195.386719 C 284.613281 196.011719 285.09375 196.324219 285.726562 196.324219 C 286.367188 196.324219 286.84375 196.011719 287.164062 195.386719 C 287.484375 194.761719 287.644531 193.824219 287.644531 192.578125 C 287.644531 191.324219 287.484375 190.382812 287.164062 189.761719 C 286.84375 189.136719 286.367188 188.824219 285.726562 188.824219 Z M 285.726562 187.847656 C 286.75 187.847656 287.527344 188.25 288.066406 189.058594 C 288.605469 189.867188 288.875 191.039062 288.875 192.578125 C 288.875 194.109375 288.605469 195.28125 288.066406 196.089844 C 287.527344 196.898438 286.75 197.300781 285.726562 197.300781 C 284.707031 197.300781 283.925781 196.898438 283.386719 196.089844 C 282.847656 195.28125 282.578125 194.109375 282.578125 192.578125 C 282.578125 191.039062 282.847656 189.867188 283.386719 189.058594 C 283.925781 188.25 284.707031 187.847656 285.726562 187.847656 Z M 285.726562 187.847656 "/>
<path style=" stroke:none;fill-rule:nonzero;fill:rgb(0%,0%,0%);fill-opacity:1;" d="M 147.679688 210.523438 L 147.679688 211.070312 L 142.515625 211.070312 C 142.566406 211.84375 142.800781 212.433594 143.21875 212.839844 C 143.632812 213.242188 144.214844 213.445312 144.960938 213.445312 C 145.390625 213.445312 145.808594 213.394531 146.210938 213.289062 C 146.617188 213.183594 147.019531 213.023438 147.421875 212.8125 L 147.421875 213.875 C 147.015625 214.042969 146.601562 214.175781 146.179688 214.265625 C 145.757812 214.355469 145.328125 214.398438 144.890625 214.398438 C 143.800781 214.398438 142.9375 214.082031 142.300781 213.449219 C 141.664062 212.8125 141.34375 211.953125 141.34375 210.871094 C 141.34375 209.75 141.648438 208.863281 142.25 208.207031 C 142.855469 207.550781 143.671875 207.222656 144.695312 207.222656 C 145.617188 207.222656 146.34375 207.515625 146.878906 208.109375 C 147.414062 208.699219 147.679688 209.503906 147.679688 210.523438 Z M 146.558594 210.191406 C 146.550781 209.578125 146.378906 209.089844 146.042969 208.722656 C 145.707031 208.355469 145.261719 208.171875 144.710938 208.171875 C 144.082031 208.171875 143.582031 208.347656 143.203125 208.703125 C 142.828125 209.058594 142.613281 209.554688 142.554688 210.199219 Z M 146.558594 210.191406 "/>
<path style=" stroke:none;fill-rule:nonzero;fill:rgb(0%,0%,0%);fill-opacity:1;" d="M 150.609375 213.195312 L 150.609375 216.820312 L 149.480469 216.820312 L 149.480469 207.386719 L 150.609375 207.386719 L 150.609375 208.421875 C 150.847656 208.015625 151.144531 207.714844 151.503906 207.519531 C 151.867188 207.320312 152.296875 207.222656 152.796875 207.222656 C 153.625 207.222656 154.300781 207.550781 154.820312 208.210938 C 155.339844 208.867188 155.597656 209.734375 155.597656 210.808594 C 155.597656 211.882812 155.339844 212.75 154.820312 213.410156 C 154.300781 214.070312 153.625 214.398438 152.796875 214.398438 C 152.296875 214.398438 151.867188 214.300781 151.503906 214.101562 C 151.144531 213.902344 150.847656 213.601562 150.609375 213.195312 Z M 154.433594 210.808594 C 154.433594 209.984375 154.261719 209.335938 153.921875 208.867188 C 153.582031 208.394531 153.117188 208.160156 152.523438 208.160156 C 151.925781 208.160156 151.460938 208.394531 151.121094 208.867188 C 150.78125 209.335938 150.609375 209.984375 150.609375 210.808594 C 150.609375 211.632812 150.78125 212.28125 151.121094 212.753906 C 151.460938 213.222656 151.925781 213.457031 152.523438 213.457031 C 153.117188 213.457031 153.582031 213.222656 153.921875 212.753906 C 154.261719 212.28125 154.433594 211.632812 154.433594 210.808594 Z M 154.433594 210.808594 "/>
<path style=" stroke:none;fill-rule:nonzero;fill:rgb(0%,0%,0%);fill-opacity:1;" d="M 160.109375 208.171875 C 159.507812 208.171875 159.03125 208.40625 158.679688 208.878906 C 158.328125 209.347656 158.15625 209.992188 158.15625 210.808594 C 158.15625 211.625 158.328125 212.269531 158.675781 212.742188 C 159.023438 213.210938 159.5 213.445312 160.109375 213.445312 C 160.707031 213.445312 161.179688 213.210938 161.53125 212.738281 C 161.878906 212.265625 162.054688 211.621094 162.054688 210.808594 C 162.054688 210 161.878906 209.355469 161.53125 208.882812 C 161.179688 208.410156 160.707031 208.171875 160.109375 208.171875 Z M 160.109375 207.222656 C 161.085938 207.222656 161.851562 207.539062 162.40625 208.175781 C 162.96875 208.808594 163.246094 209.6875 163.246094 210.808594 C 163.246094 211.925781 162.96875 212.804688 162.40625 213.445312 C 161.851562 214.082031 161.085938 214.398438 160.109375 214.398438 C 159.125 214.398438 158.359375 214.082031 157.804688 213.445312 C 157.25 212.804688 156.96875 211.925781 156.96875 210.808594 C 156.96875 209.6875 157.25 208.808594 157.804688 208.175781 C 158.359375 207.539062 159.125 207.222656 160.109375 207.222656 Z M 160.109375 207.222656 "/>
<path style=" stroke:none;fill-rule:nonzero;fill:rgb(0%,0%,0%);fill-opacity:1;" d="M 170.027344 207.648438 L 170.027344 208.699219 C 169.707031 208.523438 169.390625 208.390625 169.070312 208.304688 C 168.753906 208.214844 168.429688 208.171875 168.105469 208.171875 C 167.375 208.171875 166.808594 208.402344 166.40625 208.867188 C 166.003906 209.328125 165.800781 209.972656 165.800781 210.808594 C 165.800781 211.644531 166.003906 212.292969 166.40625 212.753906 C 166.808594 213.214844 167.375 213.445312 168.105469 213.445312 C 168.429688 213.445312 168.753906 213.402344 169.070312 213.316406 C 169.390625 213.226562 169.707031 213.097656 170.027344 212.921875 L 170.027344 213.960938 C 169.710938 214.105469 169.386719 214.214844 169.050781 214.289062 C 168.71875 214.363281 168.359375 214.398438 167.980469 214.398438 C 166.953125 214.398438 166.132812 214.074219 165.527344 213.429688 C 164.921875 212.78125 164.617188 211.90625 164.617188 210.808594 C 164.617188 209.695312 164.925781 208.816406 165.535156 208.179688 C 166.148438 207.539062 166.988281 207.222656 168.054688 207.222656 C 168.402344 207.222656 168.738281 207.257812 169.066406 207.328125 C 169.398438 207.398438 169.714844 207.503906 170.027344 207.648438 Z M 170.027344 207.648438 "/>
<path style=" stroke:none;fill-rule:nonzero;fill:rgb(0%,0%,0%);fill-opacity:1;" d="M 177.664062 210.09375 L 177.664062 214.222656 L 176.539062 214.222656 L 176.539062 210.132812 C 176.539062 209.484375 176.414062 209 176.160156 208.679688 C 175.910156 208.359375 175.53125 208.199219 175.027344 208.199219 C 174.417969 208.199219 173.941406 208.390625 173.589844 208.777344 C 173.242188 209.164062 173.066406 209.691406 173.066406 210.359375 L 173.066406 214.222656 L 171.9375 214.222656 L 171.9375 204.722656 L 173.066406 204.722656 L 173.066406 208.449219 C 173.335938 208.035156 173.652344 207.730469 174.015625 207.527344 C 174.378906 207.324219 174.800781 207.222656 175.277344 207.222656 C 176.0625 207.222656 176.65625 207.464844 177.058594 207.949219 C 177.460938 208.433594 177.664062 209.148438 177.664062 210.09375 Z M 177.664062 210.09375 "/>
<g clip-path="url(#clip6)" clip-rule="nonzero">
<path style="fill:none;stroke-width:0.8;stroke-linecap:square;stroke-linejoin:round;stroke:rgb(69.019608%,69.019608%,69.019608%);stroke-opacity:1;stroke-miterlimit:4;" d="M 30.103125 120.45 L 225.403125 120.45 " transform="matrix(1.25,0,0,1.25,0,0)"/>
</g>
<path style="fill:none;stroke-width:0.8;stroke-linecap:butt;stroke-linejoin:round;stroke:rgb(0%,0%,0%);stroke-opacity:1;stroke-miterlimit:4;" d="M 0 0 L -3.5 0 " transform="matrix(1.25,0,0,1.25,37.628906,150.5625)"/>
<path style=" stroke:none;fill-rule:nonzero;fill:rgb(0%,0%,0%);fill-opacity:1;" d="M 12.972656 147.011719 C 12.339844 147.011719 11.859375 147.324219 11.539062 147.949219 C 11.222656 148.570312 11.0625 149.511719 11.0625 150.765625 C 11.0625 152.011719 11.222656 152.949219 11.539062 153.574219 C 11.859375 154.199219 12.339844 154.511719 12.972656 154.511719 C 13.613281 154.511719 14.089844 154.199219 14.410156 153.574219 C 14.730469 152.949219 14.890625 152.011719 14.890625 150.765625 C 14.890625 149.511719 14.730469 148.570312 14.410156 147.949219 C 14.089844 147.324219 13.613281 147.011719 12.972656 147.011719 Z M 12.972656 146.035156 C 13.996094 146.035156 14.773438 146.4375 15.3125 147.246094 C 15.851562 148.054688 16.125 149.226562 16.125 150.765625 C 16.125 152.296875 15.851562 153.46875 15.3125 154.277344 C 14.773438 155.085938 13.996094 155.488281 12.972656 155.488281 C 11.953125 155.488281 11.171875 155.085938 10.632812 154.277344 C 10.09375 153.46875 9.824219 152.296875 9.824219 150.765625 C 9.824219 149.226562 10.09375 148.054688 10.632812 147.246094 C 11.171875 146.4375 11.953125 146.035156 12.972656 146.035156 Z M 12.972656 146.035156 "/>
<path style=" stroke:none;fill-rule:nonzero;fill:rgb(0%,0%,0%);fill-opacity:1;" d="M 18.289062 153.761719 L 19.578125 153.761719 L 19.578125 155.3125 L 18.289062 155.3125 Z M 18.289062 153.761719 "/>
<path style=" stroke:none;fill-rule:nonzero;fill:rgb(0%,0%,0%);fill-opacity:1;" d="M 25.652344 147.273438 L 22.539062 152.136719 L 25.652344 152.136719 Z M 25.328125 146.199219 L 26.878906 146.199219 L 26.878906 152.136719 L 28.179688 152.136719 L 28.179688 153.164062 L 26.878906 153.164062 L 26.878906 155.3125 L 25.652344 155.3125 L 25.652344 153.164062 L 21.539062 153.164062 L 21.539062 151.972656 Z M 25.328125 146.199219 "/>
<g clip-path="url(#clip7)" clip-rule="nonzero">
<path style="fill:none;stroke-width:0.8;stroke-linecap:square;stroke-linejoin:round;stroke:rgb(69.019608%,69.019608%,69.019608%);stroke-opacity:1;stroke-miterlimit:4;" d="M 30.103125 75.15 L 225.403125 75.15 " transform="matrix(1.25,0,0,1.25,0,0)"/>
</g>
<path style="fill:none;stroke-width:0.8;stroke-linecap:butt;stroke-linejoin:round;stroke:rgb(0%,0%,0%);stroke-opacity:1;stroke-miterlimit:4;" d="M 0 0 L -3.5 0 " transform="matrix(1.25,0,0,1.25,37.628906,93.9375)"/>
<path style=" stroke:none;fill-rule:nonzero;fill:rgb(0%,0%,0%);fill-opacity:1;" d="M 12.972656 90.386719 C 12.339844 90.386719 11.859375 90.699219 11.539062 91.324219 C 11.222656 91.945312 11.0625 92.886719 11.0625 94.140625 C 11.0625 95.386719 11.222656 96.324219 11.539062 96.949219 C 11.859375 97.574219 12.339844 97.886719 12.972656 97.886719 C 13.613281 97.886719 14.089844 97.574219 14.410156 96.949219 C 14.730469 96.324219 14.890625 95.386719 14.890625 94.140625 C 14.890625 92.886719 14.730469 91.945312 14.410156 91.324219 C 14.089844 90.699219 13.613281 90.386719 12.972656 90.386719 Z M 12.972656 89.410156 C 13.996094 89.410156 14.773438 89.8125 15.3125 90.621094 C 15.851562 91.429688 16.125 92.601562 16.125 94.140625 C 16.125 95.671875 15.851562 96.84375 15.3125 97.652344 C 14.773438 98.460938 13.996094 98.863281 12.972656 98.863281 C 11.953125 98.863281 11.171875 98.460938 10.632812 97.652344 C 10.09375 96.84375 9.824219 95.671875 9.824219 94.140625 C 9.824219 92.601562 10.09375 91.429688 10.632812 90.621094 C 11.171875 89.8125 11.953125 89.410156 12.972656 89.410156 Z M 12.972656 89.410156 "/>
<path style=" stroke:none;fill-rule:nonzero;fill:rgb(0%,0%,0%);fill-opacity:1;" d="M 18.289062 97.136719 L 19.578125 97.136719 L 19.578125 98.6875 L 18.289062 98.6875 Z M 18.289062 97.136719 "/>
<path style=" stroke:none;fill-rule:nonzero;fill:rgb(0%,0%,0%);fill-opacity:1;" d="M 25.054688 93.640625 C 24.5 93.640625 24.0625 93.828125 23.738281 94.207031 C 23.414062 94.585938 23.253906 95.105469 23.253906 95.761719 C 23.253906 96.417969 23.414062 96.9375 23.738281 97.316406 C 24.0625 97.699219 24.5 97.886719 25.054688 97.886719 C 25.605469 97.886719 26.042969 97.699219 26.367188 97.316406 C 26.691406 96.9375 26.851562 96.417969 26.851562 95.761719 C 26.851562 95.105469 26.691406 94.585938 26.367188 94.207031 C 26.042969 93.828125 25.605469 93.640625 25.054688 93.640625 Z M 27.5 89.773438 L 27.5 90.898438 C 27.191406 90.75 26.878906 90.640625 26.5625 90.5625 C 26.246094 90.484375 25.933594 90.445312 25.625 90.445312 C 24.8125 90.445312 24.191406 90.722656 23.761719 91.269531 C 23.332031 91.820312 23.085938 92.648438 23.027344 93.761719 C 23.265625 93.40625 23.566406 93.136719 23.929688 92.945312 C 24.292969 92.757812 24.691406 92.664062 25.125 92.664062 C 26.039062 92.664062 26.765625 92.941406 27.296875 93.496094 C 27.828125 94.050781 28.09375 94.808594 28.09375 95.761719 C 28.09375 96.699219 27.816406 97.449219 27.261719 98.015625 C 26.707031 98.582031 25.972656 98.863281 25.054688 98.863281 C 24 98.863281 23.191406 98.460938 22.636719 97.652344 C 22.078125 96.84375 21.800781 95.671875 21.800781 94.140625 C 21.800781 92.699219 22.140625 91.550781 22.824219 90.695312 C 23.507812 89.835938 24.425781 89.410156 25.578125 89.410156 C 25.886719 89.410156 26.199219 89.441406 26.515625 89.5 C 26.828125 89.5625 27.15625 89.652344 27.5 89.773438 Z M 27.5 89.773438 "/>
<g clip-path="url(#clip8)" clip-rule="nonzero">
<path style="fill:none;stroke-width:0.8;stroke-linecap:square;stroke-linejoin:round;stroke:rgb(69.019608%,69.019608%,69.019608%);stroke-opacity:1;stroke-miterlimit:4;" d="M 30.103125 29.85 L 225.403125 29.85 " transform="matrix(1.25,0,0,1.25,0,0)"/>
</g>
<path style="fill:none;stroke-width:0.8;stroke-linecap:butt;stroke-linejoin:round;stroke:rgb(0%,0%,0%);stroke-opacity:1;stroke-miterlimit:4;" d="M 0 0 L -3.5 0 " transform="matrix(1.25,0,0,1.25,37.628906,37.3125)"/>
<path style=" stroke:none;fill-rule:nonzero;fill:rgb(0%,0%,0%);fill-opacity:1;" d="M 12.972656 33.761719 C 12.339844 33.761719 11.859375 34.074219 11.539062 34.699219 C 11.222656 35.320312 11.0625 36.261719 11.0625 37.515625 C 11.0625 38.761719 11.222656 39.699219 11.539062 40.324219 C 11.859375 40.949219 12.339844 41.261719 12.972656 41.261719 C 13.613281 41.261719 14.089844 40.949219 14.410156 40.324219 C 14.730469 39.699219 14.890625 38.761719 14.890625 37.515625 C 14.890625 36.261719 14.730469 35.320312 14.410156 34.699219 C 14.089844 34.074219 13.613281 33.761719 12.972656 33.761719 Z M 12.972656 32.785156 C 13.996094 32.785156 14.773438 33.1875 15.3125 33.996094 C 15.851562 34.804688 16.125 35.976562 16.125 37.515625 C 16.125 39.046875 15.851562 40.21875 15.3125 41.027344 C 14.773438 41.835938 13.996094 42.238281 12.972656 42.238281 C 11.953125 42.238281 11.171875 41.835938 10.632812 41.027344 C 10.09375 40.21875 9.824219 39.046875 9.824219 37.515625 C 9.824219 35.976562 10.09375 34.804688 10.632812 33.996094 C 11.171875 33.1875 11.953125 32.785156 12.972656 32.785156 Z M 12.972656 32.785156 "/>
<path style=" stroke:none;fill-rule:nonzero;fill:rgb(0%,0%,0%);fill-opacity:1;" d="M 18.289062 40.511719 L 19.578125 40.511719 L 19.578125 42.0625 L 18.289062 42.0625 Z M 18.289062 40.511719 "/>
<path style=" stroke:none;fill-rule:nonzero;fill:rgb(0%,0%,0%);fill-opacity:1;" d="M 24.898438 37.734375 C 24.3125 37.734375 23.851562 37.890625 23.515625 38.203125 C 23.179688 38.519531 23.015625 38.949219 23.015625 39.496094 C 23.015625 40.046875 23.179688 40.476562 23.515625 40.792969 C 23.851562 41.105469 24.3125 41.261719 24.898438 41.261719 C 25.484375 41.261719 25.945312 41.105469 26.285156 40.789062 C 26.621094 40.472656 26.792969 40.042969 26.792969 39.496094 C 26.792969 38.949219 26.625 38.519531 26.289062 38.203125 C 25.953125 37.890625 25.488281 37.734375 24.898438 37.734375 Z M 23.667969 37.210938 C 23.136719 37.078125 22.726562 36.832031 22.429688 36.472656 C 22.136719 36.109375 21.988281 35.667969 21.988281 35.144531 C 21.988281 34.417969 22.246094 33.84375 22.765625 33.417969 C 23.285156 32.996094 23.996094 32.785156 24.898438 32.785156 C 25.804688 32.785156 26.519531 32.996094 27.035156 33.417969 C 27.550781 33.84375 27.8125 34.417969 27.8125 35.144531 C 27.8125 35.667969 27.664062 36.109375 27.367188 36.472656 C 27.074219 36.832031 26.664062 37.078125 26.140625 37.210938 C 26.734375 37.347656 27.195312 37.617188 27.527344 38.023438 C 27.859375 38.425781 28.023438 38.917969 28.023438 39.496094 C 28.023438 40.382812 27.753906 41.058594 27.214844 41.53125 C 26.675781 42.003906 25.902344 42.238281 24.898438 42.238281 C 23.894531 42.238281 23.121094 42.003906 22.582031 41.53125 C 22.042969 41.058594 21.773438 40.382812 21.773438 39.496094 C 21.773438 38.917969 21.941406 38.425781 22.273438 38.023438 C 22.609375 37.617188 23.074219 37.347656 23.667969 37.210938 Z M 23.214844 35.261719 C 23.214844 35.734375 23.363281 36.101562 23.65625 36.367188 C 23.953125 36.628906 24.367188 36.761719 24.898438 36.761719 C 25.429688 36.761719 25.84375 36.628906 26.140625 36.367188 C 26.441406 36.101562 26.589844 35.734375 26.589844 35.261719 C 26.589844 34.789062 26.441406 34.421875 26.140625 34.15625 C 25.84375 33.894531 25.429688 33.761719 24.898438 33.761719 C 24.367188 33.761719 23.953125 33.894531 23.65625 34.15625 C 23.363281 34.421875 23.214844 34.789062 23.214844 35.261719 Z M 23.214844 35.261719 "/>
<g clip-path="url(#clip9)" clip-rule="nonzero">
<path style="fill:none;stroke-width:1.5;stroke-linecap:square;stroke-linejoin:round;stroke:rgb(12.156863%,46.666667%,70.588235%);stroke-opacity:1;stroke-miterlimit:4;" d="M 35.075 -1 L 51.803125 76.203125 L 73.503125 93.240625 L 95.203125 103.025 L 116.903125 108.446875 L 138.603125 113.36875 L 160.303125 116.9 L 182.003125 120.096875 L 203.703125 122.703125 L 225.403125 125.09375 " transform="matrix(1.25,0,0,1.25,0,0)"/>
</g>
<g clip-path="url(#clip10)" clip-rule="nonzero">
<path style="fill:none;stroke-width:1.5;stroke-linecap:butt;stroke-linejoin:round;stroke:rgb(74.901961%,0%,74.901961%);stroke-opacity:1;stroke-dasharray:5.55,2.4;stroke-miterlimit:4;" d="M 30.103125 66.125 L 51.803125 31.828125 L 73.503125 25.71875 L 95.203125 22.384375 L 116.903125 20.859375 L 138.603125 18.9125 L 160.303125 17.73125 L 182.003125 16.50625 L 203.703125 15.7375 L 225.403125 14.809375 " transform="matrix(1.25,0,0,1.25,0,0)"/>
</g>
<g clip-path="url(#clip11)" clip-rule="nonzero">
<path style="fill:none;stroke-width:1.5;stroke-linecap:butt;stroke-linejoin:round;stroke:rgb(0%,50.196078%,0%);stroke-opacity:1;stroke-dasharray:9.6,2.4,1.5,2.4;stroke-miterlimit:4;" d="M 30.103125 41.378125 L 51.803125 33.45 L 73.503125 24.821875 L 95.203125 43.03125 L 116.903125 26.565625 L 138.603125 24.640625 L 160.303125 22.125 L 182.003125 19.746875 L 203.703125 20.01875 L 225.403125 17.890625 " transform="matrix(1.25,0,0,1.25,0,0)"/>
</g>
<path style="fill:none;stroke-width:0.8;stroke-linecap:square;stroke-linejoin:miter;stroke:rgb(0%,0%,0%);stroke-opacity:1;stroke-miterlimit:4;" d="M 30.103125 143.1 L 30.103125 7.2 " transform="matrix(1.25,0,0,1.25,0,0)"/>
<path style="fill:none;stroke-width:0.8;stroke-linecap:square;stroke-linejoin:miter;stroke:rgb(0%,0%,0%);stroke-opacity:1;stroke-miterlimit:4;" d="M 225.403125 143.1 L 225.403125 7.2 " transform="matrix(1.25,0,0,1.25,0,0)"/>
<path style="fill:none;stroke-width:0.8;stroke-linecap:square;stroke-linejoin:miter;stroke:rgb(0%,0%,0%);stroke-opacity:1;stroke-miterlimit:4;" d="M 30.103125 143.1 L 225.403125 143.1 " transform="matrix(1.25,0,0,1.25,0,0)"/>
<path style="fill:none;stroke-width:0.8;stroke-linecap:square;stroke-linejoin:miter;stroke:rgb(0%,0%,0%);stroke-opacity:1;stroke-miterlimit:4;" d="M 30.103125 7.2 L 225.403125 7.2 " transform="matrix(1.25,0,0,1.25,0,0)"/>
<use xlink:href="#surface5" mask="url(#mask0)"/>
<path style="fill:none;stroke-width:1.5;stroke-linecap:square;stroke-linejoin:round;stroke:rgb(12.156863%,46.666667%,70.588235%);stroke-opacity:1;stroke-miterlimit:4;" d="M 142.634375 59.73125 L 162.634375 59.73125 " transform="matrix(1.25,0,0,1.25,0,0)"/>
<path style=" stroke:none;fill-rule:nonzero;fill:rgb(0%,0%,0%);fill-opacity:1;" d="M 215.582031 70.261719 L 215.582031 72.203125 L 217.894531 72.203125 L 217.894531 73.078125 L 215.582031 73.078125 L 215.582031 76.789062 C 215.582031 77.34375 215.65625 77.703125 215.8125 77.859375 C 215.960938 78.019531 216.273438 78.101562 216.742188 78.101562 L 217.894531 78.101562 L 217.894531 79.039062 L 216.742188 79.039062 C 215.875 79.039062 215.277344 78.878906 214.945312 78.554688 C 214.617188 78.230469 214.453125 77.640625 214.453125 76.789062 L 214.453125 73.078125 L 213.628906 73.078125 L 213.628906 72.203125 L 214.453125 72.203125 L 214.453125 70.261719 Z M 215.582031 70.261719 "/>
<path style=" stroke:none;fill-rule:nonzero;fill:rgb(0%,0%,0%);fill-opacity:1;" d="M 223.332031 73.25 C 223.207031 73.179688 223.070312 73.125 222.921875 73.09375 C 222.773438 73.054688 222.609375 73.039062 222.429688 73.039062 C 221.796875 73.039062 221.308594 73.246094 220.96875 73.65625 C 220.628906 74.070312 220.457031 74.664062 220.457031 75.4375 L 220.457031 79.039062 L 219.328125 79.039062 L 219.328125 72.203125 L 220.457031 72.203125 L 220.457031 73.265625 C 220.695312 72.851562 221.003906 72.542969 221.378906 72.34375 C 221.757812 72.140625 222.21875 72.039062 222.761719 72.039062 C 222.835938 72.039062 222.921875 72.042969 223.015625 72.054688 C 223.109375 72.0625 223.214844 72.078125 223.328125 72.101562 Z M 223.332031 73.25 "/>
<path style=" stroke:none;fill-rule:nonzero;fill:rgb(0%,0%,0%);fill-opacity:1;" d="M 227.617188 75.601562 C 226.710938 75.601562 226.082031 75.707031 225.730469 75.914062 C 225.382812 76.121094 225.207031 76.476562 225.207031 76.976562 C 225.207031 77.375 225.335938 77.691406 225.601562 77.925781 C 225.863281 78.160156 226.21875 78.273438 226.671875 78.273438 C 227.292969 78.273438 227.792969 78.054688 228.171875 77.613281 C 228.546875 77.171875 228.734375 76.585938 228.734375 75.851562 L 228.734375 75.601562 Z M 229.859375 75.140625 L 229.859375 79.039062 L 228.734375 79.039062 L 228.734375 78 C 228.480469 78.414062 228.160156 78.722656 227.777344 78.921875 C 227.394531 79.117188 226.925781 79.21875 226.371094 79.21875 C 225.671875 79.21875 225.117188 79.019531 224.703125 78.625 C 224.289062 78.234375 224.082031 77.707031 224.082031 77.046875 C 224.082031 76.28125 224.339844 75.703125 224.855469 75.3125 C 225.371094 74.921875 226.136719 74.726562 227.160156 74.726562 L 228.734375 74.726562 L 228.734375 74.613281 C 228.734375 74.097656 228.566406 73.695312 228.226562 73.414062 C 227.886719 73.132812 227.410156 72.992188 226.792969 72.992188 C 226.402344 72.992188 226.023438 73.039062 225.652344 73.132812 C 225.28125 73.226562 224.925781 73.367188 224.585938 73.554688 L 224.585938 72.515625 C 224.996094 72.355469 225.394531 72.234375 225.78125 72.15625 C 226.167969 72.078125 226.542969 72.039062 226.910156 72.039062 C 227.898438 72.039062 228.636719 72.296875 229.125 72.808594 C 229.613281 73.320312 229.859375 74.097656 229.859375 75.140625 Z M 229.859375 75.140625 "/>
<path style=" stroke:none;fill-rule:nonzero;fill:rgb(0%,0%,0%);fill-opacity:1;" d="M 232.171875 72.203125 L 233.292969 72.203125 L 233.292969 79.039062 L 232.171875 79.039062 Z M 232.171875 69.539062 L 233.292969 69.539062 L 233.292969 70.964844 L 232.171875 70.964844 Z M 232.171875 69.539062 "/>
<path style=" stroke:none;fill-rule:nonzero;fill:rgb(0%,0%,0%);fill-opacity:1;" d="M 241.328125 74.914062 L 241.328125 79.039062 L 240.203125 79.039062 L 240.203125 74.949219 C 240.203125 74.300781 240.078125 73.820312 239.824219 73.5 C 239.574219 73.175781 239.195312 73.015625 238.691406 73.015625 C 238.082031 73.015625 237.605469 73.210938 237.253906 73.59375 C 236.90625 73.980469 236.730469 74.507812 236.730469 75.175781 L 236.730469 79.039062 L 235.601562 79.039062 L 235.601562 72.203125 L 236.730469 72.203125 L 236.730469 73.265625 C 237 72.855469 237.316406 72.546875 237.679688 72.34375 C 238.042969 72.140625 238.464844 72.039062 238.941406 72.039062 C 239.726562 72.039062 240.320312 72.28125 240.722656 72.765625 C 241.125 73.253906 241.328125 73.96875 241.328125 74.914062 Z M 241.328125 74.914062 "/>
<path style=" stroke:none;fill-rule:nonzero;fill:rgb(0%,0%,0%);fill-opacity:1;" d="M 247.539062 69.539062 L 248.664062 69.539062 L 248.664062 79.039062 L 247.539062 79.039062 Z M 247.539062 69.539062 "/>
<path style=" stroke:none;fill-rule:nonzero;fill:rgb(0%,0%,0%);fill-opacity:1;" d="M 253.660156 72.992188 C 253.058594 72.992188 252.582031 73.226562 252.234375 73.695312 C 251.882812 74.164062 251.707031 74.808594 251.707031 75.625 C 251.707031 76.445312 251.882812 77.089844 252.230469 77.558594 C 252.578125 78.027344 253.054688 78.265625 253.660156 78.265625 C 254.261719 78.265625 254.734375 78.027344 255.082031 77.554688 C 255.433594 77.085938 255.609375 76.441406 255.609375 75.625 C 255.609375 74.816406 255.433594 74.175781 255.082031 73.703125 C 254.734375 73.226562 254.261719 72.992188 253.660156 72.992188 Z M 253.660156 72.039062 C 254.636719 72.039062 255.40625 72.355469 255.960938 72.992188 C 256.519531 73.625 256.800781 74.503906 256.800781 75.625 C 256.800781 76.746094 256.519531 77.625 255.960938 78.261719 C 255.40625 78.898438 254.636719 79.21875 253.660156 79.21875 C 252.679688 79.21875 251.914062 78.898438 251.355469 78.261719 C 250.800781 77.625 250.523438 76.746094 250.523438 75.625 C 250.523438 74.503906 250.800781 73.625 251.355469 72.992188 C 251.914062 72.355469 252.679688 72.039062 253.660156 72.039062 Z M 253.660156 72.039062 "/>
<path style=" stroke:none;fill-rule:nonzero;fill:rgb(0%,0%,0%);fill-opacity:1;" d="M 263.015625 72.40625 L 263.015625 73.46875 C 262.703125 73.304688 262.371094 73.183594 262.03125 73.101562 C 261.6875 73.019531 261.335938 72.976562 260.96875 72.976562 C 260.410156 72.976562 259.992188 73.0625 259.710938 73.234375 C 259.433594 73.40625 259.296875 73.660156 259.296875 74.003906 C 259.296875 74.265625 259.394531 74.46875 259.59375 74.617188 C 259.792969 74.765625 260.195312 74.90625 260.796875 75.039062 L 261.179688 75.125 C 261.976562 75.296875 262.546875 75.539062 262.882812 75.851562 C 263.21875 76.160156 263.382812 76.59375 263.382812 77.152344 C 263.382812 77.789062 263.132812 78.289062 262.632812 78.664062 C 262.128906 79.03125 261.4375 79.21875 260.558594 79.21875 C 260.191406 79.21875 259.8125 79.179688 259.414062 79.109375 C 259.015625 79.039062 258.597656 78.929688 258.160156 78.789062 L 258.160156 77.628906 C 258.574219 77.84375 258.984375 78.007812 259.386719 78.117188 C 259.789062 78.222656 260.1875 78.273438 260.585938 78.273438 C 261.113281 78.273438 261.519531 78.183594 261.804688 78.003906 C 262.085938 77.824219 262.230469 77.566406 262.230469 77.238281 C 262.230469 76.933594 262.128906 76.699219 261.921875 76.539062 C 261.71875 76.375 261.265625 76.21875 260.570312 76.066406 L 260.179688 75.976562 C 259.484375 75.828125 258.980469 75.605469 258.671875 75.300781 C 258.363281 74.996094 258.210938 74.582031 258.210938 74.054688 C 258.210938 73.410156 258.4375 72.914062 258.890625 72.5625 C 259.347656 72.214844 259.996094 72.039062 260.835938 72.039062 C 261.25 72.039062 261.636719 72.070312 262.003906 72.132812 C 262.371094 72.191406 262.710938 72.28125 263.015625 72.40625 Z M 263.015625 72.40625 "/>
<path style=" stroke:none;fill-rule:nonzero;fill:rgb(0%,0%,0%);fill-opacity:1;" d="M 269.53125 72.40625 L 269.53125 73.46875 C 269.214844 73.304688 268.882812 73.183594 268.542969 73.101562 C 268.199219 73.019531 267.847656 72.976562 267.480469 72.976562 C 266.921875 72.976562 266.503906 73.0625 266.226562 73.234375 C 265.945312 73.40625 265.808594 73.660156 265.808594 74.003906 C 265.808594 74.265625 265.90625 74.46875 266.105469 74.617188 C 266.304688 74.765625 266.707031 74.90625 267.308594 75.039062 L 267.695312 75.125 C 268.492188 75.296875 269.058594 75.539062 269.394531 75.851562 C 269.730469 76.160156 269.898438 76.59375 269.898438 77.152344 C 269.898438 77.789062 269.644531 78.289062 269.144531 78.664062 C 268.640625 79.03125 267.949219 79.21875 267.070312 79.21875 C 266.707031 79.21875 266.324219 79.179688 265.925781 79.109375 C 265.53125 79.039062 265.113281 78.929688 264.671875 78.789062 L 264.671875 77.628906 C 265.089844 77.84375 265.496094 78.007812 265.898438 78.117188 C 266.300781 78.222656 266.699219 78.273438 267.097656 78.273438 C 267.625 78.273438 268.03125 78.183594 268.316406 78.003906 C 268.601562 77.824219 268.742188 77.566406 268.742188 77.238281 C 268.742188 76.933594 268.640625 76.699219 268.433594 76.539062 C 268.230469 76.375 267.78125 76.21875 267.082031 76.066406 L 266.691406 75.976562 C 265.996094 75.828125 265.496094 75.605469 265.183594 75.300781 C 264.875 74.996094 264.722656 74.582031 264.722656 74.054688 C 264.722656 73.410156 264.949219 72.914062 265.40625 72.5625 C 265.859375 72.214844 266.507812 72.039062 267.347656 72.039062 C 267.761719 72.039062 268.152344 72.070312 268.515625 72.132812 C 268.882812 72.191406 269.222656 72.28125 269.53125 72.40625 Z M 269.53125 72.40625 "/>
<path style="fill:none;stroke-width:1.5;stroke-linecap:butt;stroke-linejoin:round;stroke:rgb(74.901961%,0%,74.901961%);stroke-opacity:1;stroke-dasharray:5.55,2.4;stroke-miterlimit:4;" d="M 142.634375 74.409375 L 162.634375 74.409375 " transform="matrix(1.25,0,0,1.25,0,0)"/>
<path style=" stroke:none;fill-rule:nonzero;fill:rgb(0%,0%,0%);fill-opacity:1;" d="M 215.582031 88.609375 L 215.582031 90.550781 L 217.894531 90.550781 L 217.894531 91.421875 L 215.582031 91.421875 L 215.582031 95.132812 C 215.582031 95.691406 215.65625 96.050781 215.8125 96.210938 C 215.960938 96.367188 216.273438 96.445312 216.742188 96.445312 L 217.894531 96.445312 L 217.894531 97.386719 L 216.742188 97.386719 C 215.875 97.386719 215.277344 97.226562 214.945312 96.902344 C 214.617188 96.578125 214.453125 95.988281 214.453125 95.132812 L 214.453125 91.421875 L 213.628906 91.421875 L 213.628906 90.550781 L 214.453125 90.550781 L 214.453125 88.609375 Z M 215.582031 88.609375 "/>
<path style=" stroke:none;fill-rule:nonzero;fill:rgb(0%,0%,0%);fill-opacity:1;" d="M 223.332031 91.601562 C 223.207031 91.527344 223.070312 91.472656 222.921875 91.4375 C 222.773438 91.40625 222.609375 91.386719 222.429688 91.386719 C 221.796875 91.386719 221.308594 91.59375 220.96875 92.007812 C 220.628906 92.417969 220.457031 93.011719 220.457031 93.785156 L 220.457031 97.386719 L 219.328125 97.386719 L 219.328125 90.550781 L 220.457031 90.550781 L 220.457031 91.613281 C 220.695312 91.199219 221.003906 90.890625 221.378906 90.6875 C 221.757812 90.488281 222.21875 90.386719 222.761719 90.386719 C 222.835938 90.386719 222.921875 90.390625 223.015625 90.402344 C 223.109375 90.410156 223.214844 90.425781 223.328125 90.445312 Z M 223.332031 91.601562 "/>
<path style=" stroke:none;fill-rule:nonzero;fill:rgb(0%,0%,0%);fill-opacity:1;" d="M 227.617188 93.953125 C 226.710938 93.953125 226.082031 94.054688 225.730469 94.261719 C 225.382812 94.46875 225.207031 94.824219 225.207031 95.324219 C 225.207031 95.722656 225.335938 96.039062 225.601562 96.273438 C 225.863281 96.507812 226.21875 96.625 226.671875 96.625 C 227.292969 96.625 227.792969 96.402344 228.171875 95.960938 C 228.546875 95.519531 228.734375 94.933594 228.734375 94.203125 L 228.734375 93.953125 Z M 229.859375 93.484375 L 229.859375 97.386719 L 228.734375 97.386719 L 228.734375 96.351562 C 228.480469 96.765625 228.160156 97.070312 227.777344 97.265625 C 227.394531 97.464844 226.925781 97.5625 226.371094 97.5625 C 225.671875 97.5625 225.117188 97.367188 224.703125 96.976562 C 224.289062 96.582031 224.082031 96.054688 224.082031 95.398438 C 224.082031 94.628906 224.339844 94.046875 224.855469 93.65625 C 225.371094 93.265625 226.136719 93.070312 227.160156 93.070312 L 228.734375 93.070312 L 228.734375 92.960938 C 228.734375 92.445312 228.566406 92.042969 228.226562 91.761719 C 227.886719 91.480469 227.410156 91.335938 226.792969 91.335938 C 226.402344 91.335938 226.023438 91.382812 225.652344 91.476562 C 225.28125 91.570312 224.925781 91.710938 224.585938 91.898438 L 224.585938 90.859375 C 224.996094 90.703125 225.394531 90.585938 225.78125 90.507812 C 226.167969 90.425781 226.542969 90.386719 226.910156 90.386719 C 227.898438 90.386719 228.636719 90.644531 229.125 91.15625 C 229.613281 91.667969 229.859375 92.445312 229.859375 93.484375 Z M 229.859375 93.484375 "/>
<path style=" stroke:none;fill-rule:nonzero;fill:rgb(0%,0%,0%);fill-opacity:1;" d="M 232.171875 90.550781 L 233.292969 90.550781 L 233.292969 97.386719 L 232.171875 97.386719 Z M 232.171875 87.890625 L 233.292969 87.890625 L 233.292969 89.3125 L 232.171875 89.3125 Z M 232.171875 87.890625 "/>
<path style=" stroke:none;fill-rule:nonzero;fill:rgb(0%,0%,0%);fill-opacity:1;" d="M 241.328125 93.257812 L 241.328125 97.386719 L 240.203125 97.386719 L 240.203125 93.296875 C 240.203125 92.648438 240.078125 92.164062 239.824219 91.84375 C 239.574219 91.523438 239.195312 91.363281 238.691406 91.363281 C 238.082031 91.363281 237.605469 91.554688 237.253906 91.945312 C 236.90625 92.328125 236.730469 92.855469 236.730469 93.523438 L 236.730469 97.386719 L 235.601562 97.386719 L 235.601562 90.550781 L 236.730469 90.550781 L 236.730469 91.613281 C 237 91.203125 237.316406 90.894531 237.679688 90.691406 C 238.042969 90.488281 238.464844 90.386719 238.941406 90.386719 C 239.726562 90.386719 240.320312 90.628906 240.722656 91.117188 C 241.125 91.601562 241.328125 92.316406 241.328125 93.257812 Z M 241.328125 93.257812 "/>
<path style=" stroke:none;fill-rule:nonzero;fill:rgb(0%,0%,0%);fill-opacity:1;" d="M 250.648438 93.953125 C 249.738281 93.953125 249.109375 94.054688 248.761719 94.261719 C 248.410156 94.46875 248.234375 94.824219 248.234375 95.324219 C 248.234375 95.722656 248.367188 96.039062 248.628906 96.273438 C 248.890625 96.507812 249.25 96.625 249.699219 96.625 C 250.324219 96.625 250.824219 96.402344 251.199219 95.960938 C 251.574219 95.519531 251.765625 94.933594 251.765625 94.203125 L 251.765625 93.953125 Z M 252.886719 93.484375 L 252.886719 97.386719 L 251.765625 97.386719 L 251.765625 96.351562 C 251.507812 96.765625 251.1875 97.070312 250.804688 97.265625 C 250.421875 97.464844 249.953125 97.5625 249.402344 97.5625 C 248.703125 97.5625 248.144531 97.367188 247.730469 96.976562 C 247.316406 96.582031 247.113281 96.054688 247.113281 95.398438 C 247.113281 94.628906 247.367188 94.046875 247.882812 93.65625 C 248.398438 93.265625 249.167969 93.070312 250.1875 93.070312 L 251.765625 93.070312 L 251.765625 92.960938 C 251.765625 92.445312 251.59375 92.042969 251.253906 91.761719 C 250.914062 91.480469 250.4375 91.335938 249.824219 91.335938 C 249.433594 91.335938 249.050781 91.382812 248.679688 91.476562 C 248.308594 91.570312 247.953125 91.710938 247.613281 91.898438 L 247.613281 90.859375 C 248.023438 90.703125 248.421875 90.585938 248.808594 90.507812 C 249.195312 90.425781 249.570312 90.386719 249.9375 90.386719 C 250.925781 90.386719 251.667969 90.644531 252.15625 91.15625 C 252.644531 91.667969 252.886719 92.445312 252.886719 93.484375 Z M 252.886719 93.484375 "/>
<path style=" stroke:none;fill-rule:nonzero;fill:rgb(0%,0%,0%);fill-opacity:1;" d="M 260.121094 90.8125 L 260.121094 91.863281 C 259.800781 91.6875 259.484375 91.554688 259.164062 91.46875 C 258.84375 91.382812 258.523438 91.335938 258.199219 91.335938 C 257.46875 91.335938 256.902344 91.570312 256.5 92.03125 C 256.097656 92.492188 255.894531 93.140625 255.894531 93.976562 C 255.894531 94.808594 256.097656 95.457031 256.5 95.921875 C 256.902344 96.382812 257.46875 96.609375 258.199219 96.609375 C 258.523438 96.609375 258.84375 96.566406 259.164062 96.480469 C 259.484375 96.394531 259.800781 96.261719 260.121094 96.085938 L 260.121094 97.125 C 259.804688 97.269531 259.480469 97.378906 259.144531 97.453125 C 258.808594 97.527344 258.453125 97.5625 258.074219 97.5625 C 257.042969 97.5625 256.226562 97.242188 255.621094 96.59375 C 255.015625 95.945312 254.710938 95.074219 254.710938 93.976562 C 254.710938 92.859375 255.015625 91.984375 255.628906 91.34375 C 256.242188 90.707031 257.082031 90.386719 258.148438 90.386719 C 258.492188 90.386719 258.832031 90.421875 259.160156 90.492188 C 259.488281 90.5625 259.808594 90.671875 260.121094 90.8125 Z M 260.121094 90.8125 "/>
<path style=" stroke:none;fill-rule:nonzero;fill:rgb(0%,0%,0%);fill-opacity:1;" d="M 266.992188 90.8125 L 266.992188 91.863281 C 266.675781 91.6875 266.355469 91.554688 266.035156 91.46875 C 265.71875 91.382812 265.394531 91.335938 265.070312 91.335938 C 264.339844 91.335938 263.773438 91.570312 263.371094 92.03125 C 262.96875 92.492188 262.765625 93.140625 262.765625 93.976562 C 262.765625 94.808594 262.96875 95.457031 263.371094 95.921875 C 263.773438 96.382812 264.339844 96.609375 265.070312 96.609375 C 265.394531 96.609375 265.71875 96.566406 266.035156 96.480469 C 266.355469 96.394531 266.675781 96.261719 266.992188 96.085938 L 266.992188 97.125 C 266.679688 97.269531 266.351562 97.378906 266.015625 97.453125 C 265.683594 97.527344 265.324219 97.5625 264.945312 97.5625 C 263.917969 97.5625 263.097656 97.242188 262.492188 96.59375 C 261.886719 95.945312 261.582031 95.074219 261.582031 93.976562 C 261.582031 92.859375 261.890625 91.984375 262.5 91.34375 C 263.113281 90.707031 263.953125 90.386719 265.019531 90.386719 C 265.367188 90.386719 265.703125 90.421875 266.03125 90.492188 C 266.363281 90.5625 266.683594 90.671875 266.992188 90.8125 Z M 266.992188 90.8125 "/>
<path style="fill:none;stroke-width:1.5;stroke-linecap:butt;stroke-linejoin:round;stroke:rgb(0%,50.196078%,0%);stroke-opacity:1;stroke-dasharray:9.6,2.4,1.5,2.4;stroke-miterlimit:4;" d="M 142.634375 89.0875 L 162.634375 89.0875 " transform="matrix(1.25,0,0,1.25,0,0)"/>
<path style=" stroke:none;fill-rule:nonzero;fill:rgb(0%,0%,0%);fill-opacity:1;" d="M 215.582031 106.957031 L 215.582031 108.898438 L 217.894531 108.898438 L 217.894531 109.773438 L 215.582031 109.773438 L 215.582031 113.484375 C 215.582031 114.039062 215.65625 114.398438 215.8125 114.554688 C 215.960938 114.714844 216.273438 114.796875 216.742188 114.796875 L 217.894531 114.796875 L 217.894531 115.734375 L 216.742188 115.734375 C 215.875 115.734375 215.277344 115.574219 214.945312 115.25 C 214.617188 114.925781 214.453125 114.335938 214.453125 113.484375 L 214.453125 109.773438 L 213.628906 109.773438 L 213.628906 108.898438 L 214.453125 108.898438 L 214.453125 106.957031 Z M 215.582031 106.957031 "/>
<path style=" stroke:none;fill-rule:nonzero;fill:rgb(0%,0%,0%);fill-opacity:1;" d="M 225.21875 112.035156 L 225.21875 112.585938 L 220.054688 112.585938 C 220.105469 113.359375 220.339844 113.945312 220.753906 114.351562 C 221.171875 114.757812 221.753906 114.960938 222.496094 114.960938 C 222.929688 114.960938 223.347656 114.90625 223.75 114.800781 C 224.15625 114.695312 224.558594 114.535156 224.957031 114.324219 L 224.957031 115.386719 C 224.554688 115.558594 224.140625 115.6875 223.71875 115.777344 C 223.292969 115.867188 222.867188 115.914062 222.429688 115.914062 C 221.339844 115.914062 220.476562 115.59375 219.839844 114.960938 C 219.203125 114.324219 218.882812 113.464844 218.882812 112.382812 C 218.882812 111.265625 219.1875 110.375 219.789062 109.71875 C 220.394531 109.0625 221.210938 108.734375 222.234375 108.734375 C 223.15625 108.734375 223.882812 109.03125 224.417969 109.625 C 224.953125 110.214844 225.21875 111.019531 225.21875 112.035156 Z M 224.097656 111.703125 C 224.089844 111.09375 223.917969 110.601562 223.582031 110.234375 C 223.246094 109.867188 222.800781 109.6875 222.246094 109.6875 C 221.621094 109.6875 221.121094 109.863281 220.742188 110.21875 C 220.367188 110.570312 220.148438 111.070312 220.09375 111.710938 Z M 224.097656 111.703125 "/>
<path style=" stroke:none;fill-rule:nonzero;fill:rgb(0%,0%,0%);fill-opacity:1;" d="M 231.417969 109.101562 L 231.417969 110.164062 C 231.101562 110 230.773438 109.878906 230.429688 109.796875 C 230.089844 109.714844 229.734375 109.671875 229.367188 109.671875 C 228.8125 109.671875 228.394531 109.757812 228.113281 109.929688 C 227.835938 110.101562 227.695312 110.355469 227.695312 110.699219 C 227.695312 110.960938 227.796875 111.164062 227.996094 111.3125 C 228.195312 111.460938 228.597656 111.601562 229.199219 111.734375 L 229.582031 111.820312 C 230.378906 111.992188 230.945312 112.234375 231.28125 112.546875 C 231.617188 112.855469 231.785156 113.289062 231.785156 113.847656 C 231.785156 114.484375 231.535156 114.984375 231.03125 115.359375 C 230.53125 115.726562 229.839844 115.914062 228.960938 115.914062 C 228.59375 115.914062 228.214844 115.875 227.816406 115.804688 C 227.417969 115.734375 227 115.625 226.5625 115.484375 L 226.5625 114.324219 C 226.976562 114.539062 227.386719 114.703125 227.789062 114.8125 C 228.191406 114.917969 228.589844 114.96875 228.984375 114.96875 C 229.515625 114.96875 229.921875 114.878906 230.203125 114.699219 C 230.488281 114.519531 230.632812 114.261719 230.632812 113.933594 C 230.632812 113.628906 230.53125 113.394531 230.324219 113.234375 C 230.121094 113.070312 229.667969 112.914062 228.972656 112.761719 L 228.582031 112.671875 C 227.886719 112.523438 227.382812 112.300781 227.074219 111.996094 C 226.765625 111.691406 226.609375 111.277344 226.609375 110.75 C 226.609375 110.105469 226.839844 109.609375 227.292969 109.257812 C 227.75 108.910156 228.398438 108.734375 229.234375 108.734375 C 229.648438 108.734375 230.039062 108.765625 230.40625 108.828125 C 230.773438 108.886719 231.109375 108.976562 231.417969 109.101562 Z M 231.417969 109.101562 "/>
<path style=" stroke:none;fill-rule:nonzero;fill:rgb(0%,0%,0%);fill-opacity:1;" d="M 234.6875 106.957031 L 234.6875 108.898438 L 237 108.898438 L 237 109.773438 L 234.6875 109.773438 L 234.6875 113.484375 C 234.6875 114.039062 234.761719 114.398438 234.914062 114.554688 C 235.066406 114.714844 235.378906 114.796875 235.847656 114.796875 L 237 114.796875 L 237 115.734375 L 235.847656 115.734375 C 234.980469 115.734375 234.378906 115.574219 234.050781 115.25 C 233.722656 114.925781 233.558594 114.335938 233.558594 113.484375 L 233.558594 109.773438 L 232.734375 109.773438 L 232.734375 108.898438 L 233.558594 108.898438 L 233.558594 106.957031 Z M 234.6875 106.957031 "/>
<path style=" stroke:none;fill-rule:nonzero;fill:rgb(0%,0%,0%);fill-opacity:1;" d="M 245.554688 112.296875 C 244.648438 112.296875 244.019531 112.402344 243.671875 112.609375 C 243.320312 112.816406 243.144531 113.171875 243.144531 113.671875 C 243.144531 114.070312 243.277344 114.386719 243.539062 114.621094 C 243.800781 114.855469 244.160156 114.96875 244.609375 114.96875 C 245.234375 114.96875 245.734375 114.75 246.109375 114.308594 C 246.484375 113.867188 246.671875 113.28125 246.671875 112.546875 L 246.671875 112.296875 Z M 247.796875 111.835938 L 247.796875 115.734375 L 246.671875 115.734375 L 246.671875 114.695312 C 246.417969 115.109375 246.097656 115.417969 245.714844 115.617188 C 245.332031 115.8125 244.863281 115.914062 244.3125 115.914062 C 243.609375 115.914062 243.054688 115.714844 242.640625 115.320312 C 242.226562 114.929688 242.023438 114.402344 242.023438 113.742188 C 242.023438 112.976562 242.277344 112.398438 242.792969 112.007812 C 243.308594 111.617188 244.078125 111.421875 245.097656 111.421875 L 246.671875 111.421875 L 246.671875 111.308594 C 246.671875 110.792969 246.503906 110.390625 246.164062 110.109375 C 245.824219 109.828125 245.347656 109.6875 244.734375 109.6875 C 244.34375 109.6875 243.960938 109.734375 243.589844 109.828125 C 243.21875 109.921875 242.863281 110.0625 242.523438 110.25 L 242.523438 109.210938 C 242.933594 109.050781 243.332031 108.929688 243.71875 108.851562 C 244.105469 108.773438 244.480469 108.734375 244.847656 108.734375 C 245.835938 108.734375 246.578125 108.992188 247.0625 109.503906 C 247.554688 110.015625 247.796875 110.792969 247.796875 111.835938 Z M 247.796875 111.835938 "/>
<path style=" stroke:none;fill-rule:nonzero;fill:rgb(0%,0%,0%);fill-opacity:1;" d="M 255.027344 109.160156 L 255.027344 110.210938 C 254.710938 110.035156 254.394531 109.902344 254.074219 109.816406 C 253.753906 109.730469 253.433594 109.6875 253.105469 109.6875 C 252.378906 109.6875 251.8125 109.917969 251.40625 110.378906 C 251.003906 110.839844 250.804688 111.488281 250.804688 112.320312 C 250.804688 113.15625 251.003906 113.804688 251.40625 114.265625 C 251.8125 114.726562 252.378906 114.960938 253.105469 114.960938 C 253.433594 114.960938 253.753906 114.914062 254.074219 114.828125 C 254.394531 114.742188 254.710938 114.609375 255.027344 114.433594 L 255.027344 115.472656 C 254.714844 115.617188 254.390625 115.726562 254.054688 115.800781 C 253.71875 115.875 253.363281 115.914062 252.984375 115.914062 C 251.953125 115.914062 251.136719 115.589844 250.527344 114.941406 C 249.921875 114.292969 249.621094 113.421875 249.621094 112.320312 C 249.621094 111.207031 249.925781 110.332031 250.539062 109.695312 C 251.152344 109.054688 251.992188 108.734375 253.058594 108.734375 C 253.402344 108.734375 253.742188 108.769531 254.070312 108.84375 C 254.398438 108.914062 254.71875 109.019531 255.027344 109.160156 Z M 255.027344 109.160156 "/>
<path style=" stroke:none;fill-rule:nonzero;fill:rgb(0%,0%,0%);fill-opacity:1;" d="M 261.902344 109.160156 L 261.902344 110.210938 C 261.582031 110.035156 261.265625 109.902344 260.945312 109.816406 C 260.628906 109.730469 260.304688 109.6875 259.980469 109.6875 C 259.25 109.6875 258.683594 109.917969 258.28125 110.378906 C 257.878906 110.839844 257.675781 111.488281 257.675781 112.320312 C 257.675781 113.15625 257.878906 113.804688 258.28125 114.265625 C 258.683594 114.726562 259.25 114.960938 259.980469 114.960938 C 260.304688 114.960938 260.628906 114.914062 260.945312 114.828125 C 261.265625 114.742188 261.582031 114.609375 261.902344 114.433594 L 261.902344 115.472656 C 261.585938 115.617188 261.261719 115.726562 260.925781 115.800781 C 260.59375 115.875 260.234375 115.914062 259.855469 115.914062 C 258.828125 115.914062 258.007812 115.589844 257.402344 114.941406 C 256.796875 114.292969 256.492188 113.421875 256.492188 112.320312 C 256.492188 111.207031 256.800781 110.332031 257.410156 109.695312 C 258.023438 109.054688 258.863281 108.734375 259.929688 108.734375 C 260.277344 108.734375 260.613281 108.769531 260.941406 108.84375 C 261.273438 108.914062 261.589844 109.019531 261.902344 109.160156 Z M 261.902344 109.160156 "/>
</g>
</svg>
